<svg preserveAspectRatio="none" width="100%" height="100%" overflow="visible" style="display: block;" viewBox="0 0 37.7752 43.3698" fill="none" xmlns="http://www.w3.org/2000/svg">
<g id="Vector 352">
<path d="M13.402 29.3459C14.7223 34.4958 13.402 36.6608 13.402 38.0666C13.402 39.4724 15.3932 45.8305 19.7445 41.7206C20.1129 41.3727 21.1616 37.0561 21.2341 36.4906C21.6487 35.5195 22.7654 31.3533 24.9376 31.402C28.4924 31.4817 29.5392 31.6445 31.4724 31.402C32.2113 31.3093 34.2776 30.8694 35.9831 28.6549C36.4917 27.9944 36.9749 27.0657 36.4312 24.2486C35.5836 19.8574 34.8793 16.6186 34.2776 15.6489C33.7939 14.8694 33.31 14.2046 32.7096 14.2197C31.4545 14.2511 29.1029 14.576 28.5205 16.0037C28.4254 16.2367 28.3666 16.533 28.4101 16.8162C28.6307 18.252 30.4011 20.2554 30.4011 22.0114C30.4011 24.0586 27.653 26.232 26.4584 26.3618C25.829 26.4301 23.014 26.5861 22.5931 26.3618C22.1884 26.1461 21.7258 25.8136 21.5112 25.2475C21.1376 24.2618 20.44 22.6889 21.6198 17.1912C22.569 12.768 24.7709 8.98975 24.7639 6.98397C24.7545 4.2793 24.7 2.37935 23.7128 1.62386C23.3094 1.31509 21.5986 0.637087 20.5466 1.52355C19.8029 2.15031 19.3732 4.46119 18.3254 5.79003C17.9887 6.21707 17.5982 6.72876 17.003 6.80262C16.2822 6.89208 15.5929 6.92081 15.2437 6.58035C14.9039 6.24894 14.7192 3.42013 13.1912 2.94302C12.8395 2.8332 12.3048 2.74096 11.9646 2.91081C10.9586 3.41303 9.6643 4.46308 9.62802 5.90946C9.59957 7.04385 9.62501 8.02944 9.91056 8.55595C10.5677 9.76753 11.4267 11.157 12.5557 11.6053C13.7869 12.0942 15.5957 12.109 16.3958 12.8493C16.7702 13.1958 17.1526 13.6054 17.2481 14.1679C17.5014 15.6595 17.7954 17.8313 16.6495 18.8831C15.7622 19.6975 14.6104 20.2671 13.402 20.2554C11.4764 20.2367 10.4335 19.2492 8.69255 17.1912C7.44831 15.7203 7.32031 14.4169 6.36844 13.6885C6.00648 13.4116 5.04028 13.0002 4.00118 13.5186C2.36729 14.3338 0.678676 15.0139 0.671139 16.4808C0.663595 17.949 0.726059 19.466 2.15889 20.8925C3.41183 22.1399 5.32078 23.6131 8.69255 24C11.0997 24.2762 12.9432 27.5561 13.402 29.3459Z" fill="var(--fill-0, #CDA6FE)"/>
<path d="M23.0577 25.1847C22.9136 25.1459 23.0988 25.1883 23.202 25.1904C23.3244 25.1993 23.4643 25.2043 23.6075 25.2069C23.8951 25.212 24.1981 25.2079 24.5033 25.1995C25.1054 25.1817 25.7737 25.1487 26.3209 25.0957C27.1963 24.9271 29.2258 22.9925 29.116 22.0114C29.1249 21.5271 28.7985 20.7458 28.3855 19.9651C27.9877 19.141 27.4192 18.411 27.1367 17.0118C27.0557 16.4382 27.15 15.9681 27.3282 15.5173C27.9177 14.1585 29.09 13.6626 29.9757 13.3648C30.9053 13.0749 31.785 12.9701 32.6778 12.9459C33.6119 12.9378 34.1748 13.4703 34.4882 13.7944C34.8178 14.1499 35.0264 14.4733 35.2221 14.7792C35.2702 14.8554 35.3112 14.9233 35.3475 14.985C35.6199 15.4696 35.6305 15.6317 35.666 15.7632C35.6934 15.8927 35.6931 15.9518 35.7332 16.0792C35.9595 16.8311 36.162 17.225 36.2921 17.7471C36.8096 19.9265 37.1784 21.9452 37.5606 24.0306C37.623 24.375 37.6774 24.7244 37.7188 25.085C37.8671 26.4711 37.6853 26.9198 37.6041 27.0538C37.5036 27.1974 37.4529 27.0922 37.3169 27.608C36.9772 28.6204 36.8557 28.6785 36.9965 28.6534C37.107 28.6209 37.3375 28.428 37.1434 28.855C37.0428 29.0202 36.9318 29.1732 36.8277 29.3054C35.5823 30.9052 33.7145 32.1227 31.5938 32.3698C31.5564 32.3738 31.5193 32.3776 31.4824 32.3813C31.5189 32.3746 31.5556 32.3676 31.5926 32.3606C32.1228 32.262 32.6087 32.103 33.0838 31.8979C32.1613 32.248 30.736 32.3571 32.336 31.9721C32.074 32.0199 31.8219 32.0484 31.5552 32.0623C31.4689 32.0662 31.3857 32.0694 31.2961 32.073C31.2243 32.2295 29.6158 32.3326 29.4739 32.3891C29.3268 32.4688 30.2302 32.4356 30.2263 32.4368C30.1259 32.5937 26.5586 32.3391 26.3248 32.3197C25.6588 32.2709 26.2475 32.1303 25.6799 32.124C25.1159 32.1186 25.0932 32.2301 24.9189 32.2366C24.8445 32.2558 24.7922 32.1529 24.3635 32.1573C24.1143 32.4748 24.05 32.4237 23.6699 32.8509C23.6217 32.9097 23.7216 32.9134 23.7028 32.9407C23.242 33.6916 23.5066 33.0542 23.4996 33.0493C23.3274 33.0195 22.8655 33.9346 22.7728 34.1356C22.3026 34.9802 21.9952 35.7922 21.6141 36.6528L21.644 36.5432C21.2065 38.2418 20.8364 39.7072 20.0894 41.6354C20.0485 41.7089 20.0418 41.7645 19.9161 41.9023C19.3641 42.5231 17.7864 43.484 17.0774 43.3587C16.3803 43.3006 16.7663 43.2224 16.435 43.1124C15.8552 43.1974 15.1727 42.9112 14.567 41.8261C14.1676 41.546 14.2878 41.5253 13.8683 40.7651C13.5293 40.131 12.9073 38.981 13.061 38.0666C13.1343 39.0575 13.2227 38.9139 13.5731 39.8799C13.6347 40.0349 13.9678 40.9567 14.507 41.6858C15.0246 42.439 15.7868 42.8523 15.7176 42.6984C15.6259 42.588 14.7783 41.8327 14.7875 41.7605C14.7222 41.4936 15.1642 41.9472 15.5464 42.3161C15.4305 42.2453 15.2987 42.1474 15.1841 42.0527C15.5718 42.5427 15.7383 42.4971 15.8064 42.4914C15.8917 42.4763 15.8745 42.4915 16.2156 42.8694C16.3075 42.958 16.2435 42.9971 16.4245 43.106C16.4688 43.0955 16.2503 42.9749 16.4541 43.0222C16.6565 43.0769 17.0649 43.2007 17.1252 43.1016C17.1652 43.0337 16.9754 43.0291 16.7652 42.9979C16.5587 42.971 16.3365 42.9091 16.3077 42.894C16.3068 42.8945 16.3059 42.8951 16.3049 42.8956C16.0534 42.7595 16.2042 42.8082 16.4219 42.8641C16.6406 42.9228 16.9413 42.937 16.9675 42.9289C17.3133 42.8377 17.0825 42.8111 17.5539 42.6535C17.8224 42.5721 18.4906 42.2535 18.7166 42.0605C18.9327 41.8909 18.5482 42.0888 18.6928 41.9703C18.8271 41.8597 19.0555 41.7392 19.2057 41.5863C19.2731 41.518 19.2236 41.4696 19.2567 41.4365C19.3025 41.3902 19.3404 41.354 19.372 41.3263C19.2992 41.411 19.3589 41.3572 19.3671 41.3578C19.3839 41.3507 19.401 41.3482 19.4191 41.3423C19.4562 41.3264 19.4965 41.3084 19.5635 41.1251C19.6676 40.858 19.8343 39.8343 19.5906 40.4943C19.6781 40.171 19.7603 39.8501 19.8407 39.5203C19.7643 39.7196 19.6897 39.9298 19.608 40.1199C19.8183 39.522 19.778 39.209 19.872 38.8208C19.9648 38.4323 20.1903 38.1162 20.2268 37.6715C20.3056 36.7248 19.8217 39.0023 19.709 39.2702C19.6698 39.3757 19.6757 38.9311 19.6891 38.866C19.7512 38.5777 19.914 38.2582 19.9654 38.0362C20.1168 37.3729 20.1719 36.8067 20.2157 36.36L20.2898 36.0875C20.3084 36.0297 20.3413 35.9308 20.3722 35.8384C20.6716 34.9349 21.0168 33.8505 21.5843 32.7842C22.1476 31.8046 22.9943 30.2928 24.9638 30.236C25.7545 30.2425 26.5137 30.2583 27.2087 30.2774C28.1596 30.3041 28.7123 30.44 29.1213 30.4411C30.0722 30.4361 30.1651 30.328 30.9652 30.2501C31.0794 30.2375 31.1979 30.224 31.3227 30.2092C32.2835 30.1205 33.5378 29.5392 34.159 28.9917C34.6517 28.5889 34.9407 28.064 35.04 27.9286C35.0404 27.9281 35.0409 27.9275 35.0413 27.9269C35.6161 27.3116 35.5086 25.8915 35.2321 24.48C34.977 23.1745 34.7307 21.9384 34.5155 20.9284C34.2987 19.9116 34.2932 19.4107 34.242 19.2055C34.0146 18.3201 33.9815 18.5793 33.8034 17.8757C33.7042 17.5 33.7688 17.4081 33.758 17.3579C33.6544 16.9226 33.5103 16.8725 33.3954 16.5919C33.3404 16.4613 33.2789 16.3385 33.2465 16.2887C33.0625 15.9937 32.8814 15.7203 32.7302 15.5451C32.657 15.4584 32.5906 15.4017 32.5785 15.3927C32.5611 15.3814 32.6416 15.4232 32.7396 15.4158C31.7006 15.4243 30.5304 15.6184 29.9103 16.056C29.8371 16.109 29.8117 16.0632 29.7704 16.1017C29.6207 16.2648 29.7419 16.2549 29.6573 16.3906C29.646 16.4126 29.6367 16.4338 29.6286 16.4557C29.598 16.5299 29.5923 16.6376 29.5953 16.6342C29.6324 16.9214 29.8634 17.4534 30.1328 17.9796C30.1758 18.0644 30.1348 18.1327 30.2393 18.3303C30.3445 18.5295 30.4831 18.6501 30.65 18.983C31.0417 19.8088 31.4663 20.7144 31.4868 22.0114C31.486 22.0993 31.4821 22.1868 31.4751 22.2739C31.4571 22.5049 31.4915 22.8052 31.3928 23.1258C31.0951 24.1558 30.1885 25.1618 29.6482 25.6694C28.7795 26.4395 28.1202 27.1259 26.577 27.4534C25.3588 27.5651 24.3357 27.6357 23.0793 27.5796C22.9583 27.5714 22.8367 27.5576 22.7013 27.5331C22.5473 27.4955 22.4576 27.5132 22.0786 27.3271C21.8254 27.1688 21.6091 26.9903 21.4517 26.8609C21.1425 26.5997 21.1021 26.5507 21.0511 26.5264C21.0061 26.4926 20.9347 26.4835 20.6865 26.0914C20.6015 25.9489 20.5285 25.7979 20.4695 25.6423C19.2768 22.6207 20.0349 19.6678 20.5488 16.9613C20.9569 15.0817 21.5871 13.2875 22.2453 11.5479C22.7912 10.0608 23.5901 8.09525 23.6158 6.98797C23.615 6.75634 23.6149 6.5345 23.6154 6.31763C23.6158 5.58987 23.7111 5.45756 23.691 4.95674C23.638 4.08314 23.5125 3.89418 23.3211 3.16496C23.2245 2.84094 23.1282 2.60486 23.0402 2.50265C23.0745 2.50862 22.9318 2.41309 22.8299 2.36575C22.717 2.31061 22.5938 2.26497 22.4719 2.23442C21.8971 2.10331 21.5878 2.26268 21.3685 2.41791C21.3549 2.42829 21.3419 2.43883 21.328 2.45077C21.3718 2.38545 21.1296 2.71732 20.9779 3.06239C20.8094 3.41792 20.6405 3.8288 20.4905 4.20412C20.1899 4.94368 19.8731 5.73726 19.2676 6.533C18.9304 6.9355 18.4023 7.81594 17.1528 8.00927C16.8231 8.05148 16.4728 8.09374 16.0446 8.08184C15.6326 8.05231 15.0312 8.04838 14.3842 7.46173C14.1552 7.22624 14.1137 7.09999 14.0611 7.00436C14.0125 6.90347 13.9864 6.83544 13.9601 6.76547C13.9123 6.63577 13.8799 6.52932 13.8502 6.43094C13.7914 6.23299 13.7446 6.06033 13.6968 5.89344C13.6025 5.562 13.5074 5.25777 13.3986 4.98842C13.1917 4.43356 12.8725 4.12127 12.8164 4.14311C12.7035 4.10834 12.571 4.08347 12.4864 4.07869C12.4039 4.06655 12.3606 4.11015 12.5281 4.03968C11.5978 4.49851 10.8683 5.3339 10.8926 5.94118C10.8813 6.37271 10.8763 6.79517 10.8965 7.17865C10.9077 7.54553 10.9968 7.95058 11.015 7.95696C11.6039 9.08474 12.3763 10.2214 13.0074 10.4678C13.2002 10.548 13.4404 10.621 13.7009 10.6877C14.6096 10.9885 15.6963 10.8245 17.2021 11.978C17.6221 12.3725 18.2482 13.0126 18.4036 13.9717C18.5892 15.2894 18.8489 16.7429 18.2459 18.3571C18.1752 18.525 18.1607 18.468 18.1152 18.5051C18.0593 18.5396 18.0232 18.681 17.6756 19.1912C17.5795 19.3238 17.4665 19.4673 17.3218 19.6156C16.9797 19.969 16.5057 20.4531 15.6158 20.8653C14.945 21.1696 14.1822 21.3592 13.3914 21.3496C12.2514 21.3739 10.919 20.8843 10.058 20.1438C9.17391 19.4205 8.53625 18.6301 7.89688 17.8643C6.8387 16.6734 6.35766 14.881 5.77009 14.4705C5.66538 14.3807 5.36596 14.2587 5.13619 14.2436C4.89435 14.2214 4.66105 14.2633 4.42846 14.375C3.01159 15.0322 1.47831 15.8118 1.61544 16.4856C1.61547 16.6051 1.61607 16.7229 1.61792 16.8384C1.61514 18.2486 1.95812 19.3286 2.87951 20.1687C4.52236 21.7733 6.6017 22.6049 8.83187 22.7857C12.5077 23.5535 13.7754 26.3962 14.6272 29.0318C15.4514 32.0308 15.0341 35.5921 14.0302 37.893C13.9558 38.203 13.6567 38.0526 13.5941 37.8005C13.6768 37.5919 13.785 37.4069 13.8984 37.1923C13.5908 36.8249 13.6936 36.9021 13.9319 35.8076C14.0616 35.13 13.8195 35.6485 13.8274 35.2818C13.8889 34.8011 13.6957 32.619 13.9342 33.0278C13.8861 32.8959 13.838 32.7684 13.7873 32.6403C13.684 31.5316 13.4471 30.4611 13.1333 29.4148C13.003 28.9881 12.8206 28.57 12.6124 28.1647C12.4905 27.9323 12.4156 27.9549 12.2813 27.7217C11.9128 27.1019 11.6427 26.5891 11.1641 26.0282C10.898 25.7314 10.7995 25.7452 10.43 25.4027C10.0509 25.0865 10.1216 24.9587 9.47622 24.768C9.65456 24.9652 9.19227 24.67 8.62449 24.5931C8.0837 24.5234 7.49649 24.3957 7.16225 24.3209C7.04763 24.3035 6.06404 24.1833 5.5775 23.9674C5.08866 23.7664 4.398 23.3569 3.68964 22.9595C3.35709 22.7726 3.10411 22.7246 2.77175 22.4753C2.53882 22.2992 2.33114 22.0018 2.06911 21.7541C1.96666 21.6576 1.81347 21.5265 1.66044 21.3931C1.39836 21.166 1.14933 20.9038 1.09096 20.8274C0.750275 20.3724 1.17087 20.8413 0.949778 20.5235C0.12795 19.3749 -0.026214 17.7391 0.00334883 16.4774C-0.00743151 15.8678 0.264038 15.2533 0.604437 14.8493C0.765657 14.6561 0.477625 14.8678 0.497157 14.8441C1.04338 14.1581 1.22181 14.129 1.26053 14.1072C1.30507 14.1028 1.24808 14.1944 1.43611 14.1054C1.7006 13.9425 3.04849 13.2483 3.68153 12.8779C3.98931 12.6999 4.22583 12.6154 4.22247 12.5773C4.36081 12.6907 5.0783 12.4754 5.2851 12.5123C6.04639 12.6074 5.85655 12.7047 6.53193 12.977C6.7849 13.106 6.35391 12.7423 6.61987 12.8976C6.69605 12.9436 6.77085 12.9956 6.8489 13.0607C7.34692 13.4861 7.55923 14.0592 7.84954 14.6481C7.92938 14.8097 8.01923 14.8316 8.15636 15.1048C8.28013 15.3955 8.83925 16.4551 8.67292 15.9072C8.85431 16.3363 8.99458 16.5162 9.20583 16.757C9.33858 16.9062 9.49249 17.0758 9.70651 17.3222C9.85484 17.4917 9.9648 17.7934 10.3196 18.109C10.4411 18.2153 10.5151 18.1353 10.6839 18.297C11.0722 18.6584 11.373 19.0706 11.9352 19.3405C12.3764 19.5482 12.8726 19.6322 13.4082 19.623C14.0946 19.613 14.7852 19.3677 15.4121 19.0028C15.7029 18.8239 15.7012 18.9725 16.104 18.6528C16.1243 18.6357 16.1888 18.5665 16.271 18.4707C16.3922 18.3277 16.5129 18.0869 16.5959 17.9111C16.715 17.7892 16.96 16.7504 16.9373 16.5063C16.9489 16.1302 16.8328 16.0655 16.8421 15.8574C16.8507 15.2486 17.0598 15.7153 16.7547 15.0054C16.8273 14.7868 16.779 14.4406 16.834 14.2382C16.8457 14.2097 16.8598 14.1839 16.8782 14.1619C16.6789 14.0168 16.7295 13.7265 16.3712 13.4173C16.2742 13.3354 16.1606 13.2748 16.0512 13.2218C15.8323 13.1482 15.6294 13.1673 15.6603 12.9125C15.4794 12.8464 14.5385 12.6782 14.3635 12.6549C13.8729 12.5654 14.1538 12.5306 13.7759 12.4633C13.7081 12.45 13.7683 12.532 13.3342 12.4253C13.2209 12.3943 12.8182 12.3077 12.3503 12.1226C11.5562 11.8091 10.9894 11.1265 10.9388 11.0712C10.0376 9.83391 11.489 11.6991 11.9351 11.7511C11.9781 11.7991 12.0218 11.8458 12.073 11.8939C12.2188 11.9804 12.3234 12.0202 12.3847 12.0362C12.4784 12.0586 12.4683 12.024 12.4108 11.9705C12.3455 11.913 12.2308 11.8283 12.1292 11.757C11.862 11.586 11.3826 11.2636 11.2469 11.046C11.1799 10.9386 11.3497 10.8842 11.6019 11.1436C11.3533 10.8421 11.7783 11.1576 11.6994 11.0174C11.5662 10.9102 10.5735 9.55993 10.5139 9.58073C10.6802 9.8512 10.9082 10.1744 11.1078 10.4259C11.2635 10.8835 9.93184 10.1617 9.56763 8.97108C9.53921 8.88454 9.52246 8.81904 9.51442 8.7708C9.45896 8.50429 9.59139 8.64251 9.59086 8.5849C9.60605 8.53184 9.42552 8.29288 9.29842 7.35765C9.31478 7.6795 9.33075 7.95845 9.40469 8.27083C9.2857 8.33227 9.31099 7.79893 9.2587 7.56208C9.22394 7.43963 9.22426 8.20398 9.12111 7.55211C9.24135 7.02887 9.09926 6.65041 9.09202 5.89602C9.09193 5.82011 9.09543 5.74281 9.10376 5.66085C9.10397 5.74032 9.10741 5.81786 9.11381 5.89656C9.13242 6.07715 9.15218 6.25807 9.17435 6.43949C9.31234 5.02418 9.32758 8.07673 9.41515 5.90412C9.42172 5.78141 9.43683 5.64502 9.46784 5.49399C9.44531 5.62997 9.43237 5.76666 9.42992 5.90449C9.42622 6.1221 9.42392 6.3399 9.42954 6.56C9.49464 6.39142 9.6851 6.66047 9.7255 6.51063C9.77208 6.33953 9.78894 6.13309 9.79616 5.91368C9.80357 5.65055 9.84507 5.36759 9.9415 5.13122C10.0187 4.94892 10.0206 5.08325 10.0269 5.06757C10.1414 4.82827 10.0492 4.84659 10.1676 4.63593C10.3022 4.35249 10.9832 3.77728 11.1004 3.69792C11.3802 3.44979 10.7985 3.72106 10.8198 3.69698C10.9528 3.47429 11.4044 3.23378 11.3311 3.1732C10.0696 3.66311 8.79269 7.24154 10.0389 4.11536C9.69895 4.43955 9.55038 4.57603 9.54424 4.42438C9.54309 4.28219 9.71595 3.84412 10.2269 3.34468C11.102 2.57668 10.5836 3.12178 11.111 2.85044C11.1435 2.83523 11.4326 2.65724 11.7601 2.50114C12.36 2.24707 12.8144 2.40867 12.8694 2.36371C12.7944 2.49882 13.2328 2.72897 12.8911 2.81457C12.8437 2.81115 12.2739 2.7711 12.4699 2.90574C12.5673 2.96585 12.8009 3.13993 12.7448 3.21312C12.8532 3.17506 12.9762 3.13928 13.0986 3.11518C13.1107 3.1185 13.1227 3.12194 13.1342 3.1253C13.7963 3.39085 13.7858 3.6414 13.9307 4.0131C13.9592 3.98068 13.9013 3.52747 14.1709 4.09137C14.1814 4.12213 14.1447 4.17325 14.2417 4.47299C14.4206 5.09172 14.4235 5.2214 14.0873 4.83182C14.2768 5.23539 14.3625 5.56765 14.4308 5.86914C14.4649 6.02104 14.4925 6.16569 14.5287 6.32364C14.548 6.40572 14.5672 6.48529 14.5983 6.58164C14.6402 6.68045 14.6316 6.76809 14.8347 6.99976C15.2216 7.39087 15.7427 7.46882 16.2338 7.45026C16.1225 7.36647 15.9871 7.31825 15.7882 7.26554C15.5951 7.20318 15.3019 7.17883 14.9564 6.87495C14.7152 6.59028 14.7278 6.47429 14.6497 6.28805C14.59 6.11581 14.5334 5.93344 14.4706 5.73489C14.5121 5.66504 14.5611 5.62453 14.6027 5.55336C14.7605 6.32162 14.7507 6.56583 14.9859 6.84474C15.1585 6.98492 15.2027 7.06574 15.8292 7.11322C16.0459 7.14425 16.8577 7.09803 17.0278 7.0023C17.0811 6.9781 17.0834 6.95545 17.0194 6.93474C17.0059 6.92954 16.9889 6.92436 16.9683 6.91914C16.865 6.90477 16.0588 6.95053 16.1523 6.87607C16.1663 6.87496 16.6941 6.83644 17.0012 6.78819C17.11 6.77373 17.1886 6.749 17.2109 6.7465C17.7004 6.64064 17.618 6.72242 17.6383 6.7841C17.6305 6.82611 17.9098 6.8011 18.533 5.95372C18.6461 5.80525 18.7642 5.62805 18.8836 5.41882C18.9252 5.34474 18.879 5.28376 18.9487 5.1371C19.0761 4.86044 19.1507 4.89347 19.2508 4.63987C19.3498 4.38511 19.3929 4.0007 19.6391 3.66705C20.0815 3.04991 19.5742 4.72252 19.0535 5.38747C19.0672 5.53409 19.4578 4.99953 19.8207 4.21202C20.1798 3.46762 20.604 2.2839 20.9449 1.99616C21.3075 1.69272 21.7813 1.70669 21.8556 1.69621C22.4542 1.68637 22.2637 1.66094 21.8938 1.63398C21.5167 1.60411 21.0881 1.78558 21.04 1.79068C21.006 1.78913 20.8963 1.59611 20.7195 1.72863C20.6709 1.76654 20.619 1.85025 20.5912 1.99448C20.5752 2.08013 20.6807 1.99471 20.7593 1.96103C20.8385 1.92833 20.8894 1.91913 20.8105 2.03877C20.645 2.33417 20.6315 2.18233 20.6107 2.19449C20.5346 2.25722 20.3697 2.68685 20.3331 2.73989C19.7502 3.53919 19.443 3.28652 20.4404 2.36527C20.5846 1.8336 19.8518 2.86694 20.0871 2.21526C20.1981 1.92005 20.3565 1.67002 20.5493 1.52674C20.8843 1.28329 21.1738 1.2895 21.2322 1.27298C21.8368 1.18018 21.795 1.20785 21.7791 1.15393C21.7611 1.13097 21.7941 1.01116 22.5619 1.18707C23.3788 1.43789 21.3127 1.02071 23.1613 1.52463C23.3632 1.60551 23.5195 1.68681 23.6143 1.75266C24.2074 2.30351 23.8589 1.82796 24.0496 1.77992C24.0788 1.77352 24.2542 1.9641 24.3077 2.02905C24.3466 2.10612 24.3932 1.96222 23.8668 1.49078C23.8493 1.49478 23.8289 1.49826 23.8067 1.50118C23.7488 1.50776 23.6776 1.51255 23.6119 1.51244C23.371 1.31762 22.9406 0.91164 22.7615 0.864286C21.9105 0.654045 21.9496 0.824367 21.401 0.722011C21.8057 0.838588 21.1711 0.805366 20.9593 0.943997C20.4185 1.30755 20.8446 1.13212 20.421 1.37446C20.2666 1.48024 20.0483 1.69812 19.7978 2.10087C19.9738 1.9283 20.1474 1.77943 20.3489 1.6551C20.2177 1.82096 20.1175 2.00337 20.0258 2.18793C19.7219 2.38307 19.3222 3.42282 19.5525 2.4269C19.0354 3.52745 18.913 3.96076 18.9257 4.25017C18.9293 4.30483 18.8672 4.46915 18.7786 4.65364C18.8297 4.63603 18.9571 4.64195 18.9557 4.67776C18.9421 5.00361 18.5193 5.28939 18.526 5.1127C18.4511 5.23295 18.3867 5.32323 18.3635 5.35478C18.2169 5.55242 18.4181 5.10893 18.2879 5.26159C18.267 5.28639 18.1676 5.44267 18.0581 5.57928C17.9371 5.73317 17.8227 5.86631 17.8063 5.86104C17.7052 5.82998 17.8593 5.6201 17.8498 5.62511C17.845 5.62739 17.7977 5.69361 17.6598 5.84432C17.5262 5.98264 17.2763 6.25528 16.9512 6.27585C16.944 6.36682 17.1129 6.38529 17.2861 6.32309C17.4572 6.2669 17.6222 6.15636 17.5873 6.31551C17.5331 6.54631 17.2006 6.65145 16.9868 6.67196C16.8613 6.6911 16.7633 6.726 16.7252 6.81491C16.6704 6.77881 16.645 6.74657 16.5982 6.70337C15.6431 6.86673 15.6557 6.54228 15.5134 6.43068C15.4955 6.41167 15.475 6.38926 15.4556 6.36311C15.474 6.38043 15.3618 6.04252 15.3053 5.79533C15.2374 5.52806 15.1624 5.26137 15.0997 5.08733C14.966 4.73714 14.9549 4.78097 15.1665 5.87751C15.0568 5.54759 14.9561 5.20056 14.8291 4.87038C14.9934 4.77283 15.0588 4.7871 15.0168 4.61689C14.9545 4.45053 14.8891 4.07555 14.3442 3.27646C14.0834 2.94785 14.0379 2.67944 13.5278 2.64007C13.5662 2.59947 13.4908 2.52663 13.341 2.46331C13.0216 2.29944 12.295 2.30328 12.1743 2.33138C11.579 2.36346 12.6336 1.97299 13.402 2.26781C14.1368 2.4872 14.5218 3.10482 14.4901 3.29577C14.8765 3.62407 14.7242 3.71921 14.9538 4.16245C15.2522 4.81027 15.3036 4.91122 15.3916 5.70419C15.5762 6.04721 15.4167 5.32922 15.254 4.74333C15.075 4.1655 14.9764 3.7585 15.4963 4.9029C15.5624 5.06017 15.6395 5.27136 15.7232 5.51913C15.7647 5.6406 15.8086 5.77406 15.8538 5.89872C15.8763 5.9605 15.9001 6.02182 15.9196 6.06306C15.9223 6.09142 16.0124 6.16853 15.8438 5.96504C15.7929 5.91305 15.8743 5.96842 16.0866 5.96555C16.2925 5.96772 16.5751 5.93606 16.8893 5.88654C16.9653 5.88166 17.2078 5.69523 17.5653 5.19066C17.905 4.73297 18.1968 4.06192 18.4791 3.32627C18.8323 2.5638 18.8207 1.84307 19.8628 0.712105C20.5824 0.0853797 21.5321 -0.0521052 22.2617 0.0156951C23.0371 0.110406 23.5746 0.215212 24.3877 0.742096C25.9857 2.23647 25.6961 3.626 25.8623 4.59845C25.9284 5.60365 25.9297 6.37979 25.94 6.88821C25.9405 6.91876 25.9409 6.94931 25.9414 6.97987C25.0246 12.2118 23.4743 14.0924 22.8651 17.4584C22.6812 18.3287 22.5091 19.2359 22.381 20.2208C22.3494 20.4564 22.2334 21.4628 22.2188 22.2815C22.1941 23.0968 22.2737 23.7104 22.1154 23.3989C22.0523 23.3301 21.8956 21.8503 21.8084 23.1298C21.8788 22.8688 22.0182 23.588 22.0475 23.6364C22.3667 24.447 22.4637 24.3419 22.669 24.8087C22.7416 24.8799 22.6848 24.9552 23.1895 25.2429C23.127 25.2097 23.0832 25.1937 23.0577 25.1847ZM29.8025 24.7936C28.5982 26.0782 28.317 26.1079 28.4729 26.1224C28.6061 26.1138 29.0528 25.9031 28.8533 26.2625C29.2275 25.9734 29.5751 25.6566 29.8986 25.3065C29.7992 25.3853 29.6998 25.46 29.5981 25.533C29.5978 25.5334 29.5974 25.5337 29.597 25.5341C29.6786 25.2879 29.748 25.04 29.8025 24.7936ZM19.2317 40.9269C19.232 40.8058 19.2291 40.6855 19.2313 40.5479C19.3679 40.1709 19.4965 39.7707 19.6207 39.3693C19.6347 39.4249 19.6491 39.48 19.6629 39.5357C19.5276 40.0128 19.3869 40.4922 19.2317 40.9269ZM18.8319 5.82362C18.751 5.90524 18.6865 5.97359 18.6342 6.03352C18.3837 6.29028 18.5053 6.47717 17.8093 6.92949C17.9981 6.98549 18.2081 7.00665 18.4136 7.01978C18.7432 6.67962 18.8369 6.48963 18.9749 6.30221C19.0938 6.1372 19.2218 5.95691 19.3988 5.69148C19.3114 5.74249 19.2222 5.79243 19.1338 5.83767C19.0743 5.94816 19.006 6.06662 18.9365 6.17299C18.7308 6.2458 19.366 5.25785 18.833 5.82154C18.8326 5.82223 18.8323 5.82293 18.8319 5.82362ZM14.0138 4.49775C13.9636 4.35939 13.8259 4.01628 13.6309 3.76958C13.4401 3.51508 13.1983 3.39686 13.1309 3.40696C12.9165 3.4432 13.3569 3.59327 13.5681 3.94453C13.6785 4.10298 13.7451 4.24746 13.7119 4.22213C13.6791 4.21492 13.5393 3.95246 13.1961 3.74795C13.1842 3.77636 13.1615 3.79629 13.1443 3.82057C13.3421 3.97014 13.5468 4.28829 13.7033 4.67215C13.8027 4.60391 13.916 4.57078 14.0138 4.49775ZM20.3551 22.6161C20.3035 22.0753 20.4523 19.6132 20.2386 20.3988C20.1665 20.6311 20.2754 21.7583 20.2759 22.1821C20.2721 22.4641 20.1581 22.1461 20.2113 22.7007C20.2572 22.675 20.3086 22.6584 20.3548 22.6146C20.3549 22.6151 20.355 22.6156 20.3551 22.6161ZM21.0481 23.5329C20.9595 23.0218 20.9174 22.4953 20.9084 21.9702C20.7711 22.3526 20.8891 23.1104 20.7292 23.1681C20.7037 23.0247 20.6817 22.8794 20.6626 22.7319C20.6952 22.6179 20.7296 22.5068 20.7656 22.3968C20.6751 21.9395 20.6134 22.2148 20.6809 21.3655C20.4127 21.8621 20.1934 21.978 20.5845 23.4617C20.4231 23.1858 19.955 23.5228 20.4643 24.3372C20.5561 24.4824 20.4549 23.8097 20.4707 23.7993C20.5718 23.6807 20.709 24.0288 20.8016 23.9012C20.8405 23.8449 20.7828 23.4596 20.8492 23.3932C20.8792 23.3654 21.0254 23.7113 21.0481 23.5329ZM20.6854 24.7191C20.5712 24.5742 20.5816 25.1318 20.7482 25.5367C20.769 25.5906 20.7926 25.6432 20.8188 25.6936C21.1508 26.2304 21.0231 25.9279 20.8918 25.4823C20.8403 25.2477 20.7449 24.9108 20.6854 24.7191ZM19.231 40.9293C19.2312 40.9285 19.2315 40.9277 19.2317 40.9269C19.2317 40.9274 19.2317 40.9278 19.2317 40.9283C19.2315 40.9286 19.2312 40.929 19.231 40.9293ZM14.431 6.05026C14.2702 5.68482 14.1254 5.17162 14.0419 5.24077C14.0074 5.06949 13.9682 4.90052 13.9238 4.7388C13.897 4.75126 13.8708 4.76516 13.8443 4.77745C14.0145 5.24828 14.1182 5.74863 14.2666 6.33748C14.3194 6.23809 14.3776 6.15275 14.431 6.05026ZM11.2187 3.9971C10.7421 4.41258 11.2246 4.15436 11.1668 4.29416C11.1047 4.42519 10.7381 4.78471 10.8544 4.79547C11.0518 4.53711 11.3171 4.28753 11.6063 4.07586C11.4704 4.05234 11.3538 4.01426 11.2178 3.99792C11.2181 3.99764 11.2184 3.99737 11.2187 3.9971ZM32.1318 14.9602C31.6912 14.9841 31.8366 14.8341 31.0123 15.1275C31.013 15.1273 31.0136 15.1272 31.0142 15.127C31.5165 15.06 32.1309 15.0284 32.7298 15.0233C32.6818 15.0048 32.886 15.0781 33.1011 15.303C32.9496 14.9969 32.7351 14.915 32.7276 14.9386C32.5496 14.945 32.3548 14.9542 32.1318 14.9602ZM19.9295 4.38258C19.941 4.15843 19.4868 5.02832 19.435 5.26125C19.3728 5.64632 19.9315 4.72515 19.9295 4.38258ZM33.6893 30.6653C33.1169 31.2191 34.6433 30.8975 35.6447 29.6756C35.7355 29.5835 34.9651 30.1941 35.1462 29.9599C35.1671 29.9407 35.5589 29.5767 35.6191 29.4554C35.6836 29.3358 35.5331 29.3811 35.6497 29.2032C35.7368 29.0697 35.8924 28.8955 36.0488 28.7056C36.268 28.4499 36.4539 28.1345 36.4707 27.9666C36.4827 27.9363 36.1545 28.3459 36.1264 28.36C36.0559 28.444 35.989 28.5283 35.9266 28.6114C35.6931 28.9241 35.5328 29.2232 35.4894 29.2707C35.2026 29.5775 35.1654 29.4491 35.0736 29.5035C34.8996 29.605 34.6678 29.863 34.6452 29.8748C34.1039 30.1917 35.217 29.3141 35.2952 29.1222C35.5155 28.7446 35.2885 28.8896 35.6221 28.3769C35.6827 28.2784 35.7574 28.1599 35.8337 28.0063C35.8608 27.9637 35.9961 27.6745 36.0138 27.5487C36.0174 27.4146 36.05 27.5384 35.6192 28.1182C35.9914 27.3696 35.8583 27.1067 35.8391 27.2366C35.7859 27.3699 35.7077 27.7598 35.3752 28.1868C34.9009 28.8469 34.217 29.4514 34.0564 29.5885C33.8755 29.7537 34.2364 29.6187 34.1442 29.7453C33.9363 30.043 33.4232 30.3554 33.5411 30.4606C33.804 30.6909 34.4062 30.0808 34.8527 29.7451C34.8531 29.8364 34.8809 29.9024 34.8364 30.0274C34.9257 29.8694 33.7432 30.6553 33.689 30.6647C33.6891 30.6649 33.6892 30.6651 33.6893 30.6653ZM35.8188 22.9774C35.7578 22.1748 35.5715 22.2723 35.538 21.5321C35.2303 20.9376 35.4987 22.1799 35.5166 22.327C35.6045 22.9991 35.4078 23.021 35.6002 23.6882C35.6692 23.4328 35.7478 23.2209 35.8188 22.9774ZM35.0038 29.108C35.2799 28.6792 34.6554 29.3185 34.609 29.3174C34.2227 29.4689 36.0297 27.556 35.0038 29.108ZM20.9903 19.4635C21.0374 19.1983 20.9144 19.3542 20.9238 19.1091C20.9301 18.8662 21.1618 18.0645 21.0998 18.0736C21.0324 18.0833 20.6081 19.5584 20.8478 18.0411C20.8047 18.0843 20.7826 18.0638 20.7475 18.0828C20.6675 18.5011 20.5943 18.9173 20.53 19.338C20.6617 19.1254 20.8026 18.9056 20.9341 18.7042C20.9712 18.951 20.8522 19.0603 20.8497 19.0752C20.8498 19.0752 20.8499 19.0752 20.85 19.0752C20.7878 19.5089 20.8879 20.0761 20.9903 19.4635ZM29.4942 18.1987C29.2385 18.2404 29.775 18.6729 29.9271 18.8948C30.0784 19.1149 30.1654 19.4892 30.1964 19.3168C30.0608 18.8868 29.5184 18.1931 29.494 18.1989C29.494 18.1988 29.4941 18.1988 29.4942 18.1987ZM34.9134 18.7462C34.6954 18.1129 34.665 18.2312 34.5192 17.435C34.4708 17.4813 34.4214 17.5287 34.3737 17.5744C34.5403 18.1856 34.6961 18.1023 34.8061 18.8432C34.823 18.9643 34.6302 18.7417 34.799 19.2684C34.8343 19.0964 34.8754 18.9166 34.9134 18.7462ZM33.7139 15.837C33.7392 15.8758 33.7655 15.9134 33.7927 15.9498C33.9397 16.1361 34.1354 16.3573 34.2318 16.374C34.3246 16.4032 34.3396 16.1901 34.0394 15.7967C34.0044 15.7535 33.9661 15.7081 33.9245 15.6607C33.7852 15.5031 33.4098 15.381 33.7139 15.837ZM22.2029 26.3577C21.2757 25.5586 21.9835 26.3393 22.4506 26.6292C22.5934 26.7085 22.6543 26.7189 22.7139 26.7431C22.6289 26.7264 22.5598 26.7192 22.4349 26.6587C21.517 26.1657 21.4254 25.7937 21.4984 25.9502C21.5771 26.0793 21.9768 26.4828 22.3989 26.7262C22.7648 26.8921 22.9008 26.8745 23.0768 26.9227C23.2374 26.9579 23.3539 26.9905 23.4017 27.0287C23.7968 26.9728 24.4971 26.8044 23.712 26.7632C23.3842 26.7405 23.5002 26.8142 23.481 26.8139C22.9711 26.7673 22.9754 26.7391 22.4943 26.5473C22.4164 26.4967 22.3211 26.4375 22.2029 26.3577ZM36.0963 24.3379C36.0899 24.314 36.0701 24.3248 36.0462 24.3229C36.0221 24.321 35.9938 24.306 35.9707 24.23C35.9248 24.0785 35.9138 23.7188 35.8572 23.6939C35.8149 23.6758 35.8579 24.0616 35.9148 24.3483C35.9342 24.4458 35.9539 24.5285 35.9726 24.5793C36.0459 24.7842 36.2078 24.7622 36.0963 24.3379ZM35.2849 19.3834C35.0809 18.7622 35.0224 19.8668 35.0525 20.0052C35.3329 21.2149 35.1869 19.3707 35.2849 19.3834ZM25.2773 26.1192C23.719 26.3291 24.8651 26.5736 25.8737 26.6719C26.0034 26.6307 26.1351 26.5886 26.2626 26.5456C25.7289 26.7682 24.7814 27.018 26.5038 26.7797C26.6888 26.75 26.8648 26.6894 27.046 26.6077C26.8086 26.6884 26.6226 26.7171 26.4976 26.722C26.2321 26.7259 26.3421 26.6946 26.4912 26.6631C26.6383 26.635 26.7991 26.5767 26.7989 26.5725C26.8111 26.4589 26.6678 26.449 26.4659 26.4301C25.9795 26.3725 25.0806 26.4166 25.2787 26.1191C25.2782 26.1191 25.2777 26.1191 25.2773 26.1192ZM36.2378 26.3831C36.2436 26.7069 36.2113 27.2712 36.1181 27.6323C36.0288 27.9906 35.9543 28.2106 36.1975 27.9024C36.3308 27.4081 36.3111 26.8965 36.2378 26.3831ZM24.9909 4.31931C25.0295 3.74199 24.9874 3.20035 24.7361 2.47648C24.8116 3.16427 24.6707 2.73678 24.5676 2.54087C24.4123 2.2422 24.6747 3.0059 24.6498 3.01121C24.5121 3.02621 24.4245 2.54766 24.6239 3.6484C24.5412 3.38078 24.4465 3.12084 24.3304 2.87432C24.5297 3.68385 24.4347 3.90464 24.385 4.43754C24.5857 3.90326 24.4995 4.59106 24.6396 5.21159C24.7118 5.52357 24.9731 4.61766 24.9907 4.31717C24.9908 4.31788 24.9908 4.31859 24.9909 4.31931ZM23.6671 26.1056C23.509 26.1475 23.3619 26.2031 23.207 26.2446C23.0444 26.2392 22.8691 26.229 22.7382 26.1999C22.7325 26.1578 22.7352 26.1155 22.7425 26.078C22.7403 26.0765 22.7412 26.0762 22.7445 26.0777C22.601 25.9946 22.6374 26.0694 22.5843 26.0445C22.5845 26.0443 22.5846 26.0442 22.5847 26.044C22.0648 25.7878 21.837 25.4938 21.7391 25.1611C21.6783 24.9554 21.6274 24.7492 21.5931 24.5007C21.4788 24.5365 21.3646 24.5724 21.2504 24.6083C21.3121 24.7672 21.3808 24.9241 21.4516 25.0788C21.5126 25.1194 21.5741 25.1604 21.635 25.2006C21.6653 25.2193 21.6957 25.2363 21.7263 25.2523C21.7636 25.4254 21.8332 25.5959 21.933 25.758C22.0504 25.854 22.203 25.9502 22.3204 26.0055C22.542 26.348 22.3206 26.2616 22.041 26.0369C21.7543 25.8174 21.552 25.4006 21.4926 25.4199C21.4642 25.4271 21.5334 25.6464 21.7292 25.8848C21.921 26.1259 22.2398 26.3541 22.5232 26.493C22.8721 26.6171 23.0781 26.5722 23.17 26.5686C23.2056 26.5597 22.8395 26.2957 23.4815 26.4537C23.5807 26.4747 23.6188 27.0245 24.3277 26.5775C24.4273 26.513 24.0674 26.1888 23.6671 26.1056ZM21.5293 21.523C21.0931 22.4829 21.8046 18.8909 21.3574 20.4247C21.2531 19.9588 21.2445 20.0348 21.0525 20.4795C21.035 20.5202 21.0284 20.1927 21.0198 20.2217C20.8895 20.6429 20.8905 21.1684 20.7504 21.1619C20.7496 21.2767 20.749 21.3932 20.7505 21.5095C20.9118 21.0271 20.9516 21.8116 21.0655 22.1066C21.1147 22.2398 21.1344 21.9345 21.1773 22.0473C21.1909 22.0874 21.1605 22.5157 21.2095 22.5338C21.3165 22.5668 21.4462 22.2964 21.5373 21.8562C21.5374 21.8562 21.5375 21.8562 21.5376 21.8562C21.534 21.7469 21.5306 21.6321 21.5293 21.523ZM28.1501 16.4066C28.251 16.3182 28.3646 16.1204 28.4244 16.103C28.5028 16.0818 28.3929 16.2358 28.483 16.805C28.4888 16.8294 28.4951 16.8548 28.5021 16.8812C28.5125 16.8526 28.5234 16.8244 28.5348 16.797C28.5512 16.7594 28.5696 16.7233 28.5896 16.6894C28.5755 16.5 28.606 16.3043 28.6731 16.1141C28.6655 16.0957 28.659 16.0769 28.6536 16.058C28.5353 15.6554 28.9178 15.2588 29.1653 15.1368C29.4149 15.0056 29.5324 14.9876 29.0928 15.0605C28.99 15.0726 28.6017 15.5062 28.9443 15.0347C28.9437 15.0351 28.943 15.0355 28.9423 15.0359C28.5365 15.4197 28.4675 15.6549 28.3314 15.9265C28.2748 16.0533 28.2105 16.1941 28.1501 16.4066ZM30.0882 20.9504C30.4906 21.6966 30.4453 21.1207 30.1704 20.4464C29.8959 19.7819 29.4266 19.0885 29.5377 19.407C29.5799 19.4495 30.3537 21.0024 30.0882 20.9504ZM35.1724 16.5514C34.926 15.8042 34.671 15.8413 34.6392 15.9457C34.6052 16.0489 34.8614 16.5139 34.8687 16.5856C34.8997 16.8065 34.7269 16.3751 34.7643 16.6613C34.7894 16.755 35.0692 18.0367 35.0859 18.0929C35.2183 18.4027 35.2708 17.8861 35.314 17.9731C35.4575 18.2587 35.467 18.695 35.5797 18.7594C35.8227 18.9026 35.4302 18.1812 35.3925 18.0553C35.282 17.6661 35.4013 17.6732 35.3419 17.3711C35.2814 17.0709 35.187 16.8906 35.1113 16.6296C35.0853 16.5415 35.1841 16.5894 35.1724 16.5514ZM33.4899 14.5644C33.7321 14.726 33.7375 14.642 33.6095 14.4403C33.4892 14.2501 33.1434 13.9165 32.7019 13.9113C32.467 13.8994 32.267 13.9081 32.2035 13.9235C31.8082 14.0264 32.2322 14.0961 32.708 14.1557C33.0877 14.1945 33.3551 14.4841 33.4899 14.5644ZM21.1472 23.9956C21.4043 24.659 21.1707 23.0427 21.16 22.5732C21.0985 22.658 21.0338 23.7593 21.1472 23.9956ZM25.7107 26.0964C25.0712 26.1664 25.9058 26.3888 26.4561 26.3406C26.467 26.3396 26.4778 26.3383 26.4887 26.3367C26.6796 26.1793 26.5948 26.1776 26.4404 26.1956C26.3597 26.2025 26.253 26.2136 26.1411 26.2198C25.7834 26.238 26.2182 26.0348 25.7107 26.0964ZM36.78 24.6071C36.7746 24.5713 36.739 24.409 36.6845 24.1997C36.5212 23.5745 36.2243 22.5532 36.371 23.5377C36.3773 23.5797 36.4402 23.8839 36.5143 24.2325C36.6191 24.7122 36.7069 25.2688 36.7293 25.3418C36.8116 25.5824 36.8384 24.9762 36.78 24.6071ZM28.181 24.7573C28.0373 25.0848 27.7644 25.2804 28.1195 25.2346C28.1198 25.2343 28.1202 25.234 28.1206 25.2338C27.463 25.7967 27.2255 25.4606 27.0877 25.5544C26.5751 25.8318 27.1923 25.8336 26.8707 26.0647C27.6717 25.6035 27.5168 25.8599 28.1243 25.4534C28.2636 25.3613 28.6882 24.8509 28.7029 24.7353C28.7235 24.6247 28.3556 24.7097 28.181 24.7573ZM36.7376 27.9712C37.0759 27.1517 36.841 26.4063 36.6472 27.4879C36.5061 27.9929 36.4891 28.4372 36.7376 27.9712ZM14.1284 3.09753C14.181 3.24323 14.2174 3.38875 14.2447 3.53643C14.0547 3.29812 13.8204 3.08212 13.5395 2.94342C13.765 3.04598 13.9658 3.19984 14.1383 3.37681C13.9628 3.14512 13.8023 2.98627 13.771 2.91905C13.7351 2.85543 13.8608 2.8631 14.1272 3.09634C14.1276 3.09673 14.128 3.09713 14.1284 3.09753ZM16.9184 14.8173C16.8931 15.0566 17.1352 15.4902 17.1432 15.4319C17.2096 14.9783 16.9534 14.4794 16.9184 14.8173ZM21.5943 22.9097C21.5887 22.0726 21.2814 22.6537 21.3078 23.1886C21.3399 22.8634 21.6159 23.3833 21.5943 22.9097ZM11.9351 11.7511C11.8718 11.6799 11.812 11.6068 11.7485 11.5262C11.9792 11.7388 12.0259 11.7822 11.9351 11.7511ZM36.9861 24.1899C36.9859 24.1789 36.9846 24.1628 36.9825 24.1422C36.9582 23.902 36.8058 23.0434 36.7544 22.9267C36.6383 22.661 36.6208 23.4656 36.7608 23.9101C36.7697 23.9387 36.8455 24.0751 36.9067 24.1568C36.9509 24.2174 36.987 24.2483 36.9857 24.1877C36.9858 24.1884 36.986 24.1891 36.9861 24.1899ZM12.8732 2.35573C12.8746 2.35899 12.8731 2.36165 12.8694 2.36371C12.871 2.36115 12.8712 2.35824 12.8732 2.35573ZM4.20852 12.5663C4.217 12.569 4.22208 12.5726 4.22247 12.5773C4.21852 12.5737 4.21167 12.5706 4.20852 12.5663ZM35.7113 17.1279C35.9081 16.7109 35.4926 15.965 35.5547 16.6317C35.56 16.6706 35.6897 17.0462 35.7113 17.1279Z" fill="var(--stroke-0, #8D60C5)"/>
</g>
</svg>
