<svg preserveAspectRatio="none" width="100%" height="100%" overflow="visible" style="display: block;" viewBox="0 0 41.3815 39.2135" fill="none" xmlns="http://www.w3.org/2000/svg">
<g id="Star 1">
<path d="M19.6988 1.26429C20.0738 0.110245 21.7065 0.110247 22.0814 1.2643L25.8407 12.834C26.0084 13.3501 26.4893 13.6995 27.032 13.6995H39.197C40.4105 13.6995 40.915 15.2523 39.9333 15.9655L30.0916 23.116C29.6525 23.4349 29.4688 24.0003 29.6365 24.5164L33.3957 36.0861C33.7707 37.2402 32.4499 38.1998 31.4682 37.4866L21.6264 30.3361C21.1874 30.0172 20.5929 30.0172 20.1539 30.3361L10.3121 37.4866C9.33042 38.1998 8.00956 37.2402 8.38453 36.0861L12.1437 24.5164C12.3114 24.0003 12.1277 23.4349 11.6887 23.116L1.84695 15.9655C0.865258 15.2523 1.36978 13.6995 2.58322 13.6995H14.7483C15.291 13.6995 15.7719 13.3501 15.9396 12.834L19.6988 1.26429Z" fill="var(--fill-0, #FF8BC5)"/>
<path d="M7.75987 33.2329C8.71788 30.2713 9.71383 27.1581 10.7182 24.0533C10.6844 24.1522 10.7216 24.2686 10.807 24.3295C8.87893 22.9289 6.96883 21.532 5.13276 20.1692C4.54968 19.7365 4.64903 19.6842 4.49205 19.5537C4.06309 19.1967 3.72199 19.0957 3.39872 18.8501C2.59649 18.2407 1.81728 17.6561 1.04132 17.0744C-0.673671 15.9278 -0.185965 12.9641 1.88577 12.4679C2.1444 12.3999 2.37895 12.3816 2.58322 12.3861C4.11128 12.4538 3.32783 12.7325 3.97594 12.8038C5.32971 12.9532 4.17821 12.5449 4.71033 12.4532C6.26228 12.4777 7.82802 12.5219 9.38274 12.5667C9.0032 12.6048 8.62355 12.6421 8.23986 12.6775C8.91747 12.6859 9.88733 12.7489 8.75255 12.8556C9.00337 12.885 9.23751 12.9194 9.49525 12.9481C9.56592 12.7994 10.7657 12.7874 10.8754 12.6993C10.9848 12.6111 10.3103 12.6313 10.3145 12.6236C10.3592 12.5138 13.1262 12.6639 13.3257 12.6762C13.8533 12.7088 13.3908 12.8931 13.8395 12.8813C14.4878 12.8642 14.2289 12.5969 14.7483 12.8071C14.7778 12.8466 14.8219 12.9037 14.9145 12.9583C15.0045 12.7425 15.0416 12.8292 15.167 12.6628C15.1798 12.6403 15.0867 12.6169 15.0887 12.607C15.0916 12.5886 15.0933 12.573 15.0949 12.5595C15.2345 12.024 15.2152 12.5686 15.2247 12.5676C15.3997 12.5484 15.5961 11.7132 15.6664 11.5467C16.5471 9.45652 17.1823 7.92171 17.9616 5.66737C18.1298 5.17999 18.5531 3.66659 18.7332 3.20058C18.9109 2.74097 18.9393 3.02777 19.0717 2.80003C18.9386 2.33529 19.022 1.95975 19.4489 1.18308C19.4632 1.15498 19.4785 1.12723 19.4948 1.09996C19.4779 0.871338 19.5308 0.772234 19.6256 0.662469C19.7282 0.557371 19.8664 0.406002 20.2354 0.209333C20.5383 0.0502059 21.0407 -0.092062 21.5486 0.0748115C22.0605 0.22284 22.4545 0.738082 22.4589 1.14165C22.3196 0.714208 22.1326 0.56424 21.9592 0.441554C21.7761 0.33032 21.5654 0.201547 21.0971 0.156596C21.0147 0.151937 20.6985 0.11356 20.3331 0.264659C19.9653 0.403122 19.6073 0.791061 19.5073 1.20206C19.3496 1.78749 19.2429 2.28506 19.3604 2.22715C19.4865 2.16501 19.6542 1.39268 19.7007 1.26489C19.7042 1.25528 19.707 1.24934 19.7091 1.24749C19.773 1.19273 19.8071 1.22876 19.8221 1.30435C19.8468 1.45053 19.7963 1.75876 19.6776 2.02016C19.6896 1.90748 19.7082 1.77311 19.7227 1.65252C19.2759 2.55786 20.0187 2.07678 19.3204 2.64833C19.2346 2.71915 19.1865 2.66527 19.0783 2.79284C19.0934 2.83122 19.2139 2.67126 19.1746 2.82997C19.1344 2.99182 18.9191 3.25401 19.0037 3.33101C19.1261 3.4448 19.2823 2.77088 19.3067 2.7243C19.306 2.72349 19.3053 2.72268 19.3046 2.72187C19.5229 2.31064 19.2357 3.22425 19.2352 3.27218C19.2335 3.58309 19.365 3.41345 19.3019 3.86031C19.2658 4.11523 19.0413 4.72147 18.9812 4.95259C18.922 5.18237 19.1041 4.85409 19.0695 5.01041C19.0349 5.16672 18.9218 5.33858 18.8809 5.52201C18.8637 5.60059 18.941 5.62142 18.9317 5.65914C18.8325 6.06393 18.7586 5.75323 18.6517 6.11483C18.5827 6.34914 18.4769 7.17648 18.6954 6.65352C18.6268 6.91673 18.5562 7.17219 18.4847 7.43301C18.56 7.27831 18.6298 7.11586 18.7077 6.9664C18.5144 7.43812 18.5735 7.69914 18.4847 8.00531C18.3959 8.31155 18.1514 8.53253 18.1193 8.8907C18.0501 9.65505 18.5478 7.86847 18.6479 7.6591C18.6869 7.57752 18.7029 7.94468 18.69 7.99625C18.6326 8.22519 18.459 8.46169 18.4068 8.63562C18.2206 9.25846 18.2131 9.67445 18.045 10.2711C17.7845 11.1955 17.4885 12.2188 17.1873 13.2394C16.8782 14.2892 15.8283 15.0558 14.7483 15.0503C14.0226 15.0662 13.3233 15.0789 12.6867 15.0873C11.9425 15.0971 11.4948 14.9606 11.1608 14.9645C10.3795 14.9736 10.2837 15.0925 9.60223 15.0989C8.58786 15.1087 7.15884 15.0048 6.31214 14.9824C5.726 14.967 5.19534 15.0821 5.04289 15.085C4.2638 15.1001 3.42269 15.1094 2.58322 15.1151C2.75618 15.1045 2.79518 14.9039 2.68456 14.8126C2.92307 14.9857 3.15015 15.1505 3.36245 15.3045C4.0309 15.7893 4.27213 16.1245 4.4123 16.2216C5.01476 16.6394 4.92078 16.4344 5.39496 16.7928C5.65118 16.9863 5.63734 17.1075 5.66965 17.136C5.95514 17.3867 6.09758 17.3188 6.33905 17.4886C7.7277 18.4651 8.99717 19.4996 10.3491 20.4983C10.4472 20.5709 10.4023 20.6142 10.4681 20.6581C10.7513 20.8452 10.6806 20.6743 10.9715 20.877C11.4783 21.2296 11.9836 21.608 12.5015 21.9973C12.7137 22.1538 12.9046 22.3446 13.0624 22.5603C13.1545 22.695 13.1426 22.7916 13.2919 23.117C13.423 23.446 13.5932 23.7055 13.5671 24.2937C13.5518 24.5134 13.5068 24.7303 13.4353 24.9361C13.2188 25.5189 12.9641 26.0887 12.7564 26.7143C12.7163 26.8354 12.758 27.015 12.6979 27.1965C12.5095 27.7662 12.1528 28.5845 11.991 29.0724C11.4575 30.6825 11.0255 32.1874 10.5324 33.7072C10.4164 34.0642 10.2297 34.3534 10.1674 34.5385C10.027 34.9559 10.2089 34.6657 10.0713 35.0901C9.92042 35.5555 9.76874 36.0209 9.61648 36.4864C9.60558 36.4355 9.59408 36.4413 9.55733 36.4477C11.2737 35.2125 12.9964 33.9746 14.7182 32.7189C15.8882 31.8657 17.2636 30.7599 18.4099 29.9565C18.8867 29.6227 19.0398 29.6538 19.3733 29.4127C19.3981 29.3948 19.4219 29.3773 19.4448 29.3601C19.9708 28.9865 20.3794 28.8735 20.8048 28.8132C21.2262 28.7717 21.741 28.7751 22.3941 29.2049C22.4061 29.2132 22.4181 29.2216 22.43 29.2301C22.9306 29.5841 23.4119 30.1117 23.9315 30.4781C24.457 30.8486 24.7812 30.9072 25.3888 31.3275C25.8892 31.6738 26.5382 32.2256 27.0802 32.6064C28.8379 33.8412 30.5834 35.073 32.3213 36.3124C32.167 36.2041 31.952 36.3361 31.9969 36.5406C31.1085 33.8362 30.2413 31.1192 29.4012 28.3628C29.0664 27.2642 28.6947 26.1071 28.3366 24.9388C27.9881 23.8871 28.4127 22.6518 29.3105 22.041C29.7608 21.7363 30.2116 21.4389 30.6603 21.1544C30.8373 21.0422 30.6597 21.3421 31.1851 20.9244C31.4674 20.6999 31.8043 20.3079 32.4745 19.8136C34.6464 18.212 36.9482 16.6225 39.2478 15.0219C39.3425 15.0263 39.3273 14.8003 39.197 14.8113C37.9156 14.795 36.6406 14.7885 35.3811 14.8011C32.6097 14.8291 29.8012 14.9795 27.032 15.0873C25.9143 15.1232 24.82 14.3591 24.4678 13.28C23.0414 9.31397 21.8192 5.41394 21.45 1.65697C21.4179 1.32942 21.8012 1.38817 21.9543 1.54092C21.9426 1.73262 21.9142 1.91558 21.8965 2.118C22.3809 2.20825 22.2609 2.20358 22.4937 3.04581C22.6368 3.56441 22.6802 3.09893 22.8187 3.35516C22.998 3.68738 23.7402 5.27968 23.3639 5.0493C23.4446 5.13674 23.5207 5.21691 23.5995 5.30204C24.0309 6.48921 24.4781 7.6335 24.9379 8.78231C25.0174 8.98072 25.106 8.96228 25.1877 9.16735C25.4078 9.71795 25.4968 10.183 25.6939 10.76C25.8009 11.0735 25.9139 11.0851 26.0416 11.4996C26.1692 11.9139 26.0328 11.9483 26.3606 12.4636C26.3766 12.3245 26.432 12.4143 26.5063 12.6177C26.5475 12.78 26.8019 13.0454 27.032 13.0314C27.0983 13.0323 27.1585 13.0323 27.2107 13.0314C27.2994 13.03 28.0268 12.8719 28.4135 12.8901C28.8014 12.9079 29.3904 13.0089 29.9903 12.9516C30.2716 12.9246 30.4423 12.8015 30.7458 12.7945C30.9592 12.7896 31.2155 12.8991 31.4857 12.9036C31.7558 12.9082 32.3403 12.8183 32.4474 12.8168C32.8339 12.8109 32.4075 12.8878 32.6718 12.8917C33.9481 12.9092 35.4309 12.9505 36.6891 12.8987C36.8438 12.8924 36.6298 12.8017 36.6503 12.7987C37.7004 12.6874 37.1399 12.8056 37.4235 12.8868C37.6082 12.9395 38.5773 12.9375 39.197 12.8826C39.6781 12.8514 40.0576 12.9938 40.0832 12.9468C40.0959 13.0594 40.2831 13.158 40.4711 13.2875C40.6608 13.413 40.8466 13.5721 40.9075 13.6509C41.1429 13.9587 41.1513 14.1289 41.1712 14.2744C41.1825 14.4249 41.2072 14.5591 41.2497 14.9123C41.2725 15.1796 41.3773 14.65 41.3815 14.9444C41.3791 15.6005 40.9581 16.1883 40.3626 16.5564C40.3079 16.5883 40.2524 16.6229 40.1961 16.661C40.0825 16.738 40.0949 16.831 39.896 16.9721C39.6968 17.1133 38.8093 17.6332 39.2938 17.4965C38.7096 17.7484 38.6535 17.8839 38.0672 18.3051C37.9185 18.4117 37.6498 18.4424 37.3592 18.7045C37.2609 18.7932 37.3395 18.8948 37.1798 19.0121C36.8149 19.2806 36.3915 19.4241 35.9232 19.7578C35.0473 20.3817 34.1761 21.13 33.2496 21.7621C32.9977 21.9338 32.9834 21.7847 32.6235 22.0432C32.5708 22.0814 32.2046 22.4854 31.9506 22.6569C31.7978 22.7602 30.9791 23.2581 30.8196 23.3662C30.6176 23.5034 30.5865 23.6143 30.513 23.696C30.5055 23.71 30.4958 23.7206 30.479 23.7276C30.2915 23.8307 30.2005 23.6207 30.3158 23.9754C30.1496 24.0226 30.1616 24.2174 30.0203 24.3277C30.0507 24.3402 30.0744 24.3533 30.0935 24.368C30.2315 24.5264 30.1882 24.7991 30.3458 25.1093C30.5295 25.4707 30.9771 25.6705 30.6346 25.8838C30.7377 26.047 31.0613 26.7799 31.1084 26.9059C31.2468 27.2775 31.0783 27.1095 31.1847 27.3893C31.2033 27.4386 31.2567 27.3633 31.3541 27.6869C31.418 27.8992 31.9156 29.4457 31.936 29.541C32.1677 30.6295 31.6797 28.9901 31.5295 28.7873C31.5365 28.7406 31.5437 28.6943 31.5495 28.645C31.4316 28.169 31.3585 28.4856 31.3901 28.7084C31.4217 28.9313 31.6206 29.3023 31.6253 29.4945C31.6275 29.5904 31.4191 29.5983 31.3563 29.3267C31.3894 29.6284 31.2019 29.2626 31.183 29.3923C31.1624 29.5349 31.5563 30.8108 31.6637 30.7834C31.5903 30.545 31.4907 30.251 31.4171 30.0098C31.4979 29.6367 32.4315 30.3867 32.4661 31.3415C32.4917 32.0339 32.0087 31.0357 32.6474 32.4861C32.5798 32.2531 32.5335 32.0525 32.473 31.8404C32.6028 31.7736 32.5626 32.1625 32.6631 32.3236C32.7118 32.4008 32.6402 31.8505 32.8189 32.2905C32.7488 32.7416 33.0428 32.9756 33.2562 33.6245C33.1626 33.4554 33.0691 33.2859 32.9755 33.1167C33.1901 34.2606 32.3147 31.726 32.9288 33.8865C32.839 33.6317 32.7576 33.3756 32.6641 33.1205C32.6328 33.269 32.3567 33.1374 32.3485 33.2639C32.3269 33.5957 32.5387 34.0075 32.6449 34.3692C32.6915 34.5275 32.6029 34.4487 32.6069 34.462C32.6704 34.6789 32.7385 34.6043 32.8051 34.791C32.8888 35.026 33.0301 35.7374 33.0754 35.8454C33.1924 36.125 33.2018 35.5931 33.2231 35.6168C33.3237 35.7303 33.3806 35.968 33.4413 36.0713C33.4653 36.1133 33.488 36.1356 33.516 36.1218C33.5084 36.1004 33.5002 36.0782 33.4911 36.0551C33.119 35.125 32.4216 32.6656 33.3362 34.9058C33.2947 34.2038 33.588 34.3151 33.9086 35.2396C34.1593 35.9619 33.9461 35.5859 33.945 35.9077C33.9473 35.9339 33.9501 35.9634 33.9531 35.9966C33.9567 36.0303 34.0543 36.4388 33.9552 36.846C33.8709 37.2559 33.6104 37.58 33.6138 37.6328C33.5094 37.4962 33.1109 37.6791 33.1702 37.362C33.1931 37.3274 33.4331 36.9446 33.2257 37.0105C33.1267 37.0484 32.8924 37.0855 32.8409 36.9997C32.8509 37.0879 32.8496 37.1911 32.829 37.2916C32.3686 37.6072 32.2034 37.4613 31.9989 37.3111C31.984 37.3562 32.2242 37.6442 31.8233 37.4609C31.8067 37.4465 31.8072 37.3811 31.6622 37.2388C31.6595 37.236 31.6568 37.2333 31.6542 37.2305C31.2828 36.8692 31.2134 36.7878 31.6665 36.8437C30.7119 36.3074 30.6685 35.9685 29.7235 35.3718C29.7343 35.7342 30.0932 35.9072 30.9519 36.4628C30.9477 36.544 30.9248 36.6109 30.9213 36.6935C29.9125 35.7694 30.4466 36.177 29.7422 35.8364C29.5698 35.7531 28.7782 35.1331 28.9359 35.4865C28.9732 35.5698 29.4814 35.9325 29.3813 35.9484C29.3621 35.9513 28.7277 35.5333 28.6845 35.479C28.1394 34.8005 29.4471 35.5537 27.5272 34.2618C27.4742 34.2263 27.407 34.2807 27.2994 34.2169C27.0973 34.0968 27.1518 34.0168 26.9695 33.912C26.787 33.8071 26.476 33.742 26.2923 33.4598C25.9558 32.9446 27.1273 33.64 27.5478 34.0891C27.9145 34.0017 24.426 31.4594 24.1953 31.322C23.1877 30.7219 24.7962 31.8144 24.8306 31.9375C24.8444 31.9891 24.5774 32.3214 25.1377 32.387C25.3035 32.4062 24.875 31.9615 25.1951 32.1383C25.5153 32.3151 25.3253 32.332 25.3414 32.3546C25.3968 32.4319 25.7366 32.6213 25.7666 32.6651C26.2314 33.3363 25.9346 33.6246 25.4623 32.537C25.0224 32.3857 25.7209 33.1614 25.2193 32.9111C24.6096 32.607 24.3269 32.1615 24.2637 32.1048C23.5053 31.4258 24.2833 32.3415 23.3359 31.5411C22.8083 31.0956 24.2806 31.9944 22.9973 31.0849C21.923 30.3238 22.4402 30.8216 22.231 30.9468C22.1818 30.976 21.5605 30.6041 22.3687 31.1628C22.4254 31.1318 22.5131 31.1003 22.5952 31.0933C22.765 31.2695 22.9181 31.7422 23.0155 31.8256C23.4925 32.2322 23.5573 32.0917 23.7504 32.4529C23.6524 32.14 23.9297 32.4872 24.084 32.5482C24.6563 32.7759 24.0564 32.2701 25.0253 33.2158C24.938 33.039 24.8631 32.8734 24.78 32.7001C24.9118 32.792 25.0438 32.884 25.1757 32.9759C25.251 33.2801 25.9568 33.7611 25.2119 33.4711C25.9301 34.0643 26.26 34.2496 26.5172 34.2422C26.5661 34.2407 26.6862 34.3131 26.8206 34.4073C26.8215 34.3533 26.8696 34.2195 26.9003 34.2212C27.174 34.2381 27.3148 34.6547 27.1588 34.6613C27.2489 34.7326 27.3193 34.7904 27.3438 34.8112C27.4995 34.9429 27.1253 34.7795 27.241 34.9008C27.2792 34.9406 27.7541 35.262 27.7421 35.2974C27.6635 35.5231 26.9976 34.8352 28.4516 36.056C28.611 35.9144 27.8724 35.4344 28.1852 35.3882C28.521 35.3386 28.7338 35.8872 28.9926 35.7149C28.997 35.7772 28.9878 35.82 28.9838 35.8845C29.6783 36.2321 29.5438 36.4345 29.7017 36.6154C30.0079 36.9673 31.7077 38.1828 30.3134 36.9098C30.5477 37.0541 30.78 37.2109 31.0118 37.3564C30.8608 37.6421 30.8032 37.5893 31.19 37.8694C31.375 37.999 31.6761 38.1914 32.1729 38.2227C32.5622 38.2306 32.8021 38.3578 33.0523 37.9733C33.0794 38.0848 33.362 37.9638 33.5776 37.7204C33.8012 37.4833 33.9114 37.1448 33.9404 37.094C34.1181 36.7307 34.181 37.3479 33.6882 37.9111C33.2222 38.5012 32.2153 38.5865 32.0663 38.3388C31.5556 38.42 31.5762 38.2171 31.1414 37.978C31.1345 37.9735 31.1276 37.9691 31.1208 37.9647C30.6914 37.7002 30.6072 37.6848 30.202 37.2073C29.5881 37.0221 32.0654 38.6759 30.4412 37.8419C29.236 37.223 24.1961 33.7338 20.8542 31.3989C20.8711 31.4248 20.9101 31.4355 20.9424 31.4215C20.3832 31.8426 19.9276 32.1849 19.6255 32.4124C16.1515 35.0284 14.2958 36.4373 11.1837 38.6863C11.046 38.786 10.8968 38.8759 10.733 38.9533C10.5506 39.0407 9.98038 39.2859 9.2559 39.1928C8.53753 39.1128 7.77892 38.6737 7.34945 38.029C6.89893 37.3895 6.85102 36.5989 6.93967 36.2006C7.02842 35.7922 7.12409 35.6913 7.11089 35.9942C7.0941 36.0735 7.06853 36.7772 7.25166 37.1292C7.32927 37.3057 7.40678 37.3953 7.41561 37.3246C7.4336 37.2544 7.35063 37.0178 7.38127 36.5258C7.28843 36.8916 7.19911 36.0105 7.31054 35.7372C7.31431 35.7145 7.31696 35.6983 7.31764 35.6914C7.44395 34.4284 7.15918 35.0907 7.75987 33.2329ZM11.617 28.4002C10.7766 30.8065 11.5102 29.0764 11.6967 29.6936C11.7988 29.3829 11.9004 29.0733 12.0025 28.7626C11.954 28.8372 11.9059 28.9107 11.8574 28.9853C11.8573 28.9857 11.8571 28.986 11.857 28.9864C11.7769 28.7913 11.6971 28.5952 11.617 28.4002ZM19.054 6.30905C19.0694 6.41858 19.0852 6.52704 19.097 6.64414C18.9787 6.95969 18.861 7.27411 18.7426 7.58966C18.7238 7.54128 18.7041 7.49408 18.6852 7.44571C18.8096 7.06735 18.9338 6.69021 19.054 6.30905ZM27.8675 34.2555C28.1739 34.6446 28.2804 34.4249 28.7284 34.8857C28.7699 34.6966 28.8022 34.5055 28.8393 34.3154C28.4339 34.0533 28.3056 34.0435 27.9075 33.7006C27.9233 33.7826 27.94 33.8657 27.9545 33.9471C28.0322 33.9884 28.1155 34.0317 28.1901 34.0726C28.205 34.2806 27.5141 33.8081 27.8659 34.2548C27.8664 34.255 27.8669 34.2553 27.8675 34.2555ZM31.8382 37.0507C31.8932 37.1029 32.0447 37.2099 32.2214 37.2166C32.3979 37.2303 32.5691 37.1401 32.5812 37.087C32.621 36.9136 32.3376 37.0811 32.1754 37.0317C32.0946 37.0179 32.0419 36.9861 32.0618 36.9722C32.0802 36.9529 32.1759 36.97 32.3279 36.864C32.3134 36.832 32.3052 36.7986 32.2936 36.766C32.1922 36.783 32.1444 36.7672 32.0556 36.6999C31.9841 36.818 31.9033 36.9277 31.8382 37.0507ZM9.07539 36.6842C9.08264 36.7637 9.30421 36.9709 9.48837 36.9456C9.66721 36.9268 9.6939 36.8138 9.61706 36.7581C9.59696 36.7369 9.56421 36.7921 9.46905 36.8126C9.37726 36.8365 9.24569 36.7993 9.21413 36.7475C9.17719 36.6832 9.31371 36.6784 9.2253 36.6002C9.17622 36.6245 9.12124 36.6503 9.07591 36.6845C9.07574 36.6844 9.07557 36.6843 9.07539 36.6842ZM8.3366 36.2493C8.27496 36.6578 8.45011 37.0753 8.75025 37.3237C8.61718 37.0534 8.42067 36.5774 8.63738 36.5384C8.65713 36.6201 8.68782 36.6953 8.72797 36.7644C8.70694 36.8356 8.69475 36.9126 8.69343 36.994C8.95508 37.1498 8.84057 37.0297 9.22989 37.2956C9.16243 37.0992 9.18642 36.9688 9.14339 36.87C9.11178 36.7572 8.97763 36.736 8.84302 36.407C8.96575 36.5094 9.31355 36.468 9.30132 36.384C9.32052 36.291 9.31807 36.1709 9.2822 36.0197C9.25619 35.9082 9.11412 36.2074 9.0623 36.3063C9.05569 36.3153 9.05133 36.3207 9.04949 36.3206C8.9901 36.3193 8.94626 36.2937 8.90902 36.2565C8.86219 36.1849 8.82546 36.0956 8.73743 36.1166C8.7185 36.121 8.69777 36.1463 8.67571 36.1807C8.62321 36.249 8.58747 36.3726 8.52735 36.3948C8.47918 36.4162 8.41389 36.1346 8.3366 36.2493ZM9.24929 35.6914C9.29054 35.8373 9.61403 35.4894 9.69107 35.121C9.81144 34.5467 9.34608 35.3629 9.24929 35.6914ZM19.0545 6.30688C19.0543 6.3076 19.0542 6.30832 19.054 6.30905C19.0539 6.30864 19.0539 6.30823 19.0538 6.30782C19.054 6.30751 19.0543 6.30719 19.0545 6.30688ZM30.8491 36.2129C31.1356 36.3324 31.4912 36.6037 31.5315 36.4921C31.6372 36.5965 31.7444 36.7016 31.85 36.8061C31.869 36.7776 31.887 36.7481 31.9058 36.7199C31.5608 36.4428 31.2168 36.1665 30.872 35.8891C30.863 35.9959 30.8503 36.1005 30.8491 36.2129ZM32.7107 35.8765C32.55 35.3446 32.5464 35.8355 32.4375 35.7427C32.3286 35.6498 32.2336 35.1603 32.1494 35.2488C32.2465 35.5611 32.3479 35.8869 32.4466 36.203C32.5307 36.0839 32.6251 35.9891 32.7104 35.8755C32.7105 35.8758 32.7106 35.8762 32.7107 35.8765ZM8.15094 19.5304C8.43607 19.7791 8.2421 19.7845 8.92555 20.1098C8.9251 20.1094 8.92465 20.1091 8.9242 20.1088C8.40834 19.6142 7.72166 19.0085 7.03434 18.625C7.34765 19.007 7.70203 19.1394 8.15094 19.5304ZM27.0064 33.1983C26.8225 33.1806 27.3761 33.6796 27.5596 33.7052C27.8565 33.7466 27.2863 33.2256 27.0064 33.1983ZM7.45558 13.6902C8.02891 13.4016 6.94257 13.0775 5.805 13.2175C5.70661 13.2297 6.44103 13.3215 6.22346 13.3779C6.20147 13.3834 5.79831 13.3765 5.69858 13.4167C5.5988 13.4569 5.70357 13.5503 5.54006 13.5895C5.25313 13.658 4.60472 13.5311 4.38997 13.621C4.36169 13.6331 4.7638 13.758 4.78904 13.7627C5.20195 13.8383 5.59985 13.675 5.66366 13.6739C5.99208 13.6683 5.94244 13.7964 6.02559 13.8265C6.1822 13.8831 6.45792 13.8265 6.47731 13.8307C6.97573 13.943 5.83686 13.9108 5.68306 13.957C5.26879 14.0816 5.65234 14.1974 4.65879 14.2678C4.56446 14.2744 3.43508 14.2669 4.85832 14.4102C2.06373 14.709 6.26251 14.5802 6.71841 14.5144C6.92858 14.4839 6.61037 14.3619 6.73781 14.3069C7.02883 14.1813 7.52486 14.1592 7.48052 13.9821C7.38485 13.6098 6.73339 13.8538 6.28443 13.7911C6.33154 13.7103 6.34955 13.6315 6.43685 13.5524C6.30243 13.6587 7.41401 13.712 7.45558 13.691C7.45558 13.6907 7.45558 13.6905 7.45558 13.6902ZM1.75689 15.1095C1.76368 15.4958 1.95585 15.4283 2.10601 15.6089C2.15005 15.6488 2.19785 15.6978 2.25103 15.7593C2.57445 15.8364 2.40256 15.6556 2.19713 15.4835C2.12081 15.4146 2.06479 15.3419 2.05541 15.3203C1.96802 15.0542 2.21626 15.0475 2.16581 14.8589C2.01833 14.896 1.87154 14.9722 1.75689 15.1095ZM5.84102 14.2125C5.42119 14.3314 6.17247 14.3294 6.20295 14.3522C6.53471 14.5935 4.2851 14.5466 5.84102 14.2125ZM10.3307 37.1742C10.508 37.0554 10.3315 37.0428 10.4639 36.905C10.5964 36.7668 11.1748 36.4671 11.1201 36.4192C11.0649 36.3715 10.0017 36.9162 10.9367 36.1876C10.8808 36.1789 10.8743 36.1469 10.8374 36.1291C10.5733 36.3197 10.3065 36.5114 10.0424 36.702C10.2544 36.6898 10.4736 36.6798 10.6778 36.6685C10.5835 36.85 10.4315 36.8156 10.4236 36.8213C10.4237 36.8214 10.4238 36.8215 10.4239 36.8216C10.2682 36.9412 10.1289 37.1286 10.1148 37.215C10.1138 37.2417 10.1232 37.2597 10.1486 37.2615C10.1818 37.2605 10.2403 37.2349 10.3307 37.1742ZM12.3646 22.931C12.2266 22.9917 12.3362 23.0917 12.4792 23.2415C12.6249 23.388 12.7948 23.6145 12.8392 23.7699C12.9469 24.0838 12.767 24.5118 12.9118 24.3619C12.9921 24.1052 12.9303 23.6774 12.7612 23.3845C12.5988 23.0852 12.3773 22.9244 12.3643 22.9312C12.3644 22.9312 12.3645 22.9311 12.3646 22.931ZM4.08011 17.073C4.54649 17.3263 4.52249 17.2172 4.99353 17.664C5.01388 17.5936 5.03511 17.5219 5.05483 17.4523C4.642 17.1507 4.55344 17.3337 4.12212 16.9209C4.05148 16.8531 4.31344 16.8459 3.92914 16.6302C3.98205 16.7741 4.03079 16.9265 4.08011 17.073ZM6.3401 18.399C5.84514 18.0524 5.12957 18.2221 6.17768 18.6726C6.3332 18.7391 6.71243 18.6596 6.3401 18.399ZM9.28693 34.0456C8.95404 35.0181 9.40046 33.9354 9.56467 33.7075C8.89054 36.0041 9.62583 33.4433 9.97076 33.3044C9.98389 33.0013 9.97637 32.4235 9.74125 32.9862C9.64325 33.221 9.75261 33.1592 9.74756 33.1736C9.58329 33.6112 9.46868 33.5145 9.28693 34.0456ZM1.92552 14.4084C1.91351 14.4311 2.00999 14.4609 1.98363 14.5312C1.95593 14.5952 1.83176 14.733 1.88758 14.7673C1.93271 14.7852 2.09085 14.5388 2.13679 14.463C2.17466 14.3782 2.06588 14.1996 1.92552 14.4084ZM3.48158 16.9491C3.93772 17.1949 3.46697 16.4143 3.37564 16.35C2.57099 15.7883 3.57115 16.8754 3.48158 16.9491ZM9.45134 31.5895C9.23991 32.8234 9.8178 32.0583 10.236 31.3782C10.2314 31.269 10.2276 31.1572 10.2229 31.0494C10.2994 31.5638 10.265 32.4106 10.6339 30.6217C10.275 31.5498 10.4729 30.7393 10.4625 30.7292C10.0916 30.4936 9.82472 31.9545 9.45168 31.5885C9.45156 31.5888 9.45145 31.5892 9.45134 31.5895ZM3.14178 14.2033C3.681 14.2019 5.08276 14.1284 4.42877 13.9429C3.99927 14.0297 3.57128 14.1165 3.14178 14.2033ZM20.5855 30.4998C20.879 30.5007 21.1142 30.5342 21.3624 30.6996C21.4078 30.732 21.4545 30.765 21.5026 30.799C21.4556 30.7355 21.4222 30.6859 21.4001 30.6477C21.3538 30.5409 21.3944 30.5315 21.4669 30.5556C21.5166 30.5763 21.5756 30.6071 21.6237 30.6276C21.7683 30.6896 21.6387 30.5809 21.5179 30.4854C21.4535 30.4331 21.3844 30.3962 21.3858 30.3924C21.4227 30.3279 21.5256 30.3384 21.5284 30.3132C21.5284 30.2999 21.4418 30.17 21.0056 30.1112C21.2251 30.0801 21.4644 30.1078 21.6922 30.2057C21.0523 29.8304 20.823 29.8077 20.2766 29.8543C20.7337 29.947 20.3752 29.9365 20.0537 30.1982C19.975 30.2659 19.8937 30.3444 19.8237 30.4343C19.7222 30.5646 20.0052 30.5534 20.2767 30.5052C20.4087 30.4909 20.5262 30.5001 20.5866 30.4994C20.5862 30.4995 20.5859 30.4997 20.5855 30.4998ZM9.00118 32.7895C9.01071 32.9266 9.04083 33.0591 9.05864 33.1945C9.02242 33.3241 8.98548 33.4537 8.94927 33.5833C8.90089 33.585 8.85135 33.5835 8.80377 33.5884C8.73645 33.7528 8.818 33.7067 8.80739 33.7586C8.80716 33.7585 8.80693 33.7585 8.80669 33.7584C8.65324 34.5023 8.54873 34.7934 8.23223 35.3125C8.36475 35.3556 8.49727 35.3986 8.6298 35.4417C8.65824 35.3112 8.68742 35.1794 8.71619 35.049C8.66682 34.9587 8.61749 34.868 8.56812 34.7777C8.65492 34.6441 8.74102 34.5119 8.82782 34.3784C8.8403 34.2528 8.85912 34.1032 8.86714 33.9937C9.42723 33.5302 8.7445 34.7753 8.89441 34.8371C8.99069 34.8771 9.42054 33.5394 9.41483 33.3248C9.41384 33.2939 9.04419 33.4931 9.34672 33.0509C9.39419 32.9819 9.99966 33.1489 9.68775 32.4647C9.64361 32.3674 9.18767 32.5092 9.00118 32.7895ZM8.71695 38.1543C8.3433 37.6662 8.93132 38.1967 9.60009 38.1857C9.92909 38.193 10.2267 38.0786 10.3203 38.0155C10.4145 37.942 10.3355 37.9916 9.92455 38.0193C10.3031 37.7011 10.1596 37.7713 9.77939 37.6961C9.74984 37.691 9.96802 37.5837 9.94328 37.58C9.62482 37.6104 9.27098 37.5567 9.31982 37.3972C9.25033 37.3859 9.18491 37.3676 9.11706 37.3411C9.34676 37.6139 8.81155 37.5203 8.54226 37.3748C8.41742 37.3239 8.59236 37.5428 8.485 37.5032C8.43172 37.495 8.2319 37.1368 8.18754 37.1381C8.06775 37.1451 7.99388 37.5196 8.36381 37.9534C8.36374 37.9535 8.36366 37.9536 8.36358 37.9537C8.47533 38.0343 8.59226 38.0993 8.71695 38.1543ZM10.4058 22.5561C10.4275 22.2976 10.0289 21.9295 10.9301 22.4502C10.9144 22.3848 10.8972 22.3187 10.8814 22.2532C10.7379 22.1537 10.5989 22.0574 10.4534 21.956C9.63866 22.1721 9.2865 21.0044 9.51728 21.7451C9.5426 21.8258 9.91067 22.0236 9.49952 21.894C9.49989 21.8945 9.50027 21.8949 9.50065 21.8953C9.98709 22.1968 10.0915 22.1755 10.4058 22.5561ZM11.7327 25.3077C11.7572 26.2293 12.1022 25.2156 12.2535 24.5521C12.3381 24.171 12.2173 23.9252 12.1951 24.1072C12.1908 24.1228 12.2096 24.3043 12.1445 24.5167C12.0277 24.9032 11.8511 25.4159 11.7327 25.3077ZM4.80264 18.7962C5.27536 19.1496 5.45507 18.9688 5.46023 18.8604C5.4655 18.7518 5.08083 18.5859 5.04659 18.5434C4.93534 18.4041 5.24853 18.5931 5.10609 18.4096C5.05868 18.3492 4.27979 17.6723 4.23531 17.6534C3.98831 17.5484 4.17548 17.9413 4.10097 17.9165C3.85784 17.8363 3.6535 17.5542 3.53133 17.602C3.26946 17.7032 3.91439 17.8658 4.0011 17.9239C4.26217 18.0997 4.16192 18.1909 4.33687 18.3509C4.51171 18.5108 4.6629 18.5644 4.8254 18.6941C4.87946 18.7373 4.77892 18.7779 4.80264 18.7962ZM6.69413 19.5129C6.08335 19.3048 7.17572 20.3548 7.346 20.4233C7.84774 20.6239 6.98641 19.6128 6.69413 19.5129ZM8.41951 35.885C8.4407 35.5982 8.32565 35.7516 8.19647 36.025C8.02635 36.3416 8.08557 36.8964 8.22495 37.0797C8.23216 37.0413 8.19642 36.8624 8.21163 36.657C8.22293 36.4499 8.29285 36.2298 8.35914 36.0779C8.39365 35.9961 8.41637 35.9277 8.41951 35.885ZM9.55822 31.2629C9.439 31.7691 9.94755 31.2117 10.0765 30.799C9.96019 30.4947 9.92506 30.7341 9.82973 31.0003C9.73442 31.2662 9.65128 30.868 9.55822 31.2629ZM1.6319 13.6865C1.56115 13.7104 1.15127 14.194 1.13659 14.6063C1.11428 14.8052 1.1468 14.9582 1.17241 14.9852C1.20342 15.0137 1.20159 14.917 1.27595 14.65C1.28527 14.6121 1.36927 14.2483 1.6296 13.9822C1.87857 13.7035 2.26015 13.6007 2.30661 13.5801C2.52453 13.4822 1.93825 13.4371 1.6319 13.6865ZM10.0389 28.8053C10.1225 29.121 10.0368 29.3769 10.3124 29.2013C10.3125 29.201 10.3126 29.2006 10.3128 29.2003C10.1588 29.8802 9.74484 29.778 9.70725 29.9232C9.57584 30.4309 10.017 30.0527 10.01 30.3957C10.1571 29.6407 10.2835 29.912 10.4752 29.3638C10.5182 29.2408 10.5633 28.7074 10.5147 28.6114C10.4659 28.5156 10.1671 28.6984 10.0389 28.8053ZM4.32069 13.3303C3.71241 13.2624 3.15548 13.5493 3.99922 13.5948C4.41079 13.6172 4.69207 13.3715 4.32069 13.3303ZM32.4249 38.1571C32.2896 38.0998 32.1645 38.0267 32.0552 37.9404C32.3211 37.9499 32.5818 37.8807 32.8015 37.7557C32.6315 37.8626 32.4332 37.9367 32.22 37.9631C32.4713 37.9725 32.6603 37.945 32.7261 37.9684C32.79 37.9851 32.7357 38.0825 32.4264 38.1569C32.4259 38.157 32.4254 38.157 32.4249 38.1571ZM30.0866 23.9894C30.1622 23.9071 30.0852 23.6033 30.0635 23.6107C29.9329 23.6829 29.8919 23.8472 29.922 23.9392C29.951 24.0348 30.0251 24.0583 30.0866 23.9894ZM7.6418 36.8401C7.75907 37.3959 7.93312 37.3999 7.94219 37.2512C7.96395 37.0967 7.95157 36.7781 7.9675 36.5033C7.92151 36.8691 7.59154 36.2238 7.6418 36.8401ZM31.5295 28.7873C31.5191 28.8568 31.5089 28.9268 31.5008 29.0035C31.4738 28.7792 31.4898 28.7337 31.5295 28.7873ZM1.12238 13.7325C1.05878 13.7833 0.838003 14.0556 0.737132 14.3839C0.625926 14.7087 0.64503 15.0633 0.672646 15.1416C0.731609 15.3072 0.764255 15.1406 0.822217 14.9032C0.87816 14.6618 0.994692 14.3611 1.08744 14.1338C1.08911 14.0846 1.23765 13.6302 1.12078 13.7344C1.12132 13.7338 1.12185 13.7331 1.12238 13.7325ZM33.6198 37.641C33.616 37.6401 33.6141 37.6373 33.6138 37.6328C33.6155 37.6358 33.6183 37.6377 33.6198 37.641ZM40.08 12.9272C40.0848 12.9354 40.0862 12.9422 40.0832 12.9468C40.0827 12.9407 40.0794 12.9333 40.08 12.9272ZM4.1315 18.8081C4.14024 19.2439 4.7399 19.4512 4.453 19.0303C4.4366 19.0072 4.18275 18.8461 4.1315 18.8081Z" fill="var(--stroke-0, #B63F7B)"/>
</g>
</svg>
