<svg preserveAspectRatio="none" width="100%" height="100%" overflow="visible" style="display: block;" viewBox="0 0 239 36.7166" fill="none" xmlns="http://www.w3.org/2000/svg">
<g id="Group 1">
<g id="Coral Keepers">
<path id="Vector" d="M239 22.5446C239 23.3406 238.885 24.0476 238.654 24.6656C238.424 25.2835 238.11 25.8229 237.712 26.2838C237.314 26.7342 236.842 27.1165 236.298 27.4307C235.753 27.7344 235.167 27.9806 234.538 28.1691C233.92 28.3576 233.271 28.4938 232.59 28.5776C231.909 28.6614 231.234 28.7033 230.563 28.7033C229.663 28.7033 228.867 28.6456 228.175 28.5304C227.484 28.4152 226.824 28.2319 226.196 27.9806C225.567 27.7187 224.939 27.3835 224.31 26.9751C223.692 26.5666 223.001 26.0691 222.237 25.4825L225.332 22.9531C225.614 23.4873 225.986 23.9743 226.447 24.4142C226.918 24.8436 227.405 25.2155 227.908 25.5297C228.411 25.8439 228.898 26.0848 229.369 26.2524C229.841 26.42 230.223 26.5037 230.516 26.5037C230.757 26.5037 231.029 26.4985 231.333 26.488C231.637 26.4671 231.946 26.4357 232.26 26.3938C232.574 26.3414 232.883 26.2681 233.187 26.1738C233.491 26.0796 233.758 25.9539 233.988 25.7968C234.229 25.6292 234.418 25.4249 234.554 25.184C234.7 24.9327 234.774 24.6342 234.774 24.2885C234.774 23.9324 234.68 23.6234 234.491 23.3616C234.313 23.0893 234.077 22.8536 233.784 22.6546C233.491 22.4556 233.156 22.288 232.779 22.1519C232.401 22.0157 232.019 21.8952 231.632 21.7905C231.255 21.6858 230.888 21.5967 230.532 21.5234C230.176 21.4396 229.867 21.3611 229.605 21.2878C229.123 21.1516 228.615 21.0154 228.081 20.8793C227.547 20.7327 227.018 20.5703 226.494 20.3923C225.971 20.2037 225.468 19.9838 224.986 19.7324C224.515 19.481 224.096 19.1825 223.729 18.8369C223.373 18.4808 223.085 18.0671 222.865 17.5957C222.656 17.1139 222.551 16.5536 222.551 15.9147C222.551 14.7416 222.781 13.7623 223.242 12.9768C223.713 12.1807 224.331 11.5471 225.096 11.0758C225.861 10.594 226.73 10.2536 227.704 10.0546C228.678 9.85555 229.668 9.75605 230.673 9.75605C231.365 9.75605 232.092 9.82937 232.857 9.976C233.622 10.1122 234.365 10.3216 235.088 10.6044C235.811 10.8768 236.486 11.2119 237.115 11.6099C237.743 12.0079 238.267 12.4635 238.686 12.9768L235.591 15.5219C235.36 14.8935 235.057 14.3541 234.68 13.9037C234.313 13.4533 233.91 13.0867 233.47 12.8039C233.04 12.5107 232.595 12.296 232.134 12.1598C231.684 12.0236 231.265 11.9556 230.878 11.9556C230.5 11.9556 230.076 11.9713 229.605 12.0027C229.134 12.0341 228.688 12.1231 228.27 12.2698C227.861 12.4164 227.51 12.6416 227.217 12.9453C226.934 13.2386 226.793 13.6471 226.793 14.1708C226.793 14.5478 226.877 14.8725 227.044 15.1449C227.222 15.4067 227.453 15.6371 227.735 15.8361C228.018 16.0247 228.338 16.187 228.694 16.3232C229.06 16.4488 229.432 16.5641 229.809 16.6688C230.186 16.7631 230.553 16.8469 230.909 16.9202C231.265 16.9935 231.585 17.072 231.867 17.1558C232.349 17.292 232.857 17.4334 233.391 17.58C233.936 17.7162 234.47 17.8785 234.994 18.0671C235.517 18.2451 236.02 18.4598 236.502 18.7112C236.994 18.9521 237.424 19.2506 237.79 19.6067C238.157 19.9628 238.45 20.3818 238.67 20.8636C238.89 21.3349 239 21.8952 239 22.5446Z" fill="var(--fill-0, #003C78)"/>
<path id="Vector_2" d="M190.61 19.7324C191.259 19.879 191.908 19.9942 192.558 20.078C193.207 20.1618 193.862 20.2037 194.521 20.2037C195.213 20.2037 195.852 20.1409 196.438 20.0152C197.035 19.879 197.548 19.6591 197.978 19.3553C198.418 19.0411 198.763 18.6274 199.015 18.1142C199.266 17.601 199.392 16.9621 199.392 16.1975C199.392 15.5795 199.308 15.0139 199.14 14.5007C198.973 13.9875 198.721 13.5476 198.386 13.181C198.062 12.8144 197.658 12.5316 197.177 12.3326C196.695 12.1231 196.134 12.0184 195.496 12.0184C194.899 12.0184 194.359 12.1284 193.877 12.3483C193.406 12.5683 192.987 12.8668 192.62 13.2438C192.264 13.6104 191.955 14.0399 191.694 14.5321C191.442 15.0244 191.233 15.5376 191.065 16.0718C190.898 16.606 190.777 17.1454 190.704 17.69C190.63 18.2346 190.594 18.7479 190.594 19.2297C190.594 19.3134 190.594 19.3972 190.594 19.481C190.594 19.5648 190.599 19.6486 190.61 19.7324ZM203.697 16.1503C203.697 16.894 203.576 17.5591 203.335 18.1456C203.094 18.7217 202.764 19.2297 202.345 19.6696C201.937 20.1095 201.46 20.4813 200.916 20.785C200.371 21.0888 199.79 21.3401 199.172 21.5391C198.554 21.7277 197.915 21.8638 197.255 21.9476C196.606 22.0314 195.972 22.0733 195.354 22.0733C194.569 22.0733 193.794 22.0209 193.029 21.9162C192.264 21.801 191.51 21.6229 190.767 21.382C190.882 22.0733 191.065 22.7332 191.316 23.3616C191.568 23.9795 191.903 24.5242 192.322 24.9955C192.741 25.4564 193.254 25.8229 193.862 26.0953C194.48 26.3676 195.208 26.5037 196.045 26.5037C196.601 26.5037 197.129 26.42 197.632 26.2524C198.135 26.0848 198.596 25.8491 199.015 25.5454C199.434 25.2416 199.8 24.8803 200.115 24.4613C200.439 24.0424 200.701 23.5763 200.9 23.0631L203.194 23.9115C202.848 24.7389 202.372 25.4564 201.764 26.0638C201.167 26.6609 200.486 27.1584 199.722 27.5564C198.968 27.9439 198.161 28.2319 197.302 28.4205C196.454 28.609 195.611 28.7033 194.773 28.7033C193.39 28.7033 192.112 28.4728 190.939 28.012C189.766 27.5407 188.756 26.886 187.907 26.0481C187.059 25.2102 186.394 24.21 185.912 23.0474C185.43 21.8848 185.189 20.6122 185.189 19.2297C185.189 17.8471 185.43 16.5745 185.912 15.4119C186.394 14.2493 187.059 13.2491 187.907 12.4112C188.756 11.5733 189.766 10.9239 190.939 10.463C192.112 9.99172 193.39 9.75605 194.773 9.75605C195.443 9.75605 196.129 9.80319 196.831 9.89745C197.533 9.99171 198.214 10.1436 198.873 10.3531C199.533 10.5521 200.156 10.8139 200.743 11.1386C201.329 11.4633 201.837 11.8665 202.267 12.3483C202.707 12.8197 203.052 13.3695 203.304 13.998C203.566 14.6264 203.697 15.3439 203.697 16.1503Z" fill="var(--fill-0, #003C78)"/>
<path id="Vector_3" d="M148.409 19.7324C149.058 19.879 149.708 19.9942 150.357 20.078C151.007 20.1618 151.661 20.2037 152.321 20.2037C153.012 20.2037 153.651 20.1409 154.238 20.0152C154.835 19.879 155.348 19.6591 155.777 19.3553C156.217 19.0411 156.563 18.6274 156.814 18.1142C157.066 17.601 157.191 16.9621 157.191 16.1975C157.191 15.5795 157.108 15.0139 156.94 14.5007C156.772 13.9875 156.521 13.5476 156.186 13.181C155.861 12.8144 155.458 12.5316 154.976 12.3326C154.494 12.1231 153.934 12.0184 153.295 12.0184C152.698 12.0184 152.159 12.1284 151.677 12.3483C151.206 12.5683 150.787 12.8668 150.42 13.2438C150.064 13.6104 149.755 14.0399 149.493 14.5321C149.242 15.0244 149.032 15.5376 148.865 16.0718C148.697 16.606 148.577 17.1454 148.503 17.69C148.43 18.2346 148.393 18.7479 148.393 19.2297C148.393 19.3134 148.393 19.3972 148.393 19.481C148.393 19.5648 148.399 19.6486 148.409 19.7324ZM161.496 16.1503C161.496 16.894 161.376 17.5591 161.135 18.1456C160.894 18.7217 160.564 19.2297 160.145 19.6696C159.737 20.1095 159.26 20.4813 158.715 20.785C158.171 21.0888 157.589 21.3401 156.971 21.5391C156.353 21.7277 155.715 21.8638 155.055 21.9476C154.405 22.0314 153.772 22.0733 153.154 22.0733C152.368 22.0733 151.593 22.0209 150.829 21.9162C150.064 21.801 149.31 21.6229 148.566 21.382C148.681 22.0733 148.865 22.7332 149.116 23.3616C149.367 23.9795 149.703 24.5242 150.122 24.9955C150.54 25.4564 151.054 25.8229 151.661 26.0953C152.279 26.3676 153.007 26.5037 153.845 26.5037C154.4 26.5037 154.929 26.42 155.432 26.2524C155.935 26.0848 156.395 25.8491 156.814 25.5454C157.233 25.2416 157.6 24.8803 157.914 24.4613C158.239 24.0424 158.501 23.5763 158.7 23.0631L160.993 23.9115C160.648 24.7389 160.171 25.4564 159.564 26.0638C158.967 26.6609 158.286 27.1584 157.521 27.5564C156.767 27.9439 155.961 28.2319 155.102 28.4205C154.253 28.609 153.41 28.7033 152.572 28.7033C151.19 28.7033 149.912 28.4728 148.739 28.012C147.566 27.5407 146.555 26.886 145.707 26.0481C144.858 25.2102 144.193 24.21 143.712 23.0474C143.23 21.8848 142.989 20.6122 142.989 19.2297C142.989 17.8471 143.23 16.5745 143.712 15.4119C144.193 14.2493 144.858 13.2491 145.707 12.4112C146.555 11.5733 147.566 10.9239 148.739 10.463C149.912 9.99172 151.19 9.75605 152.572 9.75605C153.243 9.75605 153.929 9.80319 154.631 9.89745C155.332 9.99171 156.013 10.1436 156.673 10.3531C157.333 10.5521 157.956 10.8139 158.543 11.1386C159.129 11.4633 159.637 11.8665 160.066 12.3483C160.506 12.8197 160.852 13.3695 161.103 13.998C161.365 14.6264 161.496 15.3439 161.496 16.1503Z" fill="var(--fill-0, #003C78)"/>
<path id="Vector_4" d="M128.283 19.7324C128.932 19.879 129.582 19.9942 130.231 20.078C130.88 20.1618 131.535 20.2037 132.195 20.2037C132.886 20.2037 133.525 20.1409 134.112 20.0152C134.709 19.879 135.222 19.6591 135.651 19.3553C136.091 19.0411 136.437 18.6274 136.688 18.1142C136.94 17.601 137.065 16.9621 137.065 16.1975C137.065 15.5795 136.981 15.0139 136.814 14.5007C136.646 13.9875 136.395 13.5476 136.06 13.181C135.735 12.8144 135.332 12.5316 134.85 12.3326C134.368 12.1231 133.808 12.0184 133.169 12.0184C132.572 12.0184 132.033 12.1284 131.551 12.3483C131.079 12.5683 130.66 12.8668 130.294 13.2438C129.938 13.6104 129.629 14.0399 129.367 14.5321C129.116 15.0244 128.906 15.5376 128.738 16.0718C128.571 16.606 128.45 17.1454 128.377 17.69C128.304 18.2346 128.267 18.7479 128.267 19.2297C128.267 19.3134 128.267 19.3972 128.267 19.481C128.267 19.5648 128.272 19.6486 128.283 19.7324ZM141.37 16.1503C141.37 16.894 141.25 17.5591 141.009 18.1456C140.768 18.7217 140.438 19.2297 140.019 19.6696C139.61 20.1095 139.134 20.4813 138.589 20.785C138.045 21.0888 137.463 21.3401 136.845 21.5391C136.227 21.7277 135.588 21.8638 134.929 21.9476C134.279 22.0314 133.645 22.0733 133.028 22.0733C132.242 22.0733 131.467 22.0209 130.702 21.9162C129.938 21.801 129.184 21.6229 128.44 21.382C128.555 22.0733 128.738 22.7332 128.99 23.3616C129.241 23.9795 129.576 24.5242 129.995 24.9955C130.414 25.4564 130.928 25.8229 131.535 26.0953C132.153 26.3676 132.881 26.5037 133.719 26.5037C134.274 26.5037 134.803 26.42 135.306 26.2524C135.808 26.0848 136.269 25.8491 136.688 25.5454C137.107 25.2416 137.474 24.8803 137.788 24.4613C138.113 24.0424 138.374 23.5763 138.573 23.0631L140.867 23.9115C140.522 24.7389 140.045 25.4564 139.438 26.0638C138.841 26.6609 138.16 27.1584 137.395 27.5564C136.641 27.9439 135.835 28.2319 134.976 28.4205C134.127 28.609 133.284 28.7033 132.446 28.7033C131.064 28.7033 129.786 28.4728 128.613 28.012C127.44 27.5407 126.429 26.886 125.581 26.0481C124.732 25.2102 124.067 24.21 123.585 23.0474C123.104 21.8848 122.863 20.6122 122.863 19.2297C122.863 17.8471 123.104 16.5745 123.585 15.4119C124.067 14.2493 124.732 13.2491 125.581 12.4112C126.429 11.5733 127.44 10.9239 128.613 10.463C129.786 9.99172 131.064 9.75605 132.446 9.75605C133.117 9.75605 133.803 9.80319 134.504 9.89745C135.206 9.99171 135.887 10.1436 136.547 10.3531C137.207 10.5521 137.83 10.8139 138.416 11.1386C139.003 11.4633 139.511 11.8665 139.94 12.3483C140.38 12.8197 140.726 13.3695 140.977 13.998C141.239 14.6264 141.37 15.3439 141.37 16.1503Z" fill="var(--fill-0, #003C78)"/>
<path id="Union" d="M126.869 0C129.019 0.00046998 127.282 3.23174 125.664 3.95703C123.17 5.07541 121.099 8.99557 121.966 8.42969C126.18 5.67729 126.524 8.17135 124.374 8.77344C119.982 10.0031 116.702 13.7003 114.996 15.9922L123.742 28.3418H117.238L110.434 18.7275C110.236 18.8636 110.037 18.9945 109.838 19.1201C109.649 19.2457 109.45 19.3714 109.241 19.4971V28.3418H103.004V5.71875H109.241V16.4961C111.168 15.0194 112.964 13.3805 114.63 11.5791C116.062 10.0391 117.321 8.38293 118.409 6.61328C118.419 6.58795 118.429 6.56254 118.439 6.53711C118.955 5.64821 120.004 3.5265 120.073 2.15039C120.159 0.430458 122.31 0.172514 121.708 2.23633C121.106 4.30048 121.707 4.64482 122.223 4.12891C122.74 3.61283 124.977 -8.15153e-07 126.869 0ZM114.708 15.585L114.709 15.5869C114.71 15.5846 114.711 15.5823 114.712 15.5801C114.71 15.5813 114.709 15.5837 114.708 15.585Z" fill="var(--fill-0, #003C78)"/>
<path id="Vector_5" d="M81.2895 28.3419H75.9792V26.1738C75.3508 27.0327 74.5914 27.6716 73.7012 28.0905C72.8213 28.499 71.8525 28.7033 70.7947 28.7033C69.4121 28.7033 68.1762 28.4571 67.0869 27.9648C65.9976 27.4726 65.0759 26.8023 64.3218 25.9539C63.5677 25.095 62.9916 24.0895 62.5936 22.9374C62.1956 21.7853 61.9966 20.5494 61.9966 19.2297C61.9966 17.9099 62.1956 16.674 62.5936 15.5219C62.9916 14.3698 63.5677 13.3695 64.3218 12.5212C65.0759 11.6623 65.9976 10.9867 67.0869 10.4945C68.1762 10.0022 69.4121 9.75605 70.7947 9.75605C71.4964 9.75605 72.1615 9.86079 72.7899 10.0703C73.4288 10.2797 74.0101 10.5783 74.5338 10.9658C75.068 11.3428 75.5341 11.8037 75.9321 12.3483C76.3406 12.8825 76.66 13.4795 76.8904 14.1394L79.2471 10.196H81.2895V28.3419ZM75.9478 19.2297C75.9478 18.7583 75.9216 18.2608 75.8692 17.7371C75.8273 17.2134 75.7488 16.695 75.6336 16.1818C75.5184 15.6685 75.356 15.1815 75.1465 14.7207C74.9475 14.2493 74.6857 13.8356 74.361 13.4795C74.0468 13.1129 73.6645 12.8249 73.2141 12.6154C72.7637 12.4059 72.24 12.3012 71.643 12.3012C71.046 12.3012 70.5276 12.4112 70.0877 12.6311C69.6478 12.8406 69.2707 13.1286 68.9565 13.4952C68.6423 13.8513 68.3804 14.265 68.171 14.7364C67.972 15.2077 67.8148 15.7 67.6996 16.2132C67.5844 16.7264 67.5006 17.2449 67.4483 17.7686C67.4064 18.2818 67.3854 18.7688 67.3854 19.2297C67.3854 19.6905 67.4064 20.1828 67.4483 20.7065C67.5006 21.2302 67.5844 21.7486 67.6996 22.2618C67.8148 22.7751 67.972 23.2673 68.171 23.7386C68.3804 24.21 68.6423 24.6289 68.9565 24.9955C69.2707 25.3516 69.6478 25.6397 70.0877 25.8596C70.5276 26.0691 71.046 26.1738 71.643 26.1738C72.1877 26.1738 72.6695 26.0638 73.0884 25.8439C73.5179 25.6135 73.8897 25.3097 74.2039 24.9327C74.5286 24.5556 74.8009 24.1262 75.0209 23.6444C75.2408 23.1626 75.4189 22.6651 75.555 22.1519C75.6912 21.6386 75.7907 21.1307 75.8535 20.6279C75.9164 20.1147 75.9478 19.6486 75.9478 19.2297Z" fill="var(--fill-0, #003C78)"/>
<path id="Vector_6" d="M43.6609 19.2297C43.6609 20.1723 43.5352 21.0573 43.2838 21.8848C43.0325 22.7122 42.6816 23.4768 42.2312 24.1785C41.7913 24.8803 41.2571 25.514 40.6287 26.0796C40.0003 26.6347 39.309 27.106 38.5549 27.4935C37.8112 27.8811 37.01 28.1796 36.1511 28.389C35.3028 28.5985 34.4282 28.7033 33.5274 28.7033C32.6267 28.7033 31.7521 28.5985 30.9037 28.389C30.0554 28.1796 29.2541 27.8811 28.5 27.4935C27.7563 27.106 27.0703 26.6347 26.4419 26.0796C25.8134 25.514 25.274 24.8803 24.8237 24.1785C24.3838 23.4768 24.0381 22.7122 23.7868 21.8848C23.5354 21.0469 23.4097 20.1618 23.4097 19.2297C23.4097 18.2975 23.5354 17.4177 23.7868 16.5902C24.0381 15.7523 24.3838 14.9825 24.8237 14.2808C25.274 13.579 25.8134 12.9506 26.4419 12.3955C27.0703 11.8299 27.7563 11.3533 28.5 10.9658C29.2541 10.5783 30.0554 10.2797 30.9037 10.0703C31.7521 9.86079 32.6267 9.75605 33.5274 9.75605C34.4282 9.75605 35.3028 9.86079 36.1511 10.0703C37.01 10.2797 37.8112 10.5783 38.5549 10.9658C39.309 11.3533 40.0003 11.8299 40.6287 12.3955C41.2571 12.9506 41.7913 13.579 42.2312 14.2808C42.6816 14.9825 43.0325 15.7523 43.2838 16.5902C43.5352 17.4177 43.6609 18.2975 43.6609 19.2297ZM38.2564 19.2297C38.2564 18.7269 38.225 18.198 38.1621 17.6429C38.1098 17.0773 38.0155 16.5274 37.8793 15.9932C37.7432 15.4486 37.5546 14.9301 37.3137 14.4379C37.0833 13.9351 36.7953 13.5005 36.4496 13.1339C36.104 12.7568 35.6903 12.4583 35.2085 12.2384C34.7267 12.0079 34.1663 11.8927 33.5274 11.8927C32.92 11.8927 32.3806 12.0079 31.9092 12.2384C31.4379 12.4688 31.0242 12.7778 30.6681 13.1653C30.3224 13.5424 30.0292 13.9823 29.7883 14.485C29.5579 14.9877 29.3693 15.5114 29.2227 16.0561C29.0761 16.5902 28.9713 17.1349 28.9085 17.69C28.8456 18.2346 28.8142 18.7479 28.8142 19.2297C28.8142 19.7115 28.8456 20.2299 28.9085 20.785C28.9713 21.3297 29.0761 21.8743 29.2227 22.4189C29.3693 22.9636 29.5579 23.4873 29.7883 23.99C30.0292 24.4823 30.3224 24.9222 30.6681 25.3097C31.0242 25.6868 31.4379 25.9905 31.9092 26.221C32.3806 26.4514 32.92 26.5666 33.5274 26.5666C34.1559 26.5666 34.711 26.4566 35.1928 26.2367C35.6746 26.0062 36.0883 25.7025 36.4339 25.3254C36.79 24.9484 37.0833 24.5137 37.3137 24.0214C37.5442 23.5292 37.7275 23.0107 37.8636 22.4661C38.0102 21.9214 38.1098 21.3716 38.1621 20.8164C38.225 20.2613 38.2564 19.7324 38.2564 19.2297Z" fill="var(--fill-0, #003C78)"/>
<path id="Vector_7" d="M21.838 11.327L19.1514 12.4581C18.942 11.7773 18.6592 11.1541 18.3031 10.5885C17.9574 10.023 17.5385 9.54116 17.0462 9.14316C16.5644 8.73468 16.0145 8.42046 15.3966 8.20051C14.7786 7.97008 14.103 7.85487 13.3699 7.85487C12.5843 7.85487 11.8616 7.98579 11.2018 8.24764C10.5524 8.49901 9.96587 8.84989 9.44218 9.30026C8.92896 9.75064 8.47858 10.2743 8.09105 10.8713C7.70352 11.4683 7.37883 12.1073 7.11698 12.7881C6.85514 13.4584 6.66137 14.1549 6.53568 14.8776C6.41 15.6003 6.34715 16.3073 6.34715 16.9985C6.34715 18.0983 6.47284 19.1928 6.72421 20.2821C6.98606 21.3714 7.39454 22.3507 7.94965 23.22C8.51524 24.0893 9.24318 24.7963 10.1335 25.341C11.0237 25.8751 12.1025 26.1422 13.3699 26.1422C14.0402 26.1422 14.6739 26.0322 15.2709 25.8123C15.8679 25.5819 16.4073 25.2729 16.8891 24.8854C17.3814 24.4873 17.8108 24.0213 18.1774 23.4871C18.544 22.9529 18.8372 22.3769 19.0572 21.7589L21.7751 22.843C21.3771 23.838 20.8325 24.7125 20.1412 25.4667C19.4499 26.2103 18.6592 26.8283 17.7689 27.3205C16.8891 27.8128 15.9412 28.1794 14.9252 28.4203C13.9198 28.6717 12.9038 28.7973 11.8773 28.7973C10.7671 28.7973 9.69879 28.6612 8.67235 28.3889C7.65639 28.1165 6.7085 27.729 5.8287 27.2263C4.9489 26.7235 4.14765 26.116 3.42495 25.4038C2.71273 24.6916 2.10001 23.9008 1.58679 23.0315C1.08404 22.1622 0.691274 21.2195 0.40848 20.2035C0.13616 19.1771 0 18.1088 0 16.9985C0 15.8883 0.13616 14.8252 0.40848 13.8093C0.691274 12.7828 1.08404 11.8349 1.58679 10.9656C2.10001 10.0858 2.71273 9.28979 3.42495 8.57757C4.14765 7.86534 4.9489 7.25786 5.8287 6.75512C6.7085 6.25237 7.65639 5.86484 8.67235 5.59252C9.69879 5.3202 10.7671 5.18404 11.8773 5.18404C12.9457 5.18404 13.9878 5.30972 15.0038 5.5611C16.0302 5.81247 16.9834 6.19477 17.8632 6.70798C18.743 7.21073 19.5233 7.84963 20.2041 8.6247C20.8953 9.38929 21.44 10.29 21.838 11.327Z" fill="var(--fill-0, #003C78)"/>
</g>
<path id="Subtract" d="M216.658 9.75661C217.067 9.75661 217.523 9.79365 218.025 9.86696C218.528 9.92979 219.02 10.0451 219.502 10.2127C219.984 10.3698 220.429 10.5788 220.838 10.8406C221.246 11.1024 221.565 11.4225 221.796 11.7996L218.811 16.7478C218.685 16.3291 218.523 15.858 218.324 15.3347C218.125 14.811 217.879 14.3232 217.586 13.8728C217.293 13.4121 216.942 13.03 216.533 12.7263C216.125 12.4122 215.653 12.2547 215.119 12.2547C214.627 12.2547 214.198 12.3804 213.831 12.6316C213.475 12.8829 213.171 13.2135 212.92 13.6218C212.669 14.0198 212.459 14.4758 212.291 14.989C212.134 15.4916 212.008 16.0046 211.914 16.5281C211.83 17.0413 211.773 17.5395 211.741 18.0213C211.71 18.4922 211.694 18.9004 211.694 19.2459V28.3425H206.368V10.197H208.41L210.562 14.4226C210.856 13.7419 211.191 13.119 211.568 12.5535C211.945 11.9775 212.38 11.4854 212.872 11.0769C213.364 10.658 213.92 10.3327 214.538 10.1023C215.166 9.87204 215.873 9.75665 216.658 9.75661Z" fill="var(--fill-0, #003C78)"/>
<path id="Subtract_2" d="M85.0923 4.93579C85.1666 3.4875 85.4593 2.06442 86.6147 2.66723C88.5925 3.69949 85.9268 7.7416 87.2163 8.17212C88.5065 8.60218 87.3029 4.90311 88.7651 5.41919C89.9348 5.83217 90.3416 8.40122 90.3989 9.63403L90.4028 9.62231V28.343H85.0923V4.93579Z" fill="var(--fill-0, #003C78)"/>
<path id="Vector 138" d="M47.2481 9.46503C46.2847 9.53384 46.3608 10.3252 46.3608 10.6692L48.5971 10.5792C48.3391 10.0631 48.2114 9.39622 47.2481 9.46503Z" fill="var(--fill-0, #003C78)"/>
<path id="Vector 139" d="M165.001 9.29473C164.037 9.36354 164.113 10.1549 164.113 10.4989L166.35 10.4089C166.092 9.89283 165.964 9.22592 165.001 9.29473Z" fill="var(--fill-0, #003C78)"/>
<path id="Vector 140" d="M207.147 9.29473C206.183 9.36354 206.344 10.1499 206.344 10.494L208.496 10.4089C208.238 9.89283 208.11 9.22592 207.147 9.29473Z" fill="var(--fill-0, #003C78)"/>
<path id="Subtract_3" d="M56.6704 9.75661C57.0787 9.75663 57.5341 9.79369 58.0366 9.86696C58.5392 9.92979 59.0315 10.0452 59.5132 10.2127C59.9949 10.3697 60.4407 10.5788 60.8491 10.8406C61.2576 11.1024 61.5767 11.4225 61.8071 11.7996L58.8228 16.7478C58.6971 16.3291 58.5343 15.8581 58.3355 15.3347C58.1365 14.811 57.8904 14.3232 57.5972 13.8728C57.3039 13.4121 56.9528 13.03 56.5444 12.7263C56.136 12.4121 55.6645 12.2547 55.1304 12.2547C54.6383 12.2547 54.2088 12.3804 53.8423 12.6316C53.4862 12.883 53.1825 13.2134 52.9312 13.6218C52.6798 14.0198 52.4698 14.4758 52.3023 14.989C52.1452 15.4916 52.0195 16.0046 51.9253 16.5281C51.8415 17.0413 51.7839 17.5395 51.7524 18.0213C51.7211 18.4922 51.7056 18.9004 51.7056 19.2459V28.3425H46.3794V10.197H48.4214L50.5747 14.4226C50.8679 13.7421 51.2027 13.1189 51.5796 12.5535C51.9566 11.9776 52.3912 11.4853 52.8833 11.0769C53.3756 10.658 53.9314 10.3327 54.5493 10.1023C55.1777 9.87197 55.885 9.75661 56.6704 9.75661Z" fill="var(--fill-0, #003C78)"/>
<path id="Subtract_4" d="M174.663 9.75661C176.045 9.75663 177.281 10.0036 178.371 10.4959C179.46 10.9881 180.381 11.6635 181.135 12.5222C181.889 13.3706 182.466 14.3711 182.864 15.5232C183.262 16.6751 183.46 17.9108 183.461 19.2302C183.461 20.5499 183.262 21.7862 182.864 22.9382C182.466 24.0904 181.889 25.096 181.135 25.9549C180.381 26.8031 179.46 27.4733 178.371 27.9656C177.281 28.4578 176.045 28.7038 174.663 28.7039C173.605 28.7039 172.63 28.5 171.74 28.0916C170.86 27.6726 170.106 27.0333 169.478 26.1746V36.7166H164.168V10.197H166.211L168.567 14.1404C168.797 13.4806 169.111 12.8835 169.509 12.3494C169.918 11.8047 170.384 11.3436 170.908 10.9666C171.442 10.5791 172.024 10.2805 172.652 10.0711C173.291 9.86168 173.961 9.75661 174.663 9.75661ZM173.814 12.3025C173.207 12.3025 172.677 12.4065 172.227 12.616C171.787 12.8254 171.405 13.1138 171.081 13.4802C170.766 13.8364 170.504 14.2501 170.294 14.7215C170.096 15.1822 169.939 15.6693 169.824 16.1824C169.709 16.6956 169.624 17.2144 169.572 17.7381C169.53 18.2616 169.509 18.759 169.509 19.2302C169.509 19.6492 169.541 20.1155 169.604 20.6287C169.667 21.1314 169.766 21.6399 169.902 22.1531C170.038 22.6662 170.216 23.1636 170.436 23.6453C170.656 24.1271 170.924 24.5563 171.238 24.9334C171.563 25.3104 171.934 25.6141 172.353 25.8445C172.783 26.0644 173.269 26.1746 173.814 26.1746C174.411 26.1746 174.93 26.0696 175.37 25.8601C175.809 25.6402 176.186 25.3527 176.501 24.9968C176.815 24.6304 177.071 24.2111 177.27 23.74C177.48 23.2687 177.642 22.7757 177.757 22.2625C177.873 21.7495 177.951 21.2312 177.993 20.7078C178.045 20.1841 178.072 19.6911 178.072 19.2302C178.072 18.7695 178.045 18.2824 177.993 17.7693C177.951 17.2458 177.873 16.7276 177.757 16.2146C177.642 15.7014 177.48 15.2084 177.27 14.7371C177.071 14.2659 176.815 13.8519 176.501 13.4959C176.186 13.1294 175.804 12.841 175.354 12.6316C174.914 12.4117 174.401 12.3025 173.814 12.3025Z" fill="var(--fill-0, #003C78)"/>
</g>
</svg>
