<svg preserveAspectRatio="none" width="100%" height="100%" overflow="visible" style="display: block;" viewBox="0 0 7.5 15" fill="none" xmlns="http://www.w3.org/2000/svg">
<g id="Container">
<path id="Icon" d="M3.75 15C2.7125 15 1.82812 14.6344 1.09687 13.9031C0.365625 13.1719 0 12.2875 0 11.25C0 10.65 0.13125 10.0906 0.39375 9.57187C0.65625 9.05312 1.025 8.6125 1.5 8.25V2.25C1.5 1.625 1.71875 1.09375 2.15625 0.65625C2.59375 0.21875 3.125 0 3.75 0C4.375 0 4.90625 0.21875 5.34375 0.65625C5.78125 1.09375 6 1.625 6 2.25V8.25C6.475 8.6125 6.84375 9.05312 7.10625 9.57187C7.36875 10.0906 7.5 10.65 7.5 11.25C7.5 12.2875 7.13437 13.1719 6.40312 13.9031C5.67187 14.6344 4.7875 15 3.75 15V15M3 6.75H4.5V6H3.75V5.25H4.5V3.75H3.75V3H4.5V2.25C4.5 2.0375 4.42813 1.85938 4.28438 1.71563C4.14063 1.57188 3.9625 1.5 3.75 1.5C3.5375 1.5 3.35938 1.57188 3.21563 1.71563C3.07188 1.85938 3 2.0375 3 2.25V6.75V6.75" fill="var(--fill-0, #005EB4)"/>
</g>
</svg>
