<svg preserveAspectRatio="none" width="100%" height="100%" overflow="visible" style="display: block;" viewBox="0 0 39.8431 40.6667" fill="none" xmlns="http://www.w3.org/2000/svg">
<g id="Overlay">
<rect width="39.8431" height="40.6667" rx="4" fill="var(--fill-0, #E1E2E9)" fill-opacity="0.5"/>
<path id="Icon" d="M14.5 28.6667V25.0833C13.7083 24.3611 13.0938 23.5174 12.6562 22.5521C12.2188 21.5868 12 20.5694 12 19.5C12 17.4167 12.7292 15.6458 14.1875 14.1875C15.6458 12.7292 17.4167 12 19.5 12C21.2361 12 22.7743 12.5104 24.1146 13.5312C25.4549 14.5521 26.3264 15.8819 26.7292 17.5208L27.8125 21.7917C27.8819 22.0556 27.8333 22.2951 27.6667 22.5104C27.5 22.7257 27.2778 22.8333 27 22.8333H25.3333V25.3333C25.3333 25.7917 25.1701 26.184 24.8438 26.5104C24.5174 26.8368 24.125 27 23.6667 27H22V28.6667H20.3333V25.3333H23.6667V25.3333V25.3333V21.1667H25.9167L25.125 17.9375C24.8056 16.6736 24.125 15.6458 23.0833 14.8542C22.0417 14.0625 20.8472 13.6667 19.5 13.6667C17.8889 13.6667 16.5139 14.2292 15.375 15.3542C14.2361 16.4792 13.6667 17.8472 13.6667 19.4583C13.6667 20.2917 13.8368 21.0833 14.1771 21.8333C14.5174 22.5833 15 23.25 15.625 23.8333L16.1667 24.3333V28.6667H14.5V28.6667M19.7917 21.1667V21.1667V21.1667V21.1667V21.1667V21.1667V21.1667V21.1667V21.1667V21.1667V21.1667V21.1667V21.1667V21.1667V21.1667V21.1667V21.1667V21.1667M18.6667 22.8333H20.3333L20.4583 21.7917C20.5694 21.75 20.6701 21.7014 20.7604 21.6458C20.8507 21.5903 20.9306 21.5278 21 21.4583L21.9583 21.875L22.7917 20.4583L21.9583 19.8333C21.9861 19.7222 22 19.6111 22 19.5C22 19.3889 21.9861 19.2778 21.9583 19.1667L22.7917 18.5417L21.9583 17.125L21 17.5417C20.9306 17.4722 20.8507 17.4097 20.7604 17.3542C20.6701 17.2986 20.5694 17.25 20.4583 17.2083L20.3333 16.1667H18.6667L18.5417 17.2083C18.4306 17.25 18.3299 17.2986 18.2396 17.3542C18.1493 17.4097 18.0694 17.4722 18 17.5417L17.0417 17.125L16.2083 18.5417L17.0417 19.1667C17.0139 19.2778 17 19.3889 17 19.5C17 19.6111 17.0139 19.7222 17.0417 19.8333L16.2083 20.4583L17.0417 21.875L18 21.4583C18.0694 21.5278 18.1493 21.5903 18.2396 21.6458C18.3299 21.7014 18.4306 21.75 18.5417 21.7917L18.6667 22.8333V22.8333M19.5 20.75C19.1528 20.75 18.8576 20.6285 18.6146 20.3854C18.3715 20.1424 18.25 19.8472 18.25 19.5C18.25 19.1528 18.3715 18.8576 18.6146 18.6146C18.8576 18.3715 19.1528 18.25 19.5 18.25C19.8472 18.25 20.1424 18.3715 20.3854 18.6146C20.6285 18.8576 20.75 19.1528 20.75 19.5C20.75 19.8472 20.6285 20.1424 20.3854 20.3854C20.1424 20.6285 19.8472 20.75 19.5 20.75V20.75" fill="var(--fill-0, #5D5F65)"/>
</g>
</svg>
