<svg preserveAspectRatio="none" width="100%" height="100%" overflow="visible" style="display: block;" viewBox="0 0 17.6077 25.8694" fill="none" xmlns="http://www.w3.org/2000/svg">
<g id="Group 9">
<path id="Vector 148" d="M1.77949 16.1319C1.25856 19.0571 0.617472 20.8202 1.77949 22.8238C2.24482 23.6261 2.98006 24.21 3.82308 24.6217C5.08521 25.238 6.58892 25.4685 7.79013 25.4685C10.394 25.4685 11.6307 25.1409 12.4766 24.6217C13.0496 24.2699 13.4802 23.9057 13.9611 23.3447C15.105 22.0102 15.3635 19.8185 15.0029 17.4142C14.6423 15.01 17.2068 14.9699 17.2068 13.5674C17.2068 12.1649 16.4855 12.9663 15.0029 13.5674C13.5203 14.1685 14.3618 13.8078 15.8845 10.0412C17.4072 6.27449 14.4819 5.71349 13.6806 7.43655C13.187 8.49771 13.6806 10.6022 11.5969 10.9227C9.51319 11.2433 12.8391 4.4713 13.6806 2.54789C14.5221 0.624486 11.4028 -0.777996 10.9958 1.82661C10.7955 3.10888 9.55001 7.01373 9.50994 5.21053C9.46987 3.40734 9.15255 1.30569 7.79013 1.30569C6.4277 1.30569 5.78659 2.50782 5.78659 4.03052C5.78659 5.55321 7.79013 9.60038 7.79013 10.6022C7.79013 11.6039 6.62808 13.6075 5.78659 9.60038C4.9451 5.59328 2.56493 5.41141 1.7795 5.71349C0.737632 6.1142 -0.184019 7.67697 0.857825 9.60038C1.89967 11.5238 2.30041 13.2068 1.77949 16.1319Z" fill="var(--fill-0, #FFA56D)" stroke="var(--stroke-0, #FF6200)" stroke-width="0.801804"/>
<path id="Vector 149" d="M6.47742 20.6085C5.89907 19.5542 7.21137 21.5054 9.48291 20.5872C10.5842 20.1421 8.05672 23.4874 6.47742 20.6085Z" fill="var(--fill-0, #873400)" stroke="var(--stroke-0, #873400)" stroke-width="0.801804" stroke-linecap="round"/>
<path id="Vector 150" d="M4.05325 18.6088C4.82316 17.9302 5.46354 17.8262 6.10614 18.4087" stroke="var(--stroke-0, #873400)" stroke-width="0.540195" stroke-linecap="round"/>
<path id="Vector 151" d="M10.1497 18.4787C10.9068 18.0535 11.4803 18.0909 11.9719 18.7118" stroke="var(--stroke-0, #873400)" stroke-width="0.540195" stroke-linecap="round"/>
</g>
</svg>
