<svg preserveAspectRatio="none" width="100%" height="100%" overflow="visible" style="display: block;" viewBox="0 0 9 9" fill="none" xmlns="http://www.w3.org/2000/svg">
<g id="Container">
<path id="Icon" d="M4.5 9C3.35 9 2.34792 8.61875 1.49375 7.85625C0.639583 7.09375 0.15 6.14167 0.025 5H1.05C1.16667 5.86667 1.55208 6.58333 2.20625 7.15C2.86042 7.71667 3.625 8 4.5 8C5.475 8 6.30208 7.66042 6.98125 6.98125C7.66042 6.30208 8 5.475 8 4.5C8 3.525 7.66042 2.69792 6.98125 2.01875C6.30208 1.33958 5.475 1 4.5 1C3.925 1 3.3875 1.13333 2.8875 1.4C2.3875 1.66667 1.96667 2.03333 1.625 2.5H3V3.5H0V0.5H1V1.675C1.425 1.14167 1.94375 0.729167 2.55625 0.4375C3.16875 0.145833 3.81667 0 4.5 0C5.125 0 5.71042 0.11875 6.25625 0.35625C6.80208 0.59375 7.27708 0.914583 7.68125 1.31875C8.08542 1.72292 8.40625 2.19792 8.64375 2.74375C8.88125 3.28958 9 3.875 9 4.5C9 5.125 8.88125 5.71042 8.64375 6.25625C8.40625 6.80208 8.08542 7.27708 7.68125 7.68125C7.27708 8.08542 6.80208 8.40625 6.25625 8.64375C5.71042 8.88125 5.125 9 4.5 9V9M5.9 6.6L4 4.7V2H5V4.3L6.6 5.9L5.9 6.6V6.6" fill="var(--fill-0, #005EB4)"/>
</g>
</svg>
