<svg preserveAspectRatio="none" width="100%" height="100%" overflow="visible" style="display: block;" viewBox="0 0 35.3723 35.4453" fill="none" xmlns="http://www.w3.org/2000/svg">
<g id="Vector 114">
<path d="M11.3882 23.8238C19.5734 18.4795 8.72088 32.3575 13.4626 34.7936C15.4316 35.8051 16.6622 32.684 16.6622 25.2301C16.6622 17.7763 24.5028 30.5041 31.3238 30.5041C38.1448 30.5041 27.9836 25.4059 21.6549 21.5735C15.3261 17.7411 36.8087 13.4516 33.574 8.10737C30.3393 2.7631 21.3448 18.4803 20.1078 16.0886C17.3983 10.8498 24.5339 7.81913 18.5568 2.33422C12.5796 -3.1507 18.4202 14.2955 16.6622 16.0886C14.9042 17.8818 7.69647 6.56035 2.94991 9.6544C-1.79666 12.7485 23.2019 15.1393 9.03249 21.5735C-5.13687 28.0078 1.15672 30.5041 11.3882 23.8238Z" fill="var(--fill-0, #FFDD00)"/>
<path d="M27.6968 7.42184C28.5076 6.77545 29.3609 6.095 30.6779 5.68156C31.3316 5.48777 32.2159 5.39716 33.0776 5.75182C33.9344 6.10472 34.4787 6.73684 34.8453 7.33789C35.5348 8.30619 35.5317 10.0583 34.9294 11.0114C34.3788 12.0125 33.6798 12.631 32.9994 13.1943C31.6286 14.2871 30.2193 15.0703 28.8274 15.8372C27.4376 16.5955 26.0581 17.2945 24.7682 18.0253C24.1344 18.3855 23.5015 18.7665 22.9684 19.1512C22.4448 19.5106 21.9581 20.0264 21.9436 20.1253C21.949 20.1311 21.9166 19.961 21.8784 19.9683C21.8445 19.9553 21.8172 19.97 21.8195 19.9859C21.8315 20.0319 21.9102 20.109 22.0226 20.181C22.1203 20.2421 22.2422 20.3011 22.3837 20.37C22.5025 20.4299 22.6201 20.4931 22.7401 20.5678C24.9476 21.9384 27.0907 23.153 29.303 24.5361C31.5826 25.988 30.3268 25.5865 31.0768 26.1579C32.5249 27.3199 31.4558 26.0967 32.1078 26.4356C32.9369 27.0977 33.7452 27.4712 34.5888 28.9034C34.6925 29.1381 34.7995 29.4045 34.7805 29.8401C34.773 30.2484 34.5035 30.7372 34.2578 30.9463C33.9685 31.2068 33.7906 31.2778 33.5617 31.3739C33.3888 31.4412 33.1926 31.4941 33.0312 31.5271C32.3659 31.655 31.8879 31.6505 31.3238 31.6455C31.1652 31.6426 31.0073 31.6341 30.8504 31.6203C31.0082 31.6213 31.1661 31.6171 31.3238 31.6072C31.5423 31.5933 31.7477 31.5748 31.9412 31.5513C32.1625 31.5264 32.372 31.4956 32.5885 31.4531C32.139 31.5114 31.6457 31.509 31.3238 31.4859C30.9864 31.4574 30.8838 31.4202 31.3238 31.3861C31.4477 31.374 31.6115 31.36 31.8085 31.339C31.6513 31.3319 31.4916 31.3204 31.3238 31.3062C31.1205 31.2887 30.9187 31.2617 30.7083 31.2259C30.5788 31.4155 28.8195 31.0202 28.6615 31.0105C28.4748 31.0471 29.4395 31.3329 29.4388 31.3277C29.3904 31.3775 28.356 31.0859 27.4328 30.6013C26.4992 30.1303 25.6542 29.5324 25.5395 29.4528C24.9445 29.0259 25.5805 29.2247 25.0601 28.8901C24.1857 28.3038 24.5238 29.0153 23.6827 27.7678C23.1385 27.5561 23.1469 27.4566 22.6015 27.0111C22.5288 26.9516 22.5275 27.0704 22.4936 27.0466C21.614 26.4328 22.3648 26.8098 22.3661 26.7988C22.389 26.6129 21.4605 25.9555 21.2804 25.7909C19.5307 24.2215 16.7652 21.4887 16.9683 25.2301C16.9627 25.5175 16.9562 25.7943 16.9481 26.0951C16.9407 26.7841 16.9119 28.8915 16.8072 29.5541C16.7147 30.2169 16.6361 29.8395 16.5423 30.1834C16.747 30.7587 16.7363 31.3177 16.2632 32.501C16.3281 33.0111 16.2284 32.908 15.9169 33.785C15.7682 34.1398 15.6046 34.6839 15.0815 35.1249C14.5463 35.6156 13.6129 35.4773 13.2813 35.1466C13.7739 35.4026 14.0962 35.3855 14.3775 35.3172C14.6561 35.2373 14.9716 35.0881 15.3291 34.6261C15.481 34.4868 16.0032 33.5534 16.1886 32.6394C16.4009 31.7347 16.4518 30.8908 16.3331 31.008C16.2151 31.1354 16.0828 32.3174 16.0384 32.3619C15.8599 32.5917 15.8903 31.92 16.0355 31.3537C16.0325 31.5068 16.0244 31.678 16.0151 31.8387C16.3967 30.5663 15.692 31.3744 16.3185 30.4511C16.3931 30.3368 16.4494 30.3933 16.5369 30.1948C16.5158 30.1497 16.4213 30.3934 16.4354 30.1755C16.4507 29.9501 16.6142 29.5481 16.5159 29.473C16.3761 29.3669 16.3418 30.2848 16.3206 30.3507C16.3214 30.3515 16.3223 30.3524 16.3231 30.3532C16.1688 30.9402 16.3138 29.6886 16.2988 29.6243C16.241 29.2212 16.1463 29.489 16.1153 28.8939C16.098 28.5635 16.1705 27.7091 16.1659 27.3978C16.1629 27.0821 16.0729 27.5694 16.0655 27.3572C16.0583 27.1401 16.1204 26.8927 16.1085 26.6396C16.1031 26.5315 16.0229 26.5373 16.0212 26.4865C16.0001 25.9432 16.1611 26.3005 16.1566 25.8034C16.1551 25.6793 16.1313 25.4377 16.0986 25.2301C16.05 24.8683 15.9919 24.6217 15.9516 25.1289C15.9454 24.9226 15.9461 24.7307 15.9532 24.549C15.9625 24.3371 15.9816 24.1287 16.0107 23.9362C15.9431 24.1629 15.8951 24.4863 15.8567 24.6954C15.9549 23.9321 15.8577 23.577 16.161 22.9342C16.3188 22.6287 16.6439 22.3094 17.0644 22.1644C17.4808 22.0182 17.8723 22.053 18.2186 22.0826C18.5714 22.12 18.6244 22.126 18.4975 22.0644C18.3701 22.0153 18.0655 21.888 17.5423 21.9333C16.9848 21.9554 16.3519 22.4585 16.1585 22.8571C16.0545 23.0342 15.9815 23.2178 15.9365 23.3474C15.8955 23.4646 15.8691 23.5571 15.8526 23.606C15.7962 23.7599 15.8367 23.1306 15.9186 22.9867C16.0122 22.7629 16.2284 22.4517 16.5173 22.2414C16.8287 22.0043 17.189 21.9045 17.4447 21.8646C18.3624 21.7667 18.7504 21.9983 19.1817 22.1377C19.5678 22.2859 19.9282 22.464 20.3072 22.7051C22.818 24.3841 25.3402 26.6442 27.5147 27.8352C28.3067 28.2824 28.7385 28.6148 29.1035 28.7575C29.9598 29.0643 30.0973 28.9715 30.8017 29.0731C30.9696 29.0914 31.1462 29.1046 31.3238 29.108C31.6274 29.1123 31.8966 29.1106 32.1545 29.0931C32.4009 29.0826 32.6579 29.0159 32.6212 29.0373C32.6191 29.0459 32.4055 29.1592 32.3046 29.4958C32.2215 29.8202 32.3207 29.9723 32.325 29.9802C32.3506 29.9933 32.2278 29.8054 32.1185 29.6917C31.705 29.2452 31.0761 28.9369 30.9303 28.8304C28.753 27.3045 25.7332 25.627 23.7194 24.4462C22.7655 23.893 22.3765 23.5132 22.1792 23.4013C21.3717 22.941 21.4738 23.1167 20.9209 22.7856C20.8753 22.7582 20.8272 22.728 20.7763 22.6946C20.2924 22.3675 20.3167 22.2177 20.2378 22.1508C19.7215 21.6083 19.4575 21.5463 19.1706 20.7527C18.7999 19.417 19.5526 18.4172 20.0106 17.912C20.5311 17.3525 21.023 16.9999 21.5405 16.6472C22.5482 15.9768 23.5552 15.4518 24.5574 14.9135C24.7024 14.8362 24.7188 14.8972 24.8113 14.8438C25.2092 14.6129 24.9747 14.6288 25.39 14.3993C26.2549 13.9213 27.1468 13.4708 28.0411 12.9858C28.1284 12.9383 28.2081 12.9846 28.4088 12.8708C28.6105 12.7559 28.7185 12.6084 29.0317 12.428C29.833 11.9635 30.6526 11.5475 31.3598 10.9733C31.4777 10.8766 31.559 10.6816 31.7073 10.5421C32.2274 10.0917 32.6916 9.43657 32.6453 9.23713C32.6477 9.09834 32.6153 8.96247 32.4936 8.76129C32.3289 8.49297 32.1772 8.36663 32.0657 8.3169C31.9608 8.2712 31.8369 8.25318 31.6012 8.30268C31.1203 8.40446 30.4619 8.79973 29.8483 9.26852C29.4863 9.54303 29.1218 9.74299 28.9354 9.90484C28.5233 10.2695 28.8857 10.0509 28.4738 10.4345C27.2756 11.5684 26.1343 12.8426 24.9613 14.1267C24.3719 14.7699 23.7824 15.4178 23.1135 16.0713C22.772 16.3997 22.4355 16.7187 21.9723 17.0505C21.7218 17.2198 21.4705 17.4015 20.9949 17.5407C20.7171 17.609 20.3778 17.6754 19.8885 17.5015C19.4029 17.3125 19.1378 16.9757 18.9792 16.6724C18.1711 15.2094 18.0129 13.2332 18.4393 11.6902C19.005 9.54574 19.955 7.56129 19.6301 6.30454C19.5216 5.76733 19.5733 5.63173 19.3853 5.2399C19.0008 4.55767 18.78 4.51824 18.1741 3.87192C18.0035 3.698 17.8438 3.52199 17.6525 3.31968C17.2918 2.92728 16.878 2.55751 16.7014 2.51277C16.6468 2.49666 16.7207 2.54727 16.8836 2.51779C17.0587 2.48689 17.1956 2.37284 17.2342 2.34509C17.308 2.28967 17.2504 2.47915 17.2282 2.84389C17.1739 3.44643 17.1754 4.5343 17.2766 5.37409C17.4802 7.09204 17.7953 8.84453 18.0652 10.6317C18.1997 11.5282 18.3286 12.4319 18.408 13.3821C18.446 13.8554 18.4743 14.3538 18.4561 14.8843C18.4446 15.1683 18.4248 15.4447 18.3577 15.7844C18.2756 16.1145 18.2176 16.5534 17.7073 17.1133C17.4008 17.436 16.9349 17.6701 16.5001 17.7258C16.0911 17.7836 15.7444 17.7196 15.4968 17.6531C14.9774 17.5042 14.6662 17.318 14.3509 17.1292C13.7589 16.7595 13.2948 16.3803 12.8423 16.0057C11.9422 15.2506 11.1239 14.4948 10.2977 13.7789C8.67285 12.3747 6.90048 10.9401 5.28575 10.5793C4.6705 10.4537 4.18515 10.5154 3.70709 10.816C3.56831 10.8925 3.54493 10.9878 3.6525 10.7885C3.70791 10.6833 3.73964 10.4453 3.70016 10.3028C3.66362 10.1504 3.61553 10.1041 3.61579 10.1041C3.62437 10.1527 4.0519 10.4739 4.44175 10.6817C5.26905 11.1394 6.22521 11.5572 7.15291 11.9926C7.40495 12.1104 6.95502 12.075 7.79789 12.3896C8.24916 12.5606 8.92128 12.6988 9.97243 13.1684C10.8643 13.5745 11.7694 14.0161 12.6724 14.6499C13.4678 15.2598 14.8493 16.2248 14.6498 18.1678C14.2753 19.9153 13.1425 20.5453 12.298 21.1651C11.3701 21.7706 10.4984 22.1918 9.51144 22.6283C6.87665 23.8014 4.14189 25.0791 2.28681 26.7864C2.12325 26.9488 1.98687 27.1136 1.92042 27.2251C1.88278 27.2851 1.87335 27.3262 1.8856 27.2938C1.89445 27.2767 1.93598 27.0888 1.82754 26.8788C1.71457 26.6682 1.5845 26.6224 1.57967 26.6155C1.56429 26.6074 1.61011 26.621 1.68165 26.626C1.82038 26.6377 2.02917 26.629 2.25651 26.5991C3.14341 26.4784 4.16674 26.1259 5.11138 25.7254C7.03529 24.9027 8.85649 23.8105 10.5991 22.6152C11.2583 22.1726 11.8236 21.7935 12.6532 21.4302C12.9038 21.3276 13.0873 21.2568 13.4103 21.1831C13.5756 21.1475 13.7421 21.1227 13.9347 21.1172C14.1821 21.112 14.4466 21.1359 14.7513 21.248C15.4933 21.4842 15.9436 22.3407 15.9899 22.7198C16.0821 23.1891 16.051 23.4389 16.0283 23.7124C15.7382 25.5462 15.1626 26.6494 14.7012 27.916C13.8165 30.2741 12.6278 32.9175 13.6474 34.0674C13.871 34.2776 13.5831 34.5235 13.3204 34.4686C13.1899 34.2928 13.1064 34.0938 13.0581 33.8914C12.5894 33.9108 12.5301 33.8984 12.3946 32.8078C12.3718 32.1169 12.2181 32.6752 12.1558 32.3003C12.006 31.7998 12.3294 29.4273 12.5134 29.9492C12.5007 29.798 12.4893 29.6563 12.4806 29.5059C12.8923 27.8625 13.4558 26.3003 13.8592 24.7376C13.9248 24.4698 13.8455 24.4228 13.8994 24.1604C13.9731 23.7906 14.0363 23.467 14.0307 23.2334C14.0292 23.1058 13.9922 23.0755 14.032 23.1103C14.0846 23.1326 14.0059 23.0919 13.8751 23.1212C13.5537 23.199 13.5331 23.318 13.0517 23.5418C12.5945 23.7738 12.4947 23.6665 11.9454 24.189C12.1182 24.1491 12.0225 24.2369 11.7709 24.4099C11.2732 24.759 10.2048 25.3467 9.72786 25.6207C9.62067 25.6863 8.83555 26.3015 8.35206 26.5216C7.87458 26.7444 7.09797 27.0067 6.37012 27.3697C6.00889 27.5474 5.86373 27.7375 5.45021 27.896C5.1738 28.0014 4.79645 28.0144 4.43726 28.1171C4.08061 28.2274 3.27874 28.5073 3.12963 28.5288C2.56098 28.6318 3.17954 28.4514 2.78714 28.51C2.32796 28.5661 1.82723 28.6288 1.1913 28.4974C1.04605 28.4647 0.837067 28.4001 0.655111 28.2929C0.442993 28.1695 0.220563 27.9736 0.0926173 27.6634C-0.140267 27.033 0.12384 26.5814 0.254076 26.3332C0.929142 25.2911 1.71087 24.803 2.40587 24.2559C2.58309 24.1251 2.28096 24.2247 2.30361 24.2055C3.45501 23.292 2.87221 23.8337 3.24963 23.6832C3.59143 23.5243 5.96001 22.1719 5.91811 22.0372C6.09265 22.1684 6.55024 21.7681 6.68853 21.6942C7.2207 21.4078 7.22227 21.5972 7.70652 21.3081C7.89001 21.2001 7.46753 21.2722 7.67487 21.1779C7.98935 21.035 8.32156 20.9595 8.70413 20.8504C8.94642 20.7815 9.19602 20.7003 9.45132 20.5826C9.60857 20.5096 9.62401 20.4107 9.8825 20.2791C10.2175 20.123 11.3039 19.569 10.7264 19.721C11.4654 19.4108 11.5747 19.265 12.1424 18.7156C12.2798 18.5678 12.5675 18.4509 12.6607 18.1214C12.6849 18.0131 12.5658 17.9727 12.5823 17.8585C12.6133 17.6304 12.6278 17.2433 12.1557 16.7751C11.2653 15.9264 9.82853 15.3585 8.50957 14.7409C8.14697 14.5742 8.29065 14.4945 7.75124 14.265C7.67098 14.2308 6.97814 14.0653 6.60128 13.9C6.38376 13.8053 5.21863 13.2388 4.98712 13.1274C4.59772 12.9466 4.4675 13.0232 4.26625 12.9037C3.66014 12.5351 4.25565 12.6311 3.38119 12.4593C3.20271 12.2095 2.74111 11.9337 2.72412 11.6992C2.5368 11.6756 2.38995 11.5622 2.23869 11.378C2.15449 11.2752 2.07587 11.1573 2.0065 11.0181C1.92414 10.8523 1.855 10.658 1.85088 10.4113C1.85582 9.96577 2.02367 9.66422 2.16641 9.4419C2.28911 9.24704 2.44046 9.10852 2.59171 9.10489C2.64059 9.10683 2.68989 9.12531 2.74039 9.16347C2.92671 8.92322 4.11987 8.45015 4.34645 8.47561C4.97046 8.42019 4.64311 8.5415 5.09808 8.54313C5.17609 8.55105 5.10711 8.45143 5.61255 8.53865C6.00185 8.50557 8.13435 9.46905 8.20894 9.59487C9.45782 10.4984 7.46554 9.20616 7.08697 9.18685C7.04287 9.14425 6.99435 9.10025 6.94276 9.05616C6.30216 8.76874 6.62014 9.06646 6.89121 9.22018C7.16171 9.37088 7.70633 9.5647 7.89858 9.74045C7.99525 9.82856 7.8267 9.9571 7.51128 9.76131C7.83214 10.0032 7.32439 9.80544 7.43532 9.93054C7.57384 10.039 9.04177 11.0173 9.10257 10.9503C8.83731 10.7537 8.49366 10.5242 8.20932 10.3416C7.92076 9.93633 9.47209 10.1081 10.2958 11.1125C10.877 11.8282 9.64424 10.9972 11.3709 12.2358C11.1277 12.0174 10.9296 11.8273 10.705 11.632C10.7725 11.5004 11.043 11.9299 11.26 12.0554C11.3656 12.1151 10.8704 11.5628 11.3797 11.9493C11.6634 12.4619 12.1155 12.5819 12.7991 13.1839C12.587 13.0452 12.3713 12.9031 12.1565 12.7633C13.2156 13.8957 10.4968 11.5659 12.6879 13.6094C12.4114 13.3737 12.1462 13.1361 11.8678 12.9055C11.9493 13.0776 11.5928 13.0601 11.6793 13.1984C11.907 13.5616 12.4116 13.9113 12.781 14.2506C12.9445 14.4003 12.8017 14.3546 12.8155 14.3671C13.0393 14.5719 13.0402 14.4563 13.2491 14.6298C13.4972 14.841 14.2008 15.529 14.3317 15.6074C14.6791 15.8377 14.2353 15.286 14.2806 15.3012C14.5267 15.3926 14.9131 15.7517 14.9569 15.6452C13.8687 15.014 11.2548 12.4784 13.8289 14.5079C13.2621 13.7821 13.6244 13.7949 14.6073 14.5793C15.427 15.1945 14.8428 14.8715 15.2081 15.2662C15.2329 15.2902 15.5196 15.5112 15.7994 15.6421C16.0974 15.7858 16.2475 15.7446 16.2234 15.708C16.235 15.7948 16.2771 15.8732 16.3462 15.9326C16.4072 15.9932 16.5089 16.0405 16.4194 16.182C16.4074 16.2044 16.2626 16.2509 16.1389 16.2585C16.0064 16.269 15.9097 16.2761 15.9974 16.3686C16.0451 16.4145 16.1594 16.486 16.2669 16.5373C16.3768 16.5908 16.4972 16.6205 16.47 16.6762C16.6411 16.5716 16.7648 16.4145 16.8314 16.2545C16.8357 16.2435 16.8397 16.2324 16.8435 16.2214C17.0325 15.9897 17.0709 15.8065 17.1243 15.6386C17.1652 15.4968 17.1942 15.3766 17.2235 15.2627C17.2775 15.0642 17.3359 14.8879 17.4006 14.6442C17.3488 14.6668 17.1322 15.1085 17.2036 14.4272C17.2064 14.3945 17.2858 14.3465 17.31 14.0043C17.3471 13.2778 17.3513 13.1409 17.6144 13.6638C17.373 12.1996 17.5601 11.8587 17.2815 10.3856C17.0373 10.7239 17.1953 11.2172 17.4071 12.588C17.3458 12.6555 17.2816 12.6906 17.2193 12.7587C17.1623 10.9226 17.2497 11.8242 16.9749 10.8183C16.9076 10.5752 16.7461 9.24226 16.6208 9.71376C16.5919 9.82493 16.7176 10.6472 16.6327 10.5635C16.617 10.5452 16.4352 9.55235 16.4397 9.46003C16.503 8.32197 16.9453 10.271 16.4233 7.24221C16.4095 7.16014 16.3223 7.14006 16.2886 6.97704C16.2257 6.67018 16.3216 6.65687 16.2646 6.38423C16.2073 6.10713 16.0329 5.746 16.1111 5.31474C16.2551 4.54406 16.5536 6.30261 16.5583 7.11005C16.727 7.25059 16.5894 5.89994 16.5236 4.50448C16.4918 3.80673 16.491 3.09494 16.5635 2.60684C16.6363 2.09483 16.7622 1.97185 16.7503 1.97643C16.6915 1.94264 16.7302 1.91086 16.7034 1.92068C16.6045 1.93844 16.4531 2.60968 16.4237 2.64716C16.3894 2.69297 15.9457 2.61486 16.1976 3.26944C16.2713 3.45511 16.4124 2.69179 16.4364 3.14821C16.4696 3.59822 16.3514 3.41827 16.341 3.45114C16.3077 3.56474 16.3683 4.05877 16.3556 4.12383C16.1542 5.14245 15.7185 5.07502 16.2665 3.71596C16.1195 3.133 15.9331 4.47673 15.8217 3.75644C15.6816 2.84598 15.9991 2.23644 16.0446 2.13206C16.2876 1.54455 16.3006 1.63882 16.2396 1.60137C16.2177 1.59346 16.1964 1.57363 16.2581 1.48975C16.3107 1.42243 16.5032 1.22128 16.9044 1.31775C17.3392 1.46647 16.9697 1.39196 16.8209 1.41742C16.7293 1.42775 16.6857 1.44969 16.7608 1.4605C16.8368 1.47931 17.0272 1.4776 17.474 1.7409C18.1816 2.19992 18.3035 2.34147 18.352 2.29604C18.3868 2.25311 18.2816 2.05527 18.4037 2.01259C18.4286 2.00282 18.5996 2.11824 18.6965 2.18193C18.7561 2.21963 18.7826 2.2307 18.715 2.1618C18.6483 2.09539 18.4901 1.94658 18.2217 1.74057C18.1606 1.76673 18.053 1.77992 17.9487 1.76959C17.7219 1.53676 17.3896 1.0129 17.1325 0.941917C16.6275 0.762491 16.2184 0.97571 16.064 1.12905C15.8983 1.2852 15.7945 1.40809 15.5881 1.66043C15.9513 1.33665 15.5375 1.93415 15.555 2.18549C15.5993 3.04517 15.6914 1.94872 15.462 3.79563C15.5481 3.54119 15.6384 3.34675 15.7387 3.11328C15.7331 3.33959 15.736 3.53473 15.7438 3.76196C15.5417 4.07612 15.6492 5.24454 15.3802 4.2045C15.3974 5.47877 15.524 5.96748 15.7073 6.22012C15.7431 6.26661 15.7785 6.45829 15.8089 6.67063C15.8474 6.62407 15.9762 6.5548 15.9971 6.58652C16.1813 6.86896 15.9957 7.38279 15.8771 7.23279C15.8933 7.3849 15.9047 7.50492 15.9083 7.54773C15.9313 7.81843 15.7703 7.30422 15.771 7.526C15.7707 7.59882 15.8995 8.35545 15.8666 8.37436C15.6545 8.49837 15.6314 7.23122 15.8723 9.74817C16.0871 9.7764 15.8689 8.62601 16.1321 8.89054C16.4148 9.17512 16.1971 9.87406 16.5063 9.97342C16.4667 10.0332 16.4306 10.0624 16.3833 10.1158C16.6571 11.1084 16.4155 11.1548 16.4048 11.47C16.401 12.0805 16.6748 14.8197 16.6364 12.3312C16.7002 12.6951 16.7473 13.0514 16.7952 13.4189C16.3464 13.5248 16.5974 13.3365 16.4996 14.9819C16.453 15.3218 16.252 15.3934 16.3808 15.6739C16.3212 15.6319 16.2491 15.6903 16.2391 15.6738C16.2032 15.6801 16.2471 15.6771 16.1729 15.6889C16.1007 15.6947 15.9943 15.6704 15.9713 15.6526C15.8617 15.5586 15.931 15.5296 16.0591 15.5239C16.1181 15.5193 16.1849 15.5073 16.1864 15.4902C16.1935 15.4683 16.0937 15.491 16.0752 15.5131C16.0111 15.6018 16.1237 15.4083 16.1698 15.2638C16.2317 15.09 16.2941 14.9538 16.3845 14.8906C16.2471 14.4966 16.4484 14.4945 16.4068 14.0469C16.3318 13.3774 16.2841 13.302 16.345 12.4756C16.0806 11.7294 16.5013 15.5373 16.05 13.2492C15.8967 12.4449 15.4791 10.2385 15.0102 7.49225C14.7955 6.1053 14.5337 4.63207 14.5721 2.92994C14.5912 2.51943 14.6253 2.03144 14.81 1.48794C14.9227 1.18204 15.0628 0.857575 15.4258 0.512652C15.781 0.163581 16.387 -0.0289035 16.8296 0.00353467C18.4228 0.243967 18.7883 0.884514 19.4371 1.37486C21.3352 2.94374 22.4059 5.31955 22.3797 6.59222C22.4464 9.24214 21.3949 10.7925 21.1235 12.108C20.7822 13.4165 20.8717 14.3584 21.4191 15.4104C21.3689 15.315 21.2662 15.1521 21.0293 15.0104C20.788 14.8656 20.5213 14.8494 20.4019 14.8632C20.143 14.9029 20.2229 14.9148 20.2731 14.8727C20.4197 14.7838 20.6591 14.5888 20.9075 14.3581C21.3952 13.9054 21.9264 13.3386 22.4928 12.7239C22.8179 12.3614 25.5264 9.37944 25.1421 10.1647C25.0803 10.2761 23.9777 11.6044 25.1236 10.6503C24.8347 10.7931 25.3777 10.107 25.4222 10.0455C26.4335 8.64855 25.5997 9.26843 27.6968 7.42184ZM33.1208 9.70339C33.3263 9.1425 33.1595 8.83748 33.0897 8.68478C33.0018 8.52606 32.9579 8.51823 32.9457 8.57451C32.9286 8.70005 32.8875 8.96318 32.6491 8.86675C32.7361 9.06862 32.7502 9.21132 32.7106 9.40226C32.7438 9.35786 32.7733 9.31135 32.7986 9.2634C32.7986 9.26319 32.7986 9.26298 32.7986 9.26277C32.931 9.36135 33.0449 9.51078 33.1208 9.70339ZM15.7147 25.7211C15.6672 25.5914 15.6192 25.4623 15.572 25.3192C15.5731 25.2896 15.5741 25.2599 15.5751 25.2301C15.5821 24.9789 15.5971 24.7439 15.6207 24.5225C15.6486 24.2558 15.6823 24.0326 15.7463 23.7593C15.7626 23.841 15.7835 23.9119 15.8061 23.9756C15.7339 24.4116 15.7153 24.7999 15.7146 25.2301C15.7149 25.3958 15.7149 25.5594 15.7147 25.7211ZM16.6763 7.56934C16.6332 8.21741 16.8624 8.12254 16.8783 8.97331C17.0385 8.84492 17.1932 8.70583 17.351 8.57251C17.2315 7.94394 17.1424 7.80736 17.0904 7.12069C17.0448 7.20734 16.9993 7.29637 16.9534 7.3821C16.9816 7.49419 17.0127 7.61383 17.0394 7.72332C16.906 7.92152 16.7277 6.82933 16.6756 7.56721C16.6758 7.56792 16.676 7.56863 16.6763 7.56934ZM17.5675 14.0729C17.58 14.4301 17.4443 15.8573 17.2353 16.2025C17.1332 16.4691 17.3365 16.2808 17.4654 15.9945C17.5338 15.8437 17.5855 15.6647 17.6199 15.4985C17.6569 15.3172 17.6764 15.1581 17.691 15.0106C17.7197 14.6985 17.7236 14.5162 17.7447 14.5613C17.7489 14.6221 17.8516 14.8787 17.7269 15.7851C17.7653 15.7757 17.7943 15.8012 17.8277 15.8101C17.9981 15.1062 17.9835 14.5809 17.9781 14.0146C17.8415 14.0492 17.7047 14.0354 17.5675 14.0729ZM25.9011 12.2426C25.5358 12.6077 23.9386 14.5484 24.6049 14.0477C24.8066 13.8953 25.382 12.9218 25.6767 12.6146C25.8651 12.4183 25.7496 12.7267 26.0802 12.3C26.024 12.2805 25.9695 12.2504 25.9004 12.2439C25.9006 12.2435 25.9008 12.243 25.9011 12.2426ZM26.0424 11.0347C25.6858 11.4439 25.3339 11.8677 24.9834 12.2873C25.3556 12.0867 25.8207 11.4506 25.9975 11.5532C25.907 11.6722 25.8183 11.7898 25.7279 11.9099C25.6185 11.9644 25.5105 12.0177 25.4027 12.0711C25.1688 12.4868 25.3948 12.3174 24.7887 12.939C25.3646 12.7534 25.5434 12.7817 26.3333 11.4911C26.2615 11.807 26.8235 11.9746 27.1141 11.1284C27.1695 10.9695 26.6936 11.3952 26.6806 11.394C26.5115 11.3695 26.6932 11.0505 26.525 11.0362C26.4488 11.0292 26.1787 11.3152 26.0786 11.3017C26.0303 11.2939 26.2043 10.9425 26.0424 11.0347ZM27.2962 10.753C27.2419 10.9284 27.7733 10.6715 28.0959 10.3079C28.5968 9.74704 27.6018 10.422 27.2962 10.753ZM15.7149 25.724C15.7148 25.723 15.7148 25.7221 15.7147 25.7211C15.7149 25.7216 15.7151 25.7221 15.7152 25.7226C15.7151 25.723 15.715 25.7235 15.7149 25.724ZM17.5128 12.2601C17.6341 12.664 17.6776 13.2685 17.7868 13.2183C17.7819 13.4268 17.7737 13.6183 17.763 13.8362C17.7971 13.8325 17.8312 13.8267 17.8649 13.8229C17.8526 13.2029 17.8094 12.5942 17.7589 11.9986C17.677 12.0842 17.5938 12.1636 17.5128 12.2601ZM14.0255 15.822C13.4307 15.3375 13.8396 15.8592 13.6602 15.8125C13.4756 15.7642 12.9947 15.2797 12.989 15.4145C13.3312 15.7105 13.6862 16.0096 14.0744 16.2996C14.0432 16.1317 14.0372 15.9777 14.0243 15.821C14.0247 15.8213 14.0251 15.8217 14.0255 15.822ZM22.0365 16.9894C22.5005 16.7249 22.37 16.9366 23.1787 16.2876C23.178 16.288 23.1774 16.2884 23.1767 16.2888C22.3016 16.7055 21.1495 17.2814 20.3559 18.2933C20.9737 17.8031 21.3121 17.4265 22.0365 16.9894ZM16.7982 5.80286C16.6797 5.60437 16.7175 6.58284 16.8346 6.78299C17.02 7.10933 16.9725 6.09753 16.7982 5.80286ZM33.4315 30.1068C33.3237 30.2907 33.2915 30.3702 33.38 30.4053C33.4502 30.4261 33.7141 30.4389 33.9437 30.0426C34.2623 29.0566 33.4482 28.4372 32.8616 27.9747C32.7504 27.8804 33.4517 28.6614 33.1848 28.4878C33.1636 28.4669 32.7508 28.0817 32.6223 28.0335C32.4903 27.977 32.5443 28.1411 32.3425 28.0285C32.0111 27.8435 31.3746 27.2323 31.0849 27.1473C31.0511 27.1377 31.4127 27.5404 31.4391 27.5668C31.844 27.945 32.3475 28.1401 32.4216 28.2014C32.7556 28.4738 32.6237 28.5369 32.6843 28.6306C32.7931 28.8016 33.0836 29.029 33.0891 29.0469C33.2543 29.3405 33.1055 29.1693 32.8968 28.9664C32.6748 28.7476 32.3529 28.4812 32.2613 28.4361C31.755 28.1953 32.0934 28.5769 31.0085 27.8808C30.9072 27.8164 29.6951 26.9749 31.138 28.1474C27.9285 26.3426 32.7204 29.3166 32.7108 29.672C32.8294 29.8002 32.7848 29.5067 32.8932 29.5717C33.0297 29.6543 33.089 29.7695 33.125 29.7466C33.1856 29.7362 33.1541 29.8491 33.2197 29.9043C33.3581 30.0348 33.5935 29.8755 33.4945 29.5901C33.4092 29.3206 33.1233 29.0608 32.9519 28.8399C33.0535 28.8288 33.1283 28.7917 33.2641 28.8244C33.1583 28.7945 33.3757 29.052 33.5229 29.3888C33.5973 29.5589 33.6259 29.7545 33.5732 29.8902C33.5206 30.031 33.4369 30.0903 33.431 30.1063C33.4312 30.1064 33.4313 30.1066 33.4315 30.1068ZM26.2872 24.7709C25.6215 24.2527 25.5553 24.4865 24.9603 23.9857C24.2704 23.8294 25.4297 24.4855 25.5573 24.5737C26.1422 24.9757 26.0114 25.1646 26.6712 25.47C26.5257 25.2269 26.4201 25.0062 26.2872 24.7709ZM32.2487 28.7598C31.7748 28.5121 32.4926 29.1229 32.48 29.161C32.6676 29.5963 30.5202 27.7894 32.2487 28.7598ZM23.3577 14.3287C23.1577 14.5309 23.3631 14.4784 23.2133 14.6866C23.0694 14.8937 22.3913 15.439 22.446 15.4792C22.5163 15.5189 23.784 14.4935 22.664 15.6789C22.7329 15.6675 22.7399 15.7022 22.785 15.7084C23.1044 15.3967 23.4143 15.0747 23.7214 14.7474C23.4677 14.8509 23.2128 14.9445 22.9723 15.0334C23.0777 14.793 23.2543 14.776 23.2642 14.7657C23.2641 14.7656 23.264 14.7655 23.264 14.7654C23.5812 14.4167 23.7995 13.8775 23.3577 14.3287ZM28.3279 13.7158C28.3921 14.007 28.8203 13.4028 29.0331 13.2373C29.245 13.0747 29.6241 12.9706 29.4398 12.9378C29.0229 13.0911 28.3209 13.6845 28.328 13.7161C28.328 13.716 28.3279 13.7159 28.3279 13.7158ZM22.3608 22.4817C21.8397 22.2385 21.7759 22.2704 21.3926 22.0066C21.2918 21.9385 21.1771 21.8537 21.0512 21.7441C21.0402 21.8213 21.0303 21.9006 21.0238 21.9786C21.1273 22.0501 21.2218 22.104 21.3077 22.1468C21.6792 22.3217 21.8158 22.2514 22.3493 22.6466C22.4541 22.7239 22.1343 22.7211 22.6644 22.974C22.5633 22.8155 22.4594 22.6442 22.3608 22.4817ZM19.9089 19.4559C19.7012 20.0495 20.0413 20.6149 20.1808 20.6418C20.2509 20.6633 20.269 20.609 20.2357 20.437C20.2093 20.2705 20.1295 19.9655 20.2251 19.5108C20.2791 19.2695 20.2462 18.669 19.9089 19.4559ZM28.475 8.99303C27.453 9.88099 28.6607 8.91125 28.9842 8.77625C26.6822 10.8834 29.222 8.47906 29.6592 8.58904C29.912 8.30153 30.3939 7.78629 29.7219 8.1588C29.4394 8.32816 29.5869 8.33139 29.5706 8.34167C29.0793 8.67672 29.043 8.52618 28.475 8.99303ZM27.5436 25.4943C27.4971 25.4716 27.5174 25.5956 27.3665 25.5285C27.2142 25.4602 26.9309 25.215 26.8688 25.2471C26.8068 25.2793 27.4254 25.6979 27.6416 25.777C27.8576 25.8552 27.9617 25.7 27.5436 25.4943ZM23.1288 22.6424C22.5037 22.3555 23.2917 23.23 23.4198 23.3021C24.5603 23.9453 23.0389 22.7214 23.1288 22.6424ZM30.8833 6.77408C29.3114 7.67529 30.6904 7.24232 31.6052 7.30944C31.714 7.25885 31.8443 7.21699 31.9661 7.18938C31.6721 7.27542 31.3456 7.47097 31.3213 7.54171C31.3089 7.57765 31.3737 7.57191 31.5547 7.53974C31.7274 7.51739 32.0306 7.43778 32.4505 7.59001C32.0148 7.36863 31.9377 7.40468 32.0371 7.37643C32.1301 7.3595 32.3527 7.40805 32.3578 7.4068C32.5018 7.23537 32.1231 7.00613 31.6698 6.98535C31.2351 6.94991 30.8008 7.05263 30.8849 6.77358C30.8844 6.77375 30.8839 6.77391 30.8833 6.77408ZM29.381 26.7315C29.9925 27.0985 31.5503 28.0829 30.9463 27.4426C30.4304 27.1944 29.9061 26.9589 29.381 26.7315ZM20.4524 3.98441C20.1953 3.39819 19.8419 2.96785 19.3041 2.43188C19.6648 3.0281 19.3355 2.70798 19.1578 2.58234C18.8822 2.38387 19.4578 2.96351 19.4483 2.97854C19.3227 3.06981 18.9852 2.68597 19.7414 3.57891C19.5157 3.37654 19.3001 3.20925 19.0606 3.03025C19.6462 3.67345 19.6972 3.92566 19.8903 4.43005C19.8383 3.84428 20.1017 4.49206 20.4885 5.01538C20.6935 5.28915 20.605 4.28132 20.4511 3.98249C20.4516 3.98313 20.452 3.98377 20.4524 3.98441ZM29.2455 7.55811C29.127 7.70176 29.0357 7.85393 28.9402 7.99929C28.8003 8.11157 28.6522 8.23448 28.5186 8.35083C28.4727 8.32958 28.4282 8.30454 28.3803 8.28737C28.1875 8.42997 28.2999 8.4194 28.2491 8.46972C28.249 8.46953 28.2488 8.46935 28.2487 8.46916C27.5281 9.19886 27.2318 9.48557 26.5691 9.94617C26.668 10.0444 26.7669 10.1425 26.8658 10.2407C26.9816 10.1053 27.0968 9.97252 27.2158 9.83821C27.2314 9.71831 27.2477 9.5982 27.2644 9.47854C27.4419 9.36557 27.6169 9.25751 27.7989 9.1471C27.9034 9.01497 28.0302 8.86404 28.1211 8.75022C28.9979 8.50074 27.4196 9.53802 27.5343 9.67519C27.5871 9.74724 28.9619 8.51218 29.1538 8.313C29.1797 8.28218 28.6792 8.2889 29.3196 8.00588C29.4336 7.96125 29.7809 8.45129 30.1366 7.65059C30.1983 7.53423 29.6657 7.37812 29.2455 7.55811ZM24.1273 12.1852C25.1294 11.6793 22.2133 14.2561 23.5777 13.2485C23.3956 13.7216 23.4508 13.6581 23.8956 13.4128C23.9348 13.3916 23.7486 13.6713 23.7725 13.6544C24.1433 13.3821 24.471 12.9481 24.5956 13.0552C24.6708 12.9592 24.7446 12.8662 24.8181 12.7721C24.3642 13.0426 24.8248 12.3791 24.9415 12.058C24.9944 11.9123 24.759 12.1433 24.8019 12.0194C24.8192 11.9722 25.1531 11.6633 25.1267 11.6123C25.0622 11.5016 24.7483 11.5976 24.351 11.9003C24.3509 11.9002 24.3508 11.9002 24.3507 11.9001C24.2744 11.9959 24.2022 12.09 24.1273 12.1852ZM26.8079 15.5604C26.5464 15.448 25.8835 15.729 27.0484 14.9862C26.9675 14.9798 26.8852 14.9746 26.8044 14.968C26.6005 15.081 26.4063 15.1884 26.1971 15.3037C25.8787 16.2108 24.3951 16.1782 25.3405 16.1925C25.4431 16.1941 25.9044 15.8823 25.4883 16.2615C25.489 16.2613 25.4897 16.261 25.4904 16.2608C26.1419 15.8627 26.1871 15.7512 26.8079 15.5604ZM31.1561 12.8767C32.346 11.5192 28.9897 13.9651 29.6172 13.6814C29.6908 13.6663 31.146 12.6284 31.1561 12.8767ZM21.2517 20.5516C21.0722 20.3278 21.0115 20.2575 20.9196 20.2053C20.8355 20.1584 20.7517 20.1657 20.7117 20.2057C20.6082 20.2979 20.902 20.6856 20.9527 20.7359C21.0418 20.9206 20.7441 20.5989 20.8638 20.8535C20.8773 20.8795 20.9576 21.0011 21.1176 21.159C21.2608 21.303 21.4443 21.4538 21.645 21.5898C21.8389 21.7238 21.9984 21.8298 22.0196 21.838C22.3512 21.9663 22.0188 21.525 22.1171 21.5562C22.4388 21.6584 22.7566 21.9724 22.896 21.9263C23.1885 21.8256 22.363 21.6243 22.2378 21.5532C21.9782 21.4068 21.9556 21.3173 21.8737 21.2121C21.8388 21.1682 21.7954 21.1218 21.7291 21.0685C21.6153 20.9767 21.5275 20.9157 21.4481 20.8593C21.356 20.7921 21.2715 20.7251 21.2056 20.6447C21.163 20.5915 21.2694 20.5734 21.2517 20.5516ZM21.2724 18.6618C21.047 19.0323 21.3339 18.8575 21.6713 18.6537C22.0344 18.4244 22.4903 18.1545 22.5728 18.071C23.0633 17.5707 21.4705 18.2829 21.2724 18.6618ZM26.3674 10.6604C26.7902 10.0219 25.4917 11.2097 25.1975 11.6221C25.3026 11.5899 26.2202 10.8773 26.3674 10.6604ZM31.3811 6.65369C30.6318 6.87913 31.6981 6.8535 32.2393 7.0119C32.6335 6.91651 32.3026 6.81744 31.8886 6.79544C31.4728 6.79769 31.9851 6.55552 31.3811 6.65369ZM28.2614 25.0753C28.1396 24.994 25.9777 23.9217 27.1345 24.682C27.221 24.7364 28.6856 25.5739 28.8057 25.6139C29.0581 25.6929 28.5911 25.2826 28.2614 25.0753ZM34.5202 8.65061C34.2346 8.20767 34.0336 7.89484 34.0117 8.31722C34.0119 8.31772 34.0122 8.31822 34.0124 8.31872C33.9438 8.18162 33.8808 8.06231 33.8265 7.95453C33.5231 7.38394 33.6634 7.15104 33.5002 6.99652C32.7694 6.4766 33.2662 7.20713 32.7841 7.01618C33.252 7.23799 33.3638 7.44224 33.4432 7.5742C33.5113 7.70955 33.5321 7.80919 33.6591 8.05589C33.69 8.11743 33.7251 8.18687 33.7631 8.2671C33.8662 8.40566 34.1494 9.09979 34.1919 9.23543C34.2681 9.3609 34.502 8.92844 34.5202 8.65061ZM31.17 26.8535C30.5282 26.339 29.7481 26.1842 30.6672 26.8353C31.1036 27.1511 31.5676 27.1767 31.17 26.8535ZM16.5281 15.2025C16.6172 15.098 16.7008 14.9993 16.7822 14.8681C16.7843 15.1582 16.7755 15.4384 16.701 15.7076C16.7534 15.4879 16.7589 15.2676 16.755 15.0461C16.6698 15.5877 16.4762 15.7151 16.5279 15.2039C16.528 15.2034 16.528 15.2029 16.5281 15.2025ZM3.32365 12.1761C3.52607 12.3778 4.07911 12.4012 4.02898 12.3563C3.67058 12.0399 3.05976 11.9058 3.32365 12.1761ZM25.1059 11.0039C24.4438 11.6753 25.1511 11.4433 25.5605 11.0417C25.2693 11.2514 25.4828 10.6255 25.1059 11.0039ZM7.08697 9.18685C7.15414 9.25097 7.22099 9.31628 7.29574 9.38703C7.03649 9.21582 6.99776 9.17179 7.08697 9.18685ZM28.0989 24.6034C27.9896 24.5048 27.0895 23.9483 26.9497 23.9074C26.6573 23.8209 27.2679 24.4104 27.7145 24.6031C27.7648 24.6249 28.2069 24.7001 28.0969 24.6022C28.0976 24.6026 28.0982 24.603 28.0989 24.6034ZM16.2215 15.6983C16.2225 15.7017 16.2232 15.705 16.2234 15.708C16.2229 15.7048 16.2221 15.7016 16.2215 15.6983ZM5.90296 22.0262C5.91087 22.0285 5.91627 22.0321 5.91811 22.0372C5.91364 22.0335 5.90695 22.0307 5.90296 22.0262ZM21.912 20.599C21.8844 20.1678 21.5468 20.0238 21.6263 20.3748C21.6298 20.398 21.8555 20.5633 21.912 20.599Z" fill="var(--stroke-0, #FFA600)"/>
</g>
</svg>
