<svg preserveAspectRatio="none" width="100%" height="100%" overflow="visible" style="display: block;" viewBox="0 0 33.8253 49.6964" fill="none" xmlns="http://www.w3.org/2000/svg">
<g id="Group 9">
<path id="Vector 148" d="M3.41849 30.9903C2.41777 36.6097 1.1862 39.9968 3.41849 43.8457C4.31242 45.387 5.72486 46.5086 7.34434 47.2995C9.76895 48.4836 12.6577 48.9263 14.9652 48.9263C19.9674 48.9263 22.3431 48.297 23.9681 47.2995C25.0689 46.6238 25.8961 45.9241 26.8199 44.8464C29.0174 42.2828 29.5142 38.0723 28.8214 33.4536C28.1286 28.8349 33.0552 28.7579 33.0552 26.0637C33.0552 23.3695 31.6696 24.909 28.8214 26.0637C25.9732 27.2184 27.5897 26.5256 30.5149 19.2896C33.4401 12.0536 27.8206 10.9759 26.2811 14.286C25.333 16.3245 26.2811 20.3673 22.2782 20.9831C18.2753 21.5989 24.6645 8.5896 26.2811 4.89463C27.8976 1.19967 21.9054 -1.49457 21.1235 3.50902C20.7387 5.97233 18.3461 13.4737 18.2691 10.0097C18.1921 6.54568 17.5825 2.5083 14.9652 2.5083C12.348 2.5083 11.1163 4.81766 11.1163 7.74284C11.1163 10.668 14.9652 18.4428 14.9652 20.3673C14.9652 22.2918 12.7329 26.1407 11.1163 18.4428C9.49979 10.745 4.92736 10.3956 3.41851 10.9759C1.41703 11.7457 -0.353511 14.7479 1.64793 18.4428C3.64936 22.1378 4.4192 25.3709 3.41849 30.9903Z" fill="var(--fill-0, #FFA56D)" stroke="var(--stroke-0, #FF6200)" stroke-width="1.54031"/>
<path id="Vector 149" d="M12.4434 39.5905C11.3324 37.5652 13.8534 41.3134 18.2172 39.5496C20.3327 38.6945 15.4774 45.1211 12.4434 39.5905Z" fill="var(--fill-0, #873400)" stroke="var(--stroke-0, #873400)" stroke-width="1.54031" stroke-linecap="round"/>
<path id="Vector 150" d="M7.78651 35.7488C9.26554 34.4451 10.4957 34.2454 11.7302 35.3643" stroke="var(--stroke-0, #873400)" stroke-width="1.03774" stroke-linecap="round"/>
<path id="Vector 151" d="M19.4981 35.499C20.9526 34.6821 22.0543 34.7541 22.9986 35.9468" stroke="var(--stroke-0, #873400)" stroke-width="1.03774" stroke-linecap="round"/>
</g>
</svg>
