<svg width="42" height="53" viewBox="0 0 42 53" fill="none" xmlns="http://www.w3.org/2000/svg">
<path d="M9.65319 35.0615C10.0643 40.507 9.72981 43.9388 12.715 46.9737C13.9105 48.189 15.4864 48.8919 17.1754 49.239C19.7041 49.7587 22.4863 49.4809 24.6246 48.9313C29.2597 47.7399 31.3112 46.591 32.5794 45.2796C33.4385 44.3913 34.0384 43.546 34.6377 42.3273C36.0634 39.4284 35.5208 35.4086 33.7788 31.2938C32.0368 27.179 36.5836 25.9343 35.9419 23.4377C35.3002 20.9412 34.3829 22.6978 32.0187 24.4461C29.6545 26.1944 30.9875 25.1674 31.9746 17.7657C32.9617 10.364 27.4978 10.7038 26.8597 14.1376C26.4667 16.2524 28.3081 19.7727 24.7456 21.2967C21.1831 22.8208 24.005 9.24424 24.6229 5.43538C25.2408 1.62652 19.0465 0.557173 19.5138 5.37983C19.7438 7.75407 19.3134 15.2749 18.4171 12.0834C17.5207 8.89187 15.9942 5.29592 13.569 5.91929C11.1438 6.54266 10.5525 8.97591 11.2492 11.6864C11.946 14.397 17.3642 20.6846 17.8226 22.4679C18.2809 24.2511 17.1291 28.3493 13.7977 21.6013C10.4664 14.8533 6.14622 15.6186 4.88629 16.5157C3.21502 17.7057 2.28943 20.9093 5.02406 23.8565C7.75868 26.8036 9.24208 29.6161 9.65319 35.0615Z" fill="#FFA56D" stroke="#FF6200" stroke-width="1.47297"/>
<ellipse cx="27.0368" cy="35.5374" rx="1.25203" ry="1.76757" transform="rotate(-14.415 27.0368 35.5374)" fill="#873400"/>
<ellipse cx="17.6211" cy="37.9573" rx="1.25203" ry="1.76757" transform="rotate(-14.415 17.6211 37.9573)" fill="#873400"/>
<path d="M21.1832 42.5453C22.8706 43.4132 24.2572 43.2397 25.6232 41.7304" stroke="#873400" stroke-width="1.47297" stroke-linecap="round"/>
</svg>
