<svg width="76" height="76" viewBox="0 0 76 76" fill="none" xmlns="http://www.w3.org/2000/svg">
<g clip-path="url(#clip0_1149_2584)">
<path fill-rule="evenodd" clip-rule="evenodd" d="M62.9435 74.3696C63.612 74.3002 64.2776 74.2041 64.9389 74.0815C65.4244 73.991 65.8785 73.7691 66.2554 73.4381C66.6322 73.1071 66.9186 72.6787 67.0856 72.196C67.2526 71.7133 67.2943 71.1933 67.2066 70.6885C67.1189 70.1837 66.9049 69.7118 66.5861 69.3204C65.0502 67.4375 64.0014 65.1784 63.5388 62.7567C63.4527 62.309 63.6211 61.5226 64.4896 60.6428C70.6666 54.3945 74.5 45.9194 74.5 36.5372C74.5 16.9553 57.9234 1.5 38 1.5C18.0766 1.5 1.5 16.9553 1.5 36.5372C1.5 56.1191 18.0766 71.5744 38 71.5744C41.1184 71.5744 44.1507 71.1968 47.0483 70.4883C51.7844 73.5838 57.3775 74.9496 62.9435 74.3696Z" fill="white" stroke="#0075DE" stroke-width="3"/>
<path d="M25.2085 43.388C24.1856 49.1316 22.9269 52.5935 25.2085 56.5274C26.1222 58.1028 27.5658 59.2492 29.2211 60.0575C31.6993 61.2678 34.6518 61.7203 37.0104 61.7203C42.123 61.7203 44.5513 61.0771 46.2121 60.0575C47.3372 59.3669 48.1828 58.6518 49.127 57.5503C51.373 54.93 51.8808 50.6265 51.1726 45.9057C50.4645 41.185 55.5 41.1063 55.5 38.3525C55.5 35.5988 54.0838 37.1723 51.1726 38.3525C48.2615 39.5327 49.9138 38.8246 52.9036 31.4288C55.8934 24.0329 50.1497 22.9314 48.5762 26.3146C47.6072 28.3982 48.5762 32.5303 44.4849 33.1597C40.3936 33.7891 46.924 20.4923 48.5762 16.7157C50.2285 12.9391 44.1038 10.1854 43.3047 15.2995C42.9113 17.8172 40.4659 25.4844 40.3872 21.9438C40.3085 18.4033 39.6855 14.2767 37.0104 14.2767C34.3352 14.2767 33.0764 16.6371 33.0764 19.6269C33.0764 22.6167 37.0104 30.5633 37.0104 32.5303C37.0104 34.4972 34.7287 38.4312 33.0764 30.5633C31.4242 22.6954 26.7507 22.3383 25.2085 22.9314C23.1628 23.7182 21.3531 26.7867 23.3988 30.5633C25.4445 34.3399 26.2313 37.6444 25.2085 43.388Z" fill="#FFA56D" stroke="#FF6200" stroke-width="1.54031"/>
<path d="M34.4335 52.1774C33.298 50.1073 35.8747 53.9383 40.3348 52.1355C42.4972 51.2615 37.5345 57.8302 34.4335 52.1774Z" fill="#873400" stroke="#873400" stroke-width="1.54031" stroke-linecap="round"/>
<path d="M29.6719 48.2509C31.1836 46.9183 32.441 46.7142 33.7027 47.8578" stroke="#873400" stroke-width="1.03774" stroke-linecap="round"/>
<path d="M41.6436 47.9958C43.1301 47.1608 44.2562 47.2344 45.2214 48.4535" stroke="#873400" stroke-width="1.03774" stroke-linecap="round"/>
</g>
<defs>
<clipPath id="clip0_1149_2584">
<rect width="76" height="76" fill="white"/>
</clipPath>
</defs>
</svg>
