<svg preserveAspectRatio="none" width="100%" height="100%" overflow="visible" style="display: block;" viewBox="0 0 40.6667 40.6667" fill="none" xmlns="http://www.w3.org/2000/svg">
<g id="Overlay">
<rect width="40.6667" height="40.6667" rx="4" fill="var(--fill-0, #D5E3FF)" fill-opacity="0.3"/>
<path id="Icon" d="M18.25 24.0833L24.0833 20.3333L18.25 16.5833V24.0833V24.0833M20.3333 28.6667C19.1806 28.6667 18.0972 28.4479 17.0833 28.0104C16.0694 27.5729 15.1875 26.9792 14.4375 26.2292C13.6875 25.4792 13.0938 24.5972 12.6562 23.5833C12.2188 22.5694 12 21.4861 12 20.3333C12 19.1806 12.2188 18.0972 12.6562 17.0833C13.0938 16.0694 13.6875 15.1875 14.4375 14.4375C15.1875 13.6875 16.0694 13.0938 17.0833 12.6562C18.0972 12.2188 19.1806 12 20.3333 12C21.4861 12 22.5694 12.2188 23.5833 12.6562C24.5972 13.0938 25.4792 13.6875 26.2292 14.4375C26.9792 15.1875 27.5729 16.0694 28.0104 17.0833C28.4479 18.0972 28.6667 19.1806 28.6667 20.3333C28.6667 21.4861 28.4479 22.5694 28.0104 23.5833C27.5729 24.5972 26.9792 25.4792 26.2292 26.2292C25.4792 26.9792 24.5972 27.5729 23.5833 28.0104C22.5694 28.4479 21.4861 28.6667 20.3333 28.6667V28.6667M20.3333 27C22.1944 27 23.7708 26.3542 25.0625 25.0625C26.3542 23.7708 27 22.1944 27 20.3333C27 18.4722 26.3542 16.8958 25.0625 15.6042C23.7708 14.3125 22.1944 13.6667 20.3333 13.6667C18.4722 13.6667 16.8958 14.3125 15.6042 15.6042C14.3125 16.8958 13.6667 18.4722 13.6667 20.3333C13.6667 22.1944 14.3125 23.7708 15.6042 25.0625C16.8958 26.3542 18.4722 27 20.3333 27V27M20.3333 20.3333V20.3333V20.3333V20.3333V20.3333V20.3333V20.3333V20.3333V20.3333V20.3333" fill="var(--fill-0, #005EB4)"/>
</g>
</svg>
