<svg preserveAspectRatio="none" width="100%" height="100%" overflow="visible" style="display: block;" viewBox="0 0 76.3505 133.608" fill="none" xmlns="http://www.w3.org/2000/svg">
<g id="Cory">
<ellipse id="Ellipse 3" cx="37.9931" cy="128.677" rx="26.5269" ry="4.93177" fill="var(--fill-0, #D6D6D6)"/>
<g id="Group 8">
<g id="Vector 148">
<path d="M16.6419 74.4642C12.8508 67.9275 14.9424 62.1752 16.6419 52.6316C18.3415 43.088 17.0341 37.5971 13.635 31.3219C10.2359 25.0467 13.2428 19.948 16.642 18.6407C19.2045 17.6551 26.97 18.2485 29.7154 31.3219C32.4608 44.3953 36.2521 37.8586 36.2521 34.5903C36.2521 31.3219 29.7154 18.1177 29.7154 13.1498C29.7154 8.18194 31.8071 4.25991 36.2521 4.25991C40.6971 4.25991 41.7324 11.1167 41.8631 16.9997C41.9938 22.8828 46.0572 10.143 46.7109 5.95946C48.0387 -2.53827 58.2155 2.03743 55.4701 8.31267C52.7246 14.5879 41.8737 36.682 48.6719 35.6361C55.4701 34.5903 53.8599 27.7244 55.4701 24.2622C58.0846 18.6407 67.6283 20.471 62.6604 32.76C57.6925 45.049 54.9471 46.2256 59.7843 44.2646C64.6214 42.3036 66.9747 39.6889 66.9747 44.2646C66.9747 48.8403 58.6077 48.971 59.7843 56.8151C60.9609 64.6591 60.1172 71.8099 56.3852 76.1638C54.8163 77.994 53.4113 79.1823 51.5419 80.3299C52.2445 81.5981 50.6125 79.613 51.5419 81.9415C56.8703 76.6744 62.9523 73.5226 66.9747 72.111C69.0304 71.3895 75.4771 77.9784 75.0193 80.3299C74.1774 84.6542 63.2514 91.138 56.3852 93.6316C57.383 97.4629 58.1182 101.41 58.0846 104.533C58.062 106.638 57.6555 108.456 56.9534 110.024C55.8084 112.58 53.8772 114.471 51.5419 115.847C61.5492 115.847 55.6543 123.568 53.5981 124.877C51.5419 126.187 47.9147 127.338 45.9276 126.187C43.9404 125.037 39.869 120.963 40.697 118.914C38.523 119.231 38.1993 119.204 36.2521 119.175C35.8157 119.169 35.3796 119.158 34.9447 119.141C36.0951 124.238 40.697 127.871 38.4442 129.929C36.1781 130.757 30.7802 131.916 28.061 129.929C25.3417 127.942 22.1763 118.681 23.3093 116.081C20.1156 113.947 17.68 110.395 16.6419 104.533C16.1439 101.721 16.9999 96.6478 17.4263 93.9436C10.6717 89.5359 -1.83437 81.6023 2.03536 76.1637C6.87253 69.3656 7.75197 70.9344 9.71298 72.111C11.2818 73.0523 19.4004 77.0171 22.2613 81.9415C23.4097 79.5914 22.3567 81.5786 23.3093 80.3299C20.5589 78.9867 18.1601 77.0819 16.6419 74.4642Z" fill="var(--fill-0, #FFA56D)"/>
<path d="M23.3093 80.3299C27.4271 82.3408 32.3331 83.0927 36.2521 83.0927C44.7473 83.0927 48.7821 82.024 51.5419 80.3299M23.3093 80.3299C20.5589 78.9867 18.1601 77.0819 16.6419 74.4642C12.8508 67.9275 14.9424 62.1752 16.6419 52.6316C18.3415 43.088 17.0341 37.5971 13.635 31.3219C10.2359 25.0467 13.2428 19.948 16.642 18.6407C19.2045 17.6551 26.97 18.2485 29.7154 31.3219C32.4608 44.3953 36.2521 37.8586 36.2521 34.5903C36.2521 31.3219 29.7154 18.1177 29.7154 13.1498C29.7154 8.18194 31.8071 4.25991 36.2521 4.25991C40.6971 4.25991 41.7323 11.1167 41.8631 16.9997C41.9938 22.8828 46.0572 10.143 46.7109 5.95946C48.0387 -2.53827 58.2155 2.03743 55.4701 8.31267C52.7246 14.5879 41.8737 36.682 48.6719 35.6361C55.4701 34.5903 53.8599 27.7244 55.4701 24.2622C58.0846 18.6407 67.6283 20.471 62.6604 32.76C57.6925 45.049 54.9471 46.2256 59.7843 44.2646C64.6214 42.3036 66.9747 39.6889 66.9747 44.2646C66.9747 48.8403 58.6077 48.971 59.7843 56.8151C60.9609 64.6591 60.1172 71.8099 56.3852 76.1638C54.8163 77.994 53.4113 79.1823 51.5419 80.3299M23.3093 80.3299C22.3567 81.5786 23.4097 79.5914 22.2613 81.9414M51.5419 80.3299C52.2445 81.5981 50.6125 79.613 51.5419 81.9414M17.4263 93.9436C16.9999 96.6478 16.1439 101.721 16.6419 104.533C17.68 110.395 20.1156 113.947 23.3093 116.081M17.4263 93.9436C10.6717 89.5359 -1.83437 81.6023 2.03536 76.1637C6.87253 69.3656 7.75197 70.9344 9.71298 72.111C11.2818 73.0523 19.4004 77.0171 22.2613 81.9414M17.4263 93.9436C18.0327 90.0977 20.8382 84.8537 22.2613 81.9414M51.5419 81.9414C56.8703 76.6744 62.9523 73.5226 66.9747 72.111C69.0304 71.3895 75.4771 77.9784 75.0193 80.3299C74.1774 84.6542 63.2514 91.138 56.3852 93.6316M51.5419 81.9414C52.61 84.6176 55.2569 89.2992 56.3852 93.6316M23.3093 116.081C22.1763 118.681 25.3417 127.942 28.061 129.929C30.7802 131.916 36.1781 130.757 38.4442 129.929C40.697 127.871 36.0951 124.238 34.9447 119.141M23.3093 116.081C26.6126 118.289 30.7269 118.979 34.9447 119.141M34.9447 119.141C35.3796 119.158 35.8157 119.169 36.2521 119.175C38.1993 119.204 38.523 119.231 40.697 118.914M40.697 118.914C39.869 120.963 43.9404 125.037 45.9276 126.187C47.9147 127.338 51.5419 126.187 53.5981 124.877C55.6543 123.568 61.5492 115.847 51.5419 115.847M40.697 118.914C43.8495 118.454 48.8745 117.419 51.5419 115.847M51.5419 115.847C53.8772 114.471 55.8084 112.58 56.9534 110.024C57.6555 108.456 58.062 106.638 58.0846 104.533C58.1182 101.41 57.383 97.4629 56.3852 93.6316" stroke="var(--stroke-0, #FF6200)" stroke-width="2.61594"/>
</g>
<path id="Vector 149" d="M31.9692 67.2349C30.0823 63.7952 34.3637 70.1609 41.7748 67.1654C45.3677 65.7131 37.1217 76.6276 31.9692 67.2349Z" fill="var(--fill-0, #873400)" stroke="var(--stroke-0, #873400)" stroke-width="2.61594" stroke-linecap="round"/>
<path id="Vector 150" d="M24.0602 60.7117C26.572 58.4975 28.6613 58.1584 30.7579 60.0586" stroke="var(--stroke-0, #873400)" stroke-width="1.76243" stroke-linecap="round"/>
<path id="Vector 151" d="M43.9505 60.2902C46.4206 58.9028 48.2916 59.0251 49.8955 61.0508" stroke="var(--stroke-0, #873400)" stroke-width="1.76243" stroke-linecap="round"/>
</g>
<path id="Vector 151_2" d="M46.2739 104.902C46.2609 104.902 46.1317 104.902 45.9044 104.931C45.6972 104.958 45.5677 105.151 45.4613 105.314C45.3417 105.497 45.3741 105.769 45.3971 106.003C45.4074 106.108 45.4659 106.177 45.5494 106.237C45.7349 106.37 46.0415 106.39 46.3455 106.353C46.6135 106.32 46.7754 106.079 46.9092 105.91C47.026 105.763 47.0377 105.527 46.9992 105.274C46.9647 105.048 46.7162 104.95 46.5043 104.893C46.3833 104.861 46.2231 104.874 46.1189 104.91C46.0147 104.945 45.9684 105.017 45.9391 105.102C45.9098 105.188 45.899 105.286 45.8934 105.387C45.8879 105.488 45.8879 105.589 45.9347 105.762" stroke="var(--stroke-0, #FF6200)" stroke-width="1.11128" stroke-linecap="round"/>
<path id="Vector 152" d="M49.9749 107.475C49.8332 107.467 49.4294 107.514 49.1814 107.612C49.0282 107.673 48.8966 107.773 48.7976 107.879C48.5875 108.104 48.634 108.871 48.7241 109.362C48.7533 109.52 48.9096 109.597 49.0459 109.66C49.5473 109.889 50.1301 109.709 50.3666 109.603C50.6045 109.496 50.8857 109.33 51.218 109.003C51.7039 108.524 51.3377 107.607 51.1282 107.25C50.9984 107.029 50.7186 106.955 50.1986 106.818C49.5982 106.659 49.3526 106.903 49.1462 107.049C48.9322 107.199 48.8473 107.534 48.7953 107.931C48.7397 108.355 48.8274 108.678 48.9353 108.768C49.1444 108.943 49.7787 108.924 50.2737 108.808C50.7455 108.699 51.0736 107.989 51.1954 107.685C51.2176 107.629 51.2019 107.565 51.1774 107.519C51.0725 107.323 50.7433 107.391 50.56 107.412C50.2911 107.443 50.2697 107.838 50.2394 107.995C50.2257 108.066 50.2291 108.121 50.3058 108.149C50.3826 108.177 50.5361 108.177 50.6378 108.162C50.7395 108.148 50.7848 108.12 50.859 108.077" stroke="var(--stroke-0, #FF6200)" stroke-width="1.11128" stroke-linecap="round"/>
<path id="Vector 150_2" d="M49.2818 102.387C49.3117 102.467 49.4821 102.666 49.6357 102.721C49.7096 102.747 49.7867 102.731 49.8506 102.687C49.9145 102.643 49.9656 102.561 49.9958 102.471C50.026 102.38 50.0336 102.283 50.0034 102.215C49.8821 101.94 49.478 102.019 49.3205 102.061C49.2513 102.079 49.248 102.186 49.2406 102.29C49.2333 102.395 49.2333 102.518 49.3282 102.584C49.4231 102.651 49.6129 102.657 49.733 102.63C49.8531 102.603 49.8978 102.543 49.9241 102.457C49.9503 102.37 49.9568 102.26 49.9279 102.188C49.899 102.116 49.8346 102.085 49.7461 102.069C49.6575 102.053 49.5467 102.053 49.4326 102.053" stroke="var(--stroke-0, #FF6200)" stroke-width="2.11437" stroke-linecap="round"/>
<path id="Vector 151_3" d="M53.3101 106.416C53.34 106.495 53.5104 106.695 53.664 106.749C53.7379 106.776 53.815 106.759 53.8789 106.715C53.9428 106.671 53.9939 106.59 54.0241 106.499C54.0543 106.409 54.0619 106.312 54.0316 106.244C53.9103 105.968 53.5063 106.048 53.3488 106.09C53.2796 106.108 53.2763 106.215 53.2689 106.319C53.2616 106.423 53.2616 106.546 53.3565 106.613C53.4514 106.68 53.6412 106.686 53.7613 106.659C53.8814 106.632 53.9261 106.571 53.9524 106.485C53.9786 106.399 53.9851 106.289 53.9562 106.217C53.9273 106.145 53.8629 106.114 53.7744 106.098C53.6858 106.082 53.575 106.082 53.4609 106.082" stroke="var(--stroke-0, #FF6200)" stroke-width="2.11437" stroke-linecap="round"/>
</g>
</svg>
