<svg width="21" height="21" viewBox="36 0 21 21" fill="none" xmlns="http://www.w3.org/2000/svg">
<path d="M43.7492 15.1664C41.6298 15.1664 39.8363 14.4322 38.3686 12.9637C36.901 11.4953 36.1668 9.70181 36.166 7.58319C36.1652 5.46456 36.8994 3.67104 38.3686 2.20262C39.8378 0.734208 41.6314 0 43.7492 0C45.8671 0 47.661 0.734208 49.1309 2.20262C50.6009 3.67104 51.3347 5.46456 51.3324 7.58319C51.3324 8.43873 51.1963 9.24565 50.9241 10.004C50.6518 10.7623 50.2824 11.4331 49.8158 12.0164L56.349 18.5496C56.5628 18.7635 56.6698 19.0357 56.6698 19.3663C56.6698 19.6968 56.5628 19.9691 56.349 20.1829C56.1351 20.3968 55.8629 20.5038 55.5323 20.5038C55.2018 20.5038 54.9295 20.3968 54.7157 20.1829L48.1825 13.6497C47.5991 14.1164 46.9283 14.4858 46.17 14.758C45.4117 15.0303 44.6047 15.1664 43.7492 15.1664ZM43.7492 12.8331C45.2075 12.8331 46.4473 12.3229 47.4685 11.3024C48.4897 10.282 48.9999 9.04227 48.9991 7.58319C48.9983 6.1241 48.4881 4.88474 47.4685 3.86509C46.4488 2.84545 45.2091 2.33484 43.7492 2.33329C42.2893 2.33173 41.05 2.84233 40.0311 3.86509C39.0122 4.88785 38.5016 6.12721 38.4993 7.58319C38.497 9.03916 39.0076 10.2789 40.0311 11.3024C41.0546 12.326 42.294 12.8362 43.7492 12.8331Z" fill="#727272"/>
</svg>
