<svg preserveAspectRatio="none" width="100%" height="100%" overflow="visible" style="display: block;" viewBox="0 0 40.67 40.67" fill="none" xmlns="http://www.w3.org/2000/svg">
<g id="Overlay">
<rect width="40.67" height="40.67" rx="4" fill="var(--fill-0, #D5E3FF)" fill-opacity="0.3"/>
<path id="Vector" d="M11.535 14.4313C11.689 14.3689 11.8734 14.3026 12.0883 14.2322C13.1548 13.8965 14.267 13.7287 15.385 13.735C16.503 13.7287 17.6152 13.8965 18.6817 14.2322C18.8966 14.3026 19.081 14.3689 19.235 14.4313V26.3992C17.9873 26.0188 16.6894 25.8285 15.385 25.8349C13.779 25.8349 12.4711 26.1077 11.535 26.3992V14.4313ZM20.335 12.5085C20.0162 12.3678 19.6901 12.244 19.3582 12.1378C18.0731 11.7318 16.7327 11.5284 15.385 11.535C13.7064 11.535 12.3545 11.8331 11.4118 12.1378C11.0366 12.2583 10.6689 12.4012 10.3107 12.5657C10.1776 12.6273 10.0467 12.6933 9.918 12.7637L9.8905 12.7791L9.8806 12.7846L9.8773 12.7868C9.8751 12.789 9.6045 12.9485 9.874 12.789C9.70979 12.8863 9.57375 13.0247 9.47925 13.1906C9.38474 13.3565 9.33503 13.5441 9.335 13.735V28.0349C9.33503 28.2291 9.38645 28.4198 9.48404 28.5876C9.58163 28.7555 9.7219 28.8945 9.89061 28.9906C10.0593 29.0867 10.2505 29.1364 10.4446 29.1347C10.6388 29.133 10.829 29.08 10.996 28.9809L10.9905 28.9842L10.9938 28.9831L10.9949 28.982L11.0356 28.96C11.0767 28.938 11.1434 28.905 11.2358 28.861C11.4228 28.7752 11.7088 28.6542 12.0883 28.531C13.1548 28.1957 14.267 28.0284 15.385 28.0349C16.503 28.0284 17.6152 28.1957 18.6817 28.531C18.9722 28.6241 19.2568 28.7343 19.5342 28.861C19.6172 28.8996 19.699 28.9406 19.7795 28.9842M19.7795 28.9842L19.7773 28.9831L19.7762 28.982C20.1216 29.1855 20.5506 29.1855 20.896 28.982L20.9367 28.96C20.9778 28.938 21.0445 28.905 21.1369 28.861C21.4143 28.7343 21.6989 28.6241 21.9894 28.531C23.0556 28.1958 24.1674 28.0285 25.285 28.0349C26.403 28.0284 27.5152 28.1957 28.5817 28.531C28.8722 28.6241 29.1568 28.7343 29.4342 28.861C29.5157 28.8989 29.5961 28.9393 29.6751 28.982C29.8422 29.0808 30.0324 29.1337 30.2265 29.1352C30.4205 29.1367 30.6116 29.0868 30.7801 28.9906C30.9487 28.8944 31.0888 28.7554 31.1863 28.5875C31.2837 28.4197 31.335 28.229 31.335 28.0349V13.735C31.335 13.5441 31.2853 13.3565 31.1908 13.1906C31.0962 13.0247 30.9602 12.8863 30.796 12.789L30.7938 12.7879L30.7894 12.7846L30.7784 12.7791L30.752 12.7637C30.6233 12.6933 30.4924 12.6273 30.3593 12.5657C30.0015 12.4013 29.6342 12.2584 29.2593 12.1378C27.9739 11.7317 26.633 11.5283 25.285 11.535C23.6075 11.535 22.2545 11.8331 21.3118 12.1378C20.9799 12.244 20.6538 12.3678 20.335 12.5085M29.135 14.4313V26.3992C27.8873 26.0188 26.5894 25.8285 25.285 25.8349C23.679 25.8349 22.3711 26.1077 21.435 26.3992V14.4313C21.589 14.3689 21.7734 14.3026 21.9883 14.2322C23.0548 13.8965 24.167 13.7287 25.285 13.735C26.403 13.7287 27.5152 13.8965 28.5817 14.2322C28.7966 14.3026 28.981 14.3689 29.135 14.4313ZM29.674 14.6821L29.6795 14.6843H29.6784L29.674 14.6821ZM29.6751 28.982L29.6784 28.9842L29.6762 28.982" fill="var(--fill-0, #A2B3CD)"/>
</g>
</svg>
