<svg preserveAspectRatio="none" width="100%" height="100%" overflow="visible" style="display: block;" viewBox="0 0 37.3333 40.6667" fill="none" xmlns="http://www.w3.org/2000/svg">
<g id="Overlay">
<rect width="37.3333" height="40.6667" rx="4" fill="var(--fill-0, #D5E3FF)" fill-opacity="0.3"/>
<path id="Icon" d="M15.3333 25.3333H22V23.6667H15.3333V25.3333V25.3333M15.3333 22H22V20.3333H15.3333V22V22M13.6667 28.6667C13.2083 28.6667 12.816 28.5035 12.4896 28.1771C12.1632 27.8507 12 27.4583 12 27V13.6667C12 13.2083 12.1632 12.816 12.4896 12.4896C12.816 12.1632 13.2083 12 13.6667 12H20.3333L25.3333 17V27C25.3333 27.4583 25.1701 27.8507 24.8438 28.1771C24.5174 28.5035 24.125 28.6667 23.6667 28.6667H13.6667V28.6667M19.5 17.8333V13.6667H13.6667V13.6667V13.6667V27V27V27H23.6667V27V27V17.8333H19.5V17.8333M13.6667 13.6667V13.6667V17.8333V17.8333V13.6667V17.8333V17.8333V27V27V27V27V27V27V13.6667V13.6667V13.6667V13.6667" fill="var(--fill-0, #0075DE)"/>
</g>
</svg>
