<svg preserveAspectRatio="none" width="100%" height="100%" overflow="visible" style="display: block;" viewBox="0 0 16 19.9875" fill="none" xmlns="http://www.w3.org/2000/svg">
<path id="Vector" d="M10.293 0.292786C10.4805 0.105315 10.7348 0 11 0C11.2652 0 11.5195 0.105315 11.707 0.292786L15.707 4.29279C15.8945 4.48031 15.9998 4.73462 15.9998 4.99979C15.9998 5.26495 15.8945 5.51926 15.707 5.70679L11.707 9.70679C11.5184 9.88894 11.2658 9.98974 11.0036 9.98746C10.7414 9.98518 10.4906 9.88001 10.3052 9.6946C10.1198 9.5092 10.0146 9.25838 10.0123 8.99619C10.01 8.73399 10.1108 8.48139 10.293 8.29279L12.586 5.99979H1C0.734784 5.99979 0.48043 5.89443 0.292893 5.70689C0.105357 5.51936 0 5.265 0 4.99979C0 4.73457 0.105357 4.48022 0.292893 4.29268C0.48043 4.10514 0.734784 3.99979 1 3.99979H12.586L10.293 1.70679C10.1055 1.51926 10.0002 1.26495 10.0002 0.999786C10.0002 0.734622 10.1055 0.480314 10.293 0.292786ZM5.707 10.2928C5.89447 10.4803 5.99979 10.7346 5.99979 10.9998C5.99979 11.265 5.89447 11.5193 5.707 11.7068L3.414 13.9998H15C15.2652 13.9998 15.5196 14.1051 15.7071 14.2927C15.8946 14.4802 16 14.7346 16 14.9998C16 15.265 15.8946 15.5194 15.7071 15.7069C15.5196 15.8944 15.2652 15.9998 15 15.9998H3.414L5.707 18.2928C5.88916 18.4814 5.98995 18.734 5.98767 18.9962C5.9854 19.2584 5.88023 19.5092 5.69482 19.6946C5.50941 19.88 5.2586 19.9852 4.9964 19.9875C4.7342 19.9897 4.4816 19.8889 4.293 19.7068L0.293 15.7068C0.105529 15.5193 0.000213623 15.265 0.000213623 14.9998C0.000213623 14.7346 0.105529 14.4803 0.293 14.2928L4.293 10.2928C4.48053 10.1053 4.73484 10 5 10C5.26516 10 5.51947 10.1053 5.707 10.2928Z" fill="var(--fill-0, #0075DE)"/>
</svg>
