<svg preserveAspectRatio="none" width="100%" height="100%" overflow="visible" style="display: block;" viewBox="0 0 21 21" fill="none" xmlns="http://www.w3.org/2000/svg">
<g id="Group">
<path id="Vector" fill-rule="evenodd" clip-rule="evenodd" d="M0 10.5C0 4.70085 4.70085 0 10.5 0C16.2991 0 21 4.70085 21 10.5C21 16.2991 16.2991 21 10.5 21C4.70085 21 0 16.2991 0 10.5ZM10.5 2.1C8.27218 2.1 6.13561 2.985 4.5603 4.5603C2.985 6.13561 2.1 8.27218 2.1 10.5C2.1 12.7278 2.985 14.8644 4.5603 16.4397C6.13561 18.015 8.27218 18.9 10.5 18.9C12.7278 18.9 14.8644 18.015 16.4397 16.4397C18.015 14.8644 18.9 12.7278 18.9 10.5C18.9 8.27218 18.015 6.13561 16.4397 4.5603C14.8644 2.985 12.7278 2.1 10.5 2.1Z" fill="var(--fill-0, #0075DE)"/>
<path id="Vector_2" fill-rule="evenodd" clip-rule="evenodd" d="M11.5502 5.24922C11.5502 4.97074 11.4396 4.70367 11.2427 4.50676C11.0457 4.30984 10.7787 4.19922 10.5002 4.19922C10.2217 4.19922 9.95465 4.30984 9.75773 4.50676C9.56082 4.70367 9.4502 4.97074 9.4502 5.24922V9.44922H5.2502C4.97172 9.44922 4.70465 9.55984 4.50773 9.75676C4.31082 9.95367 4.2002 10.2207 4.2002 10.4992C4.2002 10.7777 4.31082 11.0448 4.50773 11.2417C4.70465 11.4386 4.97172 11.5492 5.2502 11.5492H9.4502V15.7492C9.4502 16.0277 9.56082 16.2948 9.75773 16.4917C9.95465 16.6886 10.2217 16.7992 10.5002 16.7992C10.7787 16.7992 11.0457 16.6886 11.2427 16.4917C11.4396 16.2948 11.5502 16.0277 11.5502 15.7492V11.5492H15.7502C16.0287 11.5492 16.2957 11.4386 16.4927 11.2417C16.6896 11.0448 16.8002 10.7777 16.8002 10.4992C16.8002 10.2207 16.6896 9.95367 16.4927 9.75676C16.2957 9.55984 16.0287 9.44922 15.7502 9.44922H11.5502V5.24922Z" fill="var(--fill-0, #0075DE)"/>
</g>
</svg>
