<svg preserveAspectRatio="none" width="100%" height="100%" overflow="visible" style="display: block;" viewBox="0 0 56.6698 21.0024" fill="none" xmlns="http://www.w3.org/2000/svg">
<g id="Group 1000011115">
<path id="Vector" d="M12.8344 19.693C12.881 20.0429 12.7644 20.4163 12.4961 20.6613C12.3881 20.7694 12.2599 20.8552 12.1188 20.9138C11.9777 20.9723 11.8264 21.0024 11.6736 21.0024C11.5208 21.0024 11.3695 20.9723 11.2283 20.9138C11.0872 20.8552 10.959 20.7694 10.8511 20.6613L6.17284 15.983C6.04567 15.8586 5.94897 15.7064 5.89029 15.5385C5.8316 15.3705 5.81251 15.1913 5.83451 15.0147V9.04149L0.246288 1.88996C0.056834 1.64675 -0.0286511 1.33844 0.00851131 1.0324C0.0456737 0.726355 0.202462 0.447462 0.444617 0.256662C0.666279 0.0933316 0.911275 0 1.16794 0H17.501C17.7576 0 18.0026 0.0933316 18.2243 0.256662C18.4664 0.447462 18.6232 0.726355 18.6604 1.0324C18.6975 1.33844 18.6121 1.64675 18.4226 1.88996L12.8344 9.04149V19.693ZM3.54789 2.33329L8.1678 8.23651V14.6764L10.5011 17.0097V8.22484L15.121 2.33329H3.54789Z" fill="var(--fill-0, #727272)"/>
<path id="Vector_2" d="M43.7492 15.1664C41.6298 15.1664 39.8363 14.4322 38.3686 12.9637C36.901 11.4953 36.1668 9.70181 36.166 7.58319C36.1652 5.46456 36.8994 3.67104 38.3686 2.20262C39.8378 0.734208 41.6314 0 43.7492 0C45.8671 0 47.661 0.734208 49.1309 2.20262C50.6009 3.67104 51.3347 5.46456 51.3324 7.58319C51.3324 8.43873 51.1963 9.24565 50.9241 10.004C50.6518 10.7623 50.2824 11.4331 49.8158 12.0164L56.349 18.5496C56.5628 18.7635 56.6698 19.0357 56.6698 19.3663C56.6698 19.6968 56.5628 19.9691 56.349 20.1829C56.1351 20.3968 55.8629 20.5038 55.5323 20.5038C55.2018 20.5038 54.9295 20.3968 54.7157 20.1829L48.1825 13.6497C47.5991 14.1164 46.9283 14.4858 46.17 14.758C45.4117 15.0303 44.6047 15.1664 43.7492 15.1664ZM43.7492 12.8331C45.2075 12.8331 46.4473 12.3229 47.4685 11.3024C48.4897 10.282 48.9999 9.04227 48.9991 7.58319C48.9983 6.1241 48.4881 4.88474 47.4685 3.86509C46.4488 2.84545 45.2091 2.33484 43.7492 2.33329C42.2893 2.33173 41.05 2.84233 40.0311 3.86509C39.0122 4.88785 38.5016 6.12721 38.4993 7.58319C38.497 9.03916 39.0076 10.2789 40.0311 11.3024C41.0546 12.326 42.294 12.8362 43.7492 12.8331Z" fill="var(--fill-0, #727272)"/>
</g>
</svg>
