<svg preserveAspectRatio="none" width="100%" height="100%" overflow="visible" style="display: block;" viewBox="0 0 32 32" fill="none" xmlns="http://www.w3.org/2000/svg">
<g id="Overlay">
<rect width="32" height="32" rx="3.14728" fill="var(--fill-0, #D5E3FF)" fill-opacity="0.3"/>
<path id="Vector" d="M9.07598 11.3548C9.19715 11.3058 9.34226 11.2535 9.51133 11.1982C10.3504 10.934 11.2255 10.802 12.1052 10.8069C12.9849 10.802 13.86 10.934 14.6991 11.1982C14.8682 11.2535 15.0133 11.3058 15.1345 11.3548V20.7715C14.1528 20.4721 13.1316 20.3224 12.1052 20.3275C10.8416 20.3275 9.81252 20.5421 9.07598 20.7715V11.3548ZM16 9.84191C15.7491 9.73122 15.4926 9.63386 15.2314 9.55023C14.2203 9.2308 13.1656 9.07079 12.1052 9.07594C10.7845 9.07594 9.72078 9.31049 8.97904 9.55023C8.68381 9.64512 8.3945 9.75754 8.11267 9.88691C8.00798 9.9354 7.90492 9.98736 7.80369 10.0427L7.78205 10.0548L7.77426 10.0592L7.77166 10.0609C7.76993 10.0626 7.55702 10.1881 7.76907 10.0626C7.63987 10.1392 7.53283 10.2481 7.45847 10.3786C7.38411 10.5091 7.345 10.6567 7.34497 10.8069V22.0585C7.345 22.2112 7.38546 22.3613 7.46224 22.4933C7.53902 22.6254 7.64939 22.7348 7.78214 22.8104C7.91488 22.886 8.06527 22.9251 8.21803 22.9238C8.37079 22.9225 8.52048 22.8807 8.65188 22.8028L8.64755 22.8054L8.65015 22.8045L8.65102 22.8037L8.68304 22.7864C8.71535 22.7691 8.76786 22.7431 8.84056 22.7085C8.9877 22.641 9.21273 22.5458 9.51133 22.4488C10.3505 22.185 11.2256 22.0533 12.1052 22.0585C12.9849 22.0533 13.86 22.185 14.6991 22.4488C14.9277 22.522 15.1517 22.6087 15.3699 22.7085C15.4352 22.7388 15.4996 22.7711 15.5629 22.8054M15.5629 22.8054L15.5612 22.8045L15.5603 22.8037C15.8321 22.9638 16.1696 22.9638 16.4414 22.8037L16.4734 22.7864C16.5057 22.7691 16.5582 22.7431 16.631 22.7085C16.8492 22.6087 17.0732 22.522 17.3017 22.4488C18.1406 22.1851 19.0154 22.0534 19.8948 22.0585C20.7744 22.0533 21.6495 22.185 22.4887 22.4488C22.7172 22.522 22.9412 22.6087 23.1594 22.7085C23.2236 22.7383 23.2868 22.77 23.349 22.8037C23.4804 22.8814 23.6301 22.923 23.7828 22.9242C23.9355 22.9253 24.0858 22.8861 24.2185 22.8104C24.3511 22.7347 24.4613 22.6253 24.538 22.4933C24.6147 22.3612 24.6551 22.2112 24.655 22.0585V10.8069C24.655 10.6567 24.6159 10.5091 24.5415 10.3786C24.4672 10.2481 24.3601 10.1392 24.2309 10.0626L24.2292 10.0617L24.2257 10.0592L24.2171 10.0548L24.1963 10.0427C24.0951 9.98736 23.992 9.9354 23.8873 9.88691C23.6058 9.75757 23.3168 9.64515 23.0218 9.55023C22.0104 9.23071 20.9554 9.0707 19.8948 9.07594C18.5749 9.07594 17.5103 9.31049 16.7686 9.55023C16.5074 9.63386 16.2509 9.73122 16 9.84191M22.924 11.3548V20.7715C21.9423 20.4721 20.9211 20.3224 19.8948 20.3275C18.6311 20.3275 17.602 20.5421 16.8655 20.7715V11.3548C16.9867 11.3058 17.1318 11.2535 17.3009 11.1982C18.14 10.934 19.0151 10.802 19.8948 10.8069C20.7745 10.802 21.6496 10.934 22.4887 11.1982C22.6577 11.2535 22.8029 11.3058 22.924 11.3548ZM23.3481 11.5521L23.3524 11.5539H23.3516L23.3481 11.5521ZM23.349 22.8037L23.3516 22.8054L23.3499 22.8037" fill="var(--fill-0, #A2B3CD)"/>
</g>
</svg>
