<svg preserveAspectRatio="none" width="100%" height="100%" overflow="visible" style="display: block;" viewBox="0 0 40.67 40.67" fill="none" xmlns="http://www.w3.org/2000/svg">
<g id="Overlay">
<rect width="40.67" height="40.67" rx="4" fill="var(--fill-0, #2ECC71)" fill-opacity="0.2"/>
<path id="Vector" d="M14 32C13.45 32 12.9793 31.8043 12.588 31.413C12.1967 31.0217 12.0007 30.5507 12 30V14C12 13.45 12.196 12.9793 12.588 12.588C12.98 12.1967 13.4507 12.0007 14 12H26C26.55 12 27.021 12.196 27.413 12.588C27.805 12.98 28.0007 13.4507 28 14V30C28 30.55 27.8043 31.021 27.413 31.413C27.0217 31.805 26.5507 32.0007 26 32H14ZM14 30H26V14H24V21L21.5 19.5L19 21V14H14V30Z" fill="var(--fill-0, #2ECC71)"/>
</g>
</svg>
