<svg preserveAspectRatio="none" width="100%" height="100%" overflow="visible" style="display: block;" viewBox="0 0 239 36.7167" fill="none" xmlns="http://www.w3.org/2000/svg">
<g id="Group 1">
<g id="Coral Keepers">
<path id="Vector" d="M239 22.5448C239 23.3408 238.885 24.0478 238.654 24.6657C238.424 25.2837 238.11 25.8231 237.712 26.2839C237.314 26.7343 236.842 27.1166 236.298 27.4308C235.753 27.7346 235.167 27.9807 234.538 28.1692C233.92 28.3577 233.271 28.4939 232.59 28.5777C231.909 28.6615 231.234 28.7034 230.563 28.7034C229.663 28.7034 228.867 28.6458 228.175 28.5306C227.484 28.4154 226.824 28.2321 226.196 27.9807C225.567 27.7188 224.939 27.3837 224.31 26.9752C223.692 26.5667 223.001 26.0692 222.237 25.4827L225.332 22.9532C225.614 23.4874 225.986 23.9744 226.447 24.4143C226.918 24.8438 227.405 25.2156 227.908 25.5298C228.411 25.844 228.898 26.0849 229.369 26.2525C229.841 26.4201 230.223 26.5039 230.516 26.5039C230.757 26.5039 231.029 26.4986 231.333 26.4882C231.637 26.4672 231.946 26.4358 232.26 26.3939C232.574 26.3415 232.883 26.2682 233.187 26.174C233.491 26.0797 233.758 25.954 233.988 25.7969C234.229 25.6293 234.418 25.4251 234.554 25.1842C234.7 24.9328 234.774 24.6343 234.774 24.2887C234.774 23.9325 234.68 23.6236 234.491 23.3617C234.313 23.0894 234.077 22.8537 233.784 22.6547C233.491 22.4557 233.156 22.2882 232.779 22.152C232.401 22.0158 232.019 21.8954 231.632 21.7906C231.255 21.6859 230.888 21.5969 230.532 21.5236C230.176 21.4398 229.867 21.3612 229.605 21.2879C229.123 21.1517 228.615 21.0156 228.081 20.8794C227.547 20.7328 227.018 20.5704 226.494 20.3924C225.971 20.2039 225.468 19.9839 224.986 19.7325C224.515 19.4812 224.096 19.1827 223.729 18.837C223.373 18.4809 223.085 18.0672 222.865 17.5959C222.656 17.1141 222.551 16.5537 222.551 15.9148C222.551 14.7417 222.781 13.7624 223.242 12.9769C223.713 12.1809 224.331 11.5472 225.096 11.0759C225.861 10.5941 226.73 10.2537 227.704 10.0547C228.678 9.85569 229.668 9.75619 230.673 9.75619C231.365 9.75619 232.092 9.8295 232.857 9.97614C233.622 10.1123 234.365 10.3218 235.088 10.6046C235.811 10.8769 236.486 11.2121 237.115 11.6101C237.743 12.0081 238.267 12.4637 238.686 12.9769L235.591 15.522C235.36 14.8936 235.057 14.3542 234.68 13.9038C234.313 13.4535 233.91 13.0869 233.47 12.8041C233.04 12.5108 232.595 12.2961 232.134 12.1599C231.684 12.0238 231.265 11.9557 230.878 11.9557C230.5 11.9557 230.076 11.9714 229.605 12.0028C229.134 12.0342 228.688 12.1233 228.27 12.2699C227.861 12.4165 227.51 12.6417 227.217 12.9455C226.934 13.2387 226.793 13.6472 226.793 14.1709C226.793 14.548 226.877 14.8727 227.044 15.145C227.222 15.4068 227.453 15.6373 227.735 15.8363C228.018 16.0248 228.338 16.1871 228.694 16.3233C229.06 16.449 229.432 16.5642 229.809 16.6689C230.186 16.7632 230.553 16.847 230.909 16.9203C231.265 16.9936 231.585 17.0722 231.867 17.156C232.349 17.2921 232.857 17.4335 233.391 17.5802C233.936 17.7163 234.47 17.8787 234.994 18.0672C235.517 18.2452 236.02 18.46 236.502 18.7113C236.994 18.9522 237.424 19.2507 237.79 19.6068C238.157 19.963 238.45 20.3819 238.67 20.8637C238.89 21.335 239 21.8954 239 22.5448Z" fill="var(--fill-0, #003C78)"/>
<path id="Vector_2" d="M190.61 19.7325C191.259 19.8792 191.908 19.9944 192.558 20.0782C193.207 20.162 193.862 20.2039 194.521 20.2039C195.213 20.2039 195.852 20.141 196.438 20.0153C197.035 19.8792 197.548 19.6592 197.978 19.3555C198.418 19.0413 198.763 18.6275 199.015 18.1143C199.266 17.6011 199.392 16.9622 199.392 16.1976C199.392 15.5796 199.308 15.0141 199.14 14.5008C198.973 13.9876 198.721 13.5477 198.386 13.1811C198.062 12.8146 197.658 12.5318 197.177 12.3328C196.695 12.1233 196.134 12.0185 195.496 12.0185C194.899 12.0185 194.359 12.1285 193.877 12.3485C193.406 12.5684 192.987 12.8669 192.62 13.244C192.264 13.6106 191.955 14.04 191.694 14.5323C191.442 15.0245 191.233 15.5378 191.065 16.0719C190.898 16.6061 190.777 17.1455 190.704 17.6901C190.63 18.2348 190.594 18.748 190.594 19.2298C190.594 19.3136 190.594 19.3974 190.594 19.4812C190.594 19.5649 190.599 19.6487 190.61 19.7325ZM203.697 16.1505C203.697 16.8941 203.576 17.5592 203.335 18.1457C203.094 18.7218 202.764 19.2298 202.345 19.6697C201.937 20.1096 201.46 20.4814 200.916 20.7852C200.371 21.0889 199.79 21.3403 199.172 21.5393C198.554 21.7278 197.915 21.864 197.255 21.9478C196.606 22.0315 195.972 22.0734 195.354 22.0734C194.569 22.0734 193.794 22.0211 193.029 21.9163C192.264 21.8011 191.51 21.6231 190.767 21.3822C190.882 22.0734 191.065 22.7333 191.316 23.3617C191.568 23.9797 191.903 24.5243 192.322 24.9956C192.741 25.4565 193.254 25.8231 193.862 26.0954C194.48 26.3677 195.208 26.5039 196.045 26.5039C196.601 26.5039 197.129 26.4201 197.632 26.2525C198.135 26.0849 198.596 25.8493 199.015 25.5455C199.434 25.2418 199.8 24.8804 200.115 24.4615C200.439 24.0425 200.701 23.5764 200.9 23.0632L203.194 23.9116C202.848 24.739 202.372 25.4565 201.764 26.064C201.167 26.661 200.486 27.1585 199.722 27.5565C198.968 27.944 198.161 28.2321 197.302 28.4206C196.454 28.6091 195.611 28.7034 194.773 28.7034C193.39 28.7034 192.112 28.473 190.939 28.0121C189.766 27.5408 188.756 26.8862 187.907 26.0483C187.059 25.2104 186.394 24.2101 185.912 23.0475C185.43 21.8849 185.189 20.6123 185.189 19.2298C185.189 17.8472 185.43 16.5747 185.912 15.4121C186.394 14.2495 187.059 13.2492 187.907 12.4113C188.756 11.5734 189.766 10.924 190.939 10.4632C192.112 9.99185 193.39 9.75619 194.773 9.75619C195.443 9.75619 196.129 9.80332 196.831 9.89758C197.533 9.99185 198.214 10.1437 198.873 10.3532C199.533 10.5522 200.156 10.814 200.743 11.1387C201.329 11.4634 201.837 11.8667 202.267 12.3485C202.707 12.8198 203.052 13.3697 203.304 13.9981C203.566 14.6265 203.697 15.344 203.697 16.1505Z" fill="var(--fill-0, #003C78)"/>
<path id="Vector_3" d="M148.409 19.7325C149.058 19.8792 149.708 19.9944 150.357 20.0782C151.007 20.162 151.661 20.2039 152.321 20.2039C153.012 20.2039 153.651 20.141 154.238 20.0153C154.835 19.8792 155.348 19.6592 155.777 19.3555C156.217 19.0413 156.563 18.6275 156.814 18.1143C157.066 17.6011 157.191 16.9622 157.191 16.1976C157.191 15.5796 157.108 15.0141 156.94 14.5008C156.772 13.9876 156.521 13.5477 156.186 13.1811C155.861 12.8146 155.458 12.5318 154.976 12.3328C154.494 12.1233 153.934 12.0185 153.295 12.0185C152.698 12.0185 152.159 12.1285 151.677 12.3485C151.206 12.5684 150.787 12.8669 150.42 13.244C150.064 13.6106 149.755 14.04 149.493 14.5323C149.242 15.0245 149.032 15.5378 148.865 16.0719C148.697 16.6061 148.577 17.1455 148.503 17.6901C148.43 18.2348 148.393 18.748 148.393 19.2298C148.393 19.3136 148.393 19.3974 148.393 19.4812C148.393 19.5649 148.399 19.6487 148.409 19.7325ZM161.496 16.1505C161.496 16.8941 161.376 17.5592 161.135 18.1457C160.894 18.7218 160.564 19.2298 160.145 19.6697C159.737 20.1096 159.26 20.4814 158.715 20.7852C158.171 21.0889 157.589 21.3403 156.971 21.5393C156.353 21.7278 155.715 21.864 155.055 21.9478C154.405 22.0315 153.772 22.0734 153.154 22.0734C152.368 22.0734 151.593 22.0211 150.829 21.9163C150.064 21.8011 149.31 21.6231 148.566 21.3822C148.681 22.0734 148.865 22.7333 149.116 23.3617C149.367 23.9797 149.703 24.5243 150.122 24.9956C150.54 25.4565 151.054 25.8231 151.661 26.0954C152.279 26.3677 153.007 26.5039 153.845 26.5039C154.4 26.5039 154.929 26.4201 155.432 26.2525C155.935 26.0849 156.395 25.8493 156.814 25.5455C157.233 25.2418 157.6 24.8804 157.914 24.4615C158.239 24.0425 158.501 23.5764 158.7 23.0632L160.993 23.9116C160.648 24.739 160.171 25.4565 159.564 26.064C158.967 26.661 158.286 27.1585 157.521 27.5565C156.767 27.944 155.961 28.2321 155.102 28.4206C154.253 28.6091 153.41 28.7034 152.572 28.7034C151.19 28.7034 149.912 28.473 148.739 28.0121C147.566 27.5408 146.555 26.8862 145.707 26.0483C144.858 25.2104 144.193 24.2101 143.712 23.0475C143.23 21.8849 142.989 20.6123 142.989 19.2298C142.989 17.8472 143.23 16.5747 143.712 15.4121C144.193 14.2495 144.858 13.2492 145.707 12.4113C146.555 11.5734 147.566 10.924 148.739 10.4632C149.912 9.99185 151.19 9.75619 152.572 9.75619C153.243 9.75619 153.929 9.80332 154.631 9.89758C155.332 9.99185 156.013 10.1437 156.673 10.3532C157.333 10.5522 157.956 10.814 158.543 11.1387C159.129 11.4634 159.637 11.8667 160.066 12.3485C160.506 12.8198 160.852 13.3697 161.103 13.9981C161.365 14.6265 161.496 15.344 161.496 16.1505Z" fill="var(--fill-0, #003C78)"/>
<path id="Vector_4" d="M128.283 19.7325C128.932 19.8792 129.582 19.9944 130.231 20.0782C130.88 20.162 131.535 20.2039 132.195 20.2039C132.886 20.2039 133.525 20.141 134.112 20.0153C134.709 19.8792 135.222 19.6592 135.651 19.3555C136.091 19.0413 136.437 18.6275 136.688 18.1143C136.94 17.6011 137.065 16.9622 137.065 16.1976C137.065 15.5796 136.981 15.0141 136.814 14.5008C136.646 13.9876 136.395 13.5477 136.06 13.1811C135.735 12.8146 135.332 12.5318 134.85 12.3328C134.368 12.1233 133.808 12.0185 133.169 12.0185C132.572 12.0185 132.033 12.1285 131.551 12.3485C131.079 12.5684 130.66 12.8669 130.294 13.244C129.938 13.6106 129.629 14.04 129.367 14.5323C129.116 15.0245 128.906 15.5378 128.738 16.0719C128.571 16.6061 128.45 17.1455 128.377 17.6901C128.304 18.2348 128.267 18.748 128.267 19.2298C128.267 19.3136 128.267 19.3974 128.267 19.4812C128.267 19.5649 128.272 19.6487 128.283 19.7325ZM141.37 16.1505C141.37 16.8941 141.25 17.5592 141.009 18.1457C140.768 18.7218 140.438 19.2298 140.019 19.6697C139.61 20.1096 139.134 20.4814 138.589 20.7852C138.045 21.0889 137.463 21.3403 136.845 21.5393C136.227 21.7278 135.588 21.864 134.929 21.9478C134.279 22.0315 133.645 22.0734 133.028 22.0734C132.242 22.0734 131.467 22.0211 130.702 21.9163C129.938 21.8011 129.184 21.6231 128.44 21.3822C128.555 22.0734 128.738 22.7333 128.99 23.3617C129.241 23.9797 129.576 24.5243 129.995 24.9956C130.414 25.4565 130.928 25.8231 131.535 26.0954C132.153 26.3677 132.881 26.5039 133.719 26.5039C134.274 26.5039 134.803 26.4201 135.306 26.2525C135.808 26.0849 136.269 25.8493 136.688 25.5455C137.107 25.2418 137.474 24.8804 137.788 24.4615C138.113 24.0425 138.374 23.5764 138.573 23.0632L140.867 23.9116C140.522 24.739 140.045 25.4565 139.438 26.064C138.841 26.661 138.16 27.1585 137.395 27.5565C136.641 27.944 135.835 28.2321 134.976 28.4206C134.127 28.6091 133.284 28.7034 132.446 28.7034C131.064 28.7034 129.786 28.473 128.613 28.0121C127.44 27.5408 126.429 26.8862 125.581 26.0483C124.732 25.2104 124.067 24.2101 123.585 23.0475C123.104 21.8849 122.863 20.6123 122.863 19.2298C122.863 17.8472 123.104 16.5747 123.585 15.4121C124.067 14.2495 124.732 13.2492 125.581 12.4113C126.429 11.5734 127.44 10.924 128.613 10.4632C129.786 9.99185 131.064 9.75619 132.446 9.75619C133.117 9.75619 133.803 9.80332 134.504 9.89758C135.206 9.99185 135.887 10.1437 136.547 10.3532C137.207 10.5522 137.83 10.814 138.416 11.1387C139.003 11.4634 139.511 11.8667 139.94 12.3485C140.38 12.8198 140.726 13.3697 140.977 13.9981C141.239 14.6265 141.37 15.344 141.37 16.1505Z" fill="var(--fill-0, #003C78)"/>
<path id="Union" d="M126.869 0.000132737C129.019 0.000602718 127.282 3.23187 125.664 3.95716C123.17 5.07555 121.099 8.9957 121.966 8.42982C126.18 5.67742 126.524 8.17148 124.374 8.77357C119.982 10.0033 116.702 13.7005 114.996 15.9923L123.742 28.3419H117.238L110.434 18.7277C110.236 18.8637 110.037 18.9947 109.838 19.1202C109.649 19.2459 109.45 19.3716 109.241 19.4972V28.3419H103.004V5.71888H109.241V16.4962C111.168 15.0195 112.964 13.3806 114.63 11.5792C116.062 10.0392 117.321 8.38306 118.409 6.61341C118.419 6.58808 118.429 6.56267 118.439 6.53724C118.955 5.64834 120.004 3.52663 120.073 2.15052C120.159 0.430591 122.31 0.172647 121.708 2.23646C121.106 4.30061 121.707 4.64495 122.223 4.12904C122.74 3.61296 124.977 0.000131922 126.869 0.000132737ZM114.708 15.5851L114.709 15.587C114.71 15.5848 114.711 15.5825 114.712 15.5802C114.71 15.5815 114.709 15.5838 114.708 15.5851Z" fill="var(--fill-0, #003C78)"/>
<path id="Vector_5" d="M81.2895 28.342H75.9792V26.174C75.3508 27.0328 74.5914 27.6717 73.7012 28.0907C72.8213 28.4991 71.8525 28.7034 70.7947 28.7034C69.4121 28.7034 68.1762 28.4573 67.0869 27.965C65.9976 27.4727 65.0759 26.8024 64.3218 25.954C63.5677 25.0951 62.9916 24.0897 62.5936 22.9375C62.1956 21.7854 61.9966 20.5495 61.9966 19.2298C61.9966 17.9101 62.1956 16.6742 62.5936 15.522C62.9916 14.3699 63.5677 13.3697 64.3218 12.5213C65.0759 11.6624 65.9976 10.9869 67.0869 10.4946C68.1762 10.0023 69.4121 9.75619 70.7947 9.75619C71.4964 9.75619 72.1615 9.86093 72.7899 10.0704C73.4288 10.2799 74.0101 10.5784 74.5338 10.9659C75.068 11.343 75.5341 11.8038 75.9321 12.3485C76.3406 12.8826 76.66 13.4796 76.8904 14.1395L79.2471 10.1961H81.2895V28.342ZM75.9478 19.2298C75.9478 18.7585 75.9216 18.261 75.8692 17.7373C75.8273 17.2136 75.7488 16.6951 75.6336 16.1819C75.5184 15.6687 75.356 15.1816 75.1465 14.7208C74.9475 14.2495 74.6857 13.8358 74.361 13.4796C74.0468 13.1131 73.6645 12.825 73.2141 12.6155C72.7637 12.4061 72.24 12.3013 71.643 12.3013C71.046 12.3013 70.5276 12.4113 70.0877 12.6313C69.6478 12.8407 69.2707 13.1288 68.9565 13.4954C68.6423 13.8515 68.3804 14.2652 68.171 14.7365C67.972 15.2078 67.8148 15.7001 67.6996 16.2133C67.5844 16.7265 67.5006 17.245 67.4483 17.7687C67.4064 18.2819 67.3854 18.7689 67.3854 19.2298C67.3854 19.6906 67.4064 20.1829 67.4483 20.7066C67.5006 21.2303 67.5844 21.7487 67.6996 22.262C67.8148 22.7752 67.972 23.2675 68.171 23.7388C68.3804 24.2101 68.6423 24.6291 68.9565 24.9956C69.2707 25.3518 69.6478 25.6398 70.0877 25.8597C70.5276 26.0692 71.046 26.174 71.643 26.174C72.1877 26.174 72.6695 26.064 73.0884 25.844C73.5179 25.6136 73.8897 25.3099 74.2039 24.9328C74.5286 24.5557 74.8009 24.1263 75.0209 23.6445C75.2408 23.1627 75.4189 22.6652 75.555 22.152C75.6912 21.6388 75.7907 21.1308 75.8535 20.628C75.9164 20.1148 75.9478 19.6487 75.9478 19.2298Z" fill="var(--fill-0, #003C78)"/>
<path id="Vector_6" d="M43.6609 19.2298C43.6609 20.1724 43.5352 21.0575 43.2838 21.8849C43.0325 22.7123 42.6816 23.4769 42.2312 24.1787C41.7913 24.8804 41.2571 25.5141 40.6287 26.0797C40.0003 26.6348 39.309 27.1061 38.5549 27.4937C37.8112 27.8812 37.01 28.1797 36.1511 28.3892C35.3028 28.5986 34.4282 28.7034 33.5274 28.7034C32.6267 28.7034 31.7521 28.5986 30.9037 28.3892C30.0554 28.1797 29.2541 27.8812 28.5 27.4937C27.7563 27.1061 27.0703 26.6348 26.4419 26.0797C25.8134 25.5141 25.274 24.8804 24.8237 24.1787C24.3838 23.4769 24.0381 22.7123 23.7868 21.8849C23.5354 21.047 23.4097 20.162 23.4097 19.2298C23.4097 18.2976 23.5354 17.4178 23.7868 16.5904C24.0381 15.7525 24.3838 14.9826 24.8237 14.2809C25.274 13.5791 25.8134 12.9507 26.4419 12.3956C27.0703 11.83 27.7563 11.3534 28.5 10.9659C29.2541 10.5784 30.0554 10.2799 30.9037 10.0704C31.7521 9.86093 32.6267 9.75619 33.5274 9.75619C34.4282 9.75619 35.3028 9.86093 36.1511 10.0704C37.01 10.2799 37.8112 10.5784 38.5549 10.9659C39.309 11.3534 40.0003 11.83 40.6287 12.3956C41.2571 12.9507 41.7913 13.5791 42.2312 14.2809C42.6816 14.9826 43.0325 15.7525 43.2838 16.5904C43.5352 17.4178 43.6609 18.2976 43.6609 19.2298ZM38.2564 19.2298C38.2564 18.727 38.225 18.1981 38.1621 17.643C38.1098 17.0774 38.0155 16.5275 37.8793 15.9934C37.7432 15.4487 37.5546 14.9303 37.3137 14.438C37.0833 13.9353 36.7953 13.5006 36.4496 13.134C36.104 12.7569 35.6903 12.4584 35.2085 12.2385C34.7267 12.0081 34.1663 11.8929 33.5274 11.8929C32.92 11.8929 32.3806 12.0081 31.9092 12.2385C31.4379 12.4689 31.0242 12.7779 30.6681 13.1654C30.3224 13.5425 30.0292 13.9824 29.7883 14.4851C29.5579 14.9879 29.3693 15.5116 29.2227 16.0562C29.0761 16.5904 28.9713 17.135 28.9085 17.6901C28.8456 18.2348 28.8142 18.748 28.8142 19.2298C28.8142 19.7116 28.8456 20.23 28.9085 20.7852C28.9713 21.3298 29.0761 21.8744 29.2227 22.4191C29.3693 22.9637 29.5579 23.4874 29.7883 23.9902C30.0292 24.4824 30.3224 24.9223 30.6681 25.3099C31.0242 25.6869 31.4379 25.9907 31.9092 26.2211C32.3806 26.4515 32.92 26.5667 33.5274 26.5667C34.1559 26.5667 34.711 26.4567 35.1928 26.2368C35.6746 26.0064 36.0883 25.7026 36.4339 25.3256C36.79 24.9485 37.0833 24.5138 37.3137 24.0216C37.5442 23.5293 37.7275 23.0108 37.8636 22.4662C38.0102 21.9216 38.1098 21.3717 38.1621 20.8166C38.225 20.2615 38.2564 19.7325 38.2564 19.2298Z" fill="var(--fill-0, #003C78)"/>
<path id="Vector_7" d="M21.838 11.3271L19.1514 12.4583C18.942 11.7775 18.6592 11.1543 18.3031 10.5887C17.9574 10.0231 17.5385 9.54129 17.0462 9.14329C16.5644 8.73481 16.0145 8.42059 15.3966 8.20064C14.7786 7.97022 14.103 7.855 13.3699 7.855C12.5843 7.855 11.8616 7.98593 11.2018 8.24777C10.5524 8.49915 9.96587 8.85002 9.44218 9.3004C8.92896 9.75077 8.47858 10.2745 8.09105 10.8715C7.70352 11.4685 7.37883 12.1074 7.11698 12.7882C6.85514 13.4585 6.66137 14.155 6.53568 14.8777C6.41 15.6004 6.34715 16.3074 6.34715 16.9987C6.34715 18.0984 6.47284 19.193 6.72421 20.2822C6.98606 21.3715 7.39454 22.3508 7.94965 23.2201C8.51524 24.0895 9.24318 24.7965 10.1335 25.3411C11.0237 25.8753 12.1025 26.1424 13.3699 26.1424C14.0402 26.1424 14.6739 26.0324 15.2709 25.8124C15.8679 25.582 16.4073 25.273 16.8891 24.8855C17.3814 24.4875 17.8108 24.0214 18.1774 23.4872C18.544 22.9531 18.8372 22.377 19.0572 21.759L21.7751 22.8431C21.3771 23.8381 20.8325 24.7127 20.1412 25.4668C19.4499 26.2104 18.6592 26.8284 17.7689 27.3207C16.8891 27.8129 15.9412 28.1795 14.9252 28.4204C13.9198 28.6718 12.9038 28.7975 11.8773 28.7975C10.7671 28.7975 9.69879 28.6613 8.67235 28.389C7.65639 28.1167 6.7085 27.7291 5.8287 27.2264C4.9489 26.7236 4.14765 26.1162 3.42495 25.4039C2.71273 24.6917 2.10001 23.9009 1.58679 23.0316C1.08404 22.1623 0.691274 21.2196 0.40848 20.2037C0.13616 19.1772 0 18.1089 0 16.9987C0 15.8884 0.13616 14.8254 0.40848 13.8094C0.691274 12.783 1.08404 11.8351 1.58679 10.9657C2.10001 10.0859 2.71273 9.28992 3.42495 8.5777C4.14765 7.86548 4.9489 7.25799 5.8287 6.75525C6.7085 6.2525 7.65639 5.86497 8.67235 5.59265C9.69879 5.32033 10.7671 5.18417 11.8773 5.18417C12.9457 5.18417 13.9878 5.30986 15.0038 5.56123C16.0302 5.8126 16.9834 6.1949 17.8632 6.70812C18.743 7.21086 19.5233 7.84977 20.2041 8.62483C20.8953 9.38942 21.44 10.2902 21.838 11.3271Z" fill="var(--fill-0, #003C78)"/>
</g>
<path id="Subtract" d="M216.658 9.75674C217.067 9.75674 217.523 9.79378 218.025 9.86709C218.528 9.92992 219.02 10.0453 219.502 10.2128C219.984 10.3699 220.429 10.5789 220.838 10.8407C221.246 11.1026 221.565 11.4227 221.796 11.7997L218.811 16.748C218.685 16.3293 218.523 15.8581 218.324 15.3349C218.125 14.8112 217.879 14.3233 217.586 13.873C217.293 13.4122 216.942 13.0302 216.533 12.7265C216.125 12.4123 215.653 12.2548 215.119 12.2548C214.627 12.2548 214.198 12.3806 213.831 12.6317C213.475 12.8831 213.171 13.2136 212.92 13.622C212.669 14.02 212.459 14.4759 212.291 14.9892C212.134 15.4917 212.008 16.0047 211.914 16.5282C211.83 17.0414 211.773 17.5396 211.741 18.0214C211.71 18.4923 211.694 18.9005 211.694 19.246V28.3427H206.368V10.1972H208.41L210.562 14.4228C210.856 13.7421 211.191 13.1191 211.568 12.5536C211.945 11.9777 212.38 11.4855 212.872 11.0771C213.364 10.6581 213.92 10.3329 214.538 10.1024C215.166 9.87217 215.873 9.75678 216.658 9.75674Z" fill="var(--fill-0, #003C78)"/>
<path id="Subtract_2" d="M85.0923 4.93621C85.1665 3.48785 85.4593 2.06392 86.6147 2.66668C88.5928 3.6987 85.9272 7.74066 87.2163 8.17156C88.5065 8.60162 87.3029 4.90353 88.7651 5.4196C89.9347 5.83269 90.3416 8.40167 90.3989 9.63445L90.4028 9.62273V28.3434H85.0923V4.93621Z" fill="var(--fill-0, #003C78)"/>
<path id="Vector 138" d="M47.2481 9.46516C46.2847 9.53397 46.3608 10.3253 46.3608 10.6693L48.5971 10.5793C48.3391 10.0633 48.2114 9.39635 47.2481 9.46516Z" fill="var(--fill-0, #003C78)"/>
<path id="Vector 139" d="M165.001 9.29487C164.037 9.36368 164.113 10.155 164.113 10.499L166.35 10.409C166.092 9.89297 165.964 9.22606 165.001 9.29487Z" fill="var(--fill-0, #003C78)"/>
<path id="Vector 140" d="M207.147 9.29487C206.183 9.36368 206.344 10.1501 206.344 10.4941L208.496 10.409C208.238 9.89297 208.11 9.22606 207.147 9.29487Z" fill="var(--fill-0, #003C78)"/>
<path id="Subtract_3" d="M56.6704 9.75674C57.0787 9.75677 57.5341 9.79382 58.0366 9.86709C58.5392 9.92992 59.0315 10.0453 59.5132 10.2128C59.9949 10.3699 60.4407 10.5789 60.8491 10.8407C61.2576 11.1026 61.5767 11.4227 61.8071 11.7997L58.8228 16.748C58.6971 16.3292 58.5343 15.8583 58.3355 15.3349C58.1365 14.8112 57.8904 14.3233 57.5972 13.873C57.3039 13.4122 56.9528 13.0302 56.5444 12.7265C56.136 12.4123 55.6645 12.2548 55.1304 12.2548C54.6383 12.2548 54.2088 12.3805 53.8423 12.6317C53.4862 12.8831 53.1825 13.2136 52.9312 13.622C52.6798 14.02 52.4698 14.4759 52.3023 14.9892C52.1452 15.4917 52.0195 16.0047 51.9253 16.5282C51.8415 17.0414 51.7839 17.5396 51.7524 18.0214C51.7211 18.4923 51.7056 18.9006 51.7056 19.246V28.3427H46.3794V10.1972H48.4214L50.5747 14.4228C50.8679 13.7422 51.2027 13.119 51.5796 12.5536C51.9566 11.9777 52.3912 11.4855 52.8833 11.0771C53.3756 10.6581 53.9314 10.3329 54.5493 10.1024C55.1777 9.8721 55.885 9.75674 56.6704 9.75674Z" fill="var(--fill-0, #003C78)"/>
<path id="Subtract_4" d="M174.663 9.75674C176.045 9.75677 177.281 10.0038 178.371 10.496C179.46 10.9882 180.381 11.6637 181.135 12.5224C181.889 13.3707 182.466 14.3713 182.864 15.5233C183.262 16.6752 183.46 17.911 183.461 19.2304C183.461 20.55 183.262 21.7863 182.864 22.9384C182.466 24.0905 181.889 25.0961 181.135 25.955C180.381 26.8032 179.46 27.4735 178.371 27.9657C177.281 28.458 176.045 28.704 174.663 28.704C173.605 28.704 172.63 28.5002 171.74 28.0917C170.86 27.6727 170.106 27.0335 169.478 26.1747V36.7167H164.168V10.1972H166.211L168.567 14.1405C168.797 13.4807 169.111 12.8837 169.509 12.3495C169.918 11.8049 170.384 11.3438 170.908 10.9667C171.442 10.5792 172.024 10.2806 172.652 10.0712C173.291 9.86182 173.961 9.75674 174.663 9.75674ZM173.814 12.3026C173.207 12.3026 172.677 12.4066 172.227 12.6161C171.787 12.8255 171.405 13.1139 171.081 13.4804C170.766 13.8365 170.504 14.2503 170.294 14.7216C170.096 15.1823 169.939 15.6694 169.824 16.1825C169.709 16.6957 169.624 17.2145 169.572 17.7382C169.53 18.2617 169.509 18.7592 169.509 19.2304C169.509 19.6493 169.541 20.1156 169.604 20.6288C169.667 21.1316 169.766 21.64 169.902 22.1532C170.038 22.6663 170.216 23.1637 170.436 23.6454C170.656 24.1272 170.924 24.5564 171.238 24.9335C171.563 25.3105 171.934 25.6142 172.353 25.8446C172.783 26.0646 173.269 26.1747 173.814 26.1747C174.411 26.1747 174.93 26.0697 175.37 25.8603C175.809 25.6404 176.186 25.3529 176.501 24.997C176.815 24.6305 177.071 24.2113 177.27 23.7401C177.48 23.2688 177.642 22.7758 177.757 22.2626C177.873 21.7496 177.951 21.2314 177.993 20.7079C178.045 20.1842 178.072 19.6912 178.072 19.2304C178.072 18.7696 178.045 18.2825 177.993 17.7694C177.951 17.246 177.873 16.7277 177.757 16.2147C177.642 15.7015 177.48 15.2085 177.27 14.7372C177.071 14.266 176.815 13.852 176.501 13.496C176.186 13.1295 175.804 12.8412 175.354 12.6317C174.914 12.4118 174.401 12.3026 173.814 12.3026Z" fill="var(--fill-0, #003C78)"/>
</g>
</svg>
